<svg width="17" height="19" viewBox="0 0 17 19" fill="none" xmlns="http://www.w3.org/2000/svg">
<path d="M8.55563 0.476562C6.76848 0.476563 5.05453 1.18651 3.79082 2.45021C2.52712 3.71392 1.81717 5.42787 1.81717 7.21502V11.2424L1.02316 12.0364C0.866141 12.1935 0.759217 12.3935 0.715903 12.6114C0.672589 12.8292 0.694829 13.055 0.779812 13.2602C0.864795 13.4653 1.00871 13.6407 1.19335 13.7641C1.378 13.8875 1.59508 13.9534 1.81717 13.9535H15.2941C15.5162 13.9534 15.7333 13.8875 15.9179 13.7641C16.1026 13.6407 16.2465 13.4653 16.3315 13.2602C16.4164 13.055 16.4387 12.8292 16.3954 12.6114C16.3521 12.3935 16.2451 12.1935 16.0881 12.0364L15.2941 11.2424V7.21502C15.2941 5.42787 14.5842 3.71392 13.3204 2.45021C12.0567 1.18651 10.3428 0.476563 8.55563 0.476562ZM8.55563 18.4458C7.66206 18.4458 6.80508 18.0908 6.17323 17.459C5.54138 16.8271 5.1864 15.9701 5.1864 15.0766H11.9249C11.9249 15.9701 11.5699 16.8271 10.938 17.459C10.3062 18.0908 9.44921 18.4458 8.55563 18.4458Z" fill="#5B6871"/>
</svg>
