<svg width="11" height="11" viewBox="0 0 11 11" fill="none" xmlns="http://www.w3.org/2000/svg">
<path d="M9.61692 7.31779C9.86266 6.7619 9.99915 6.14689 9.99915 5.5C9.99915 3.01472 7.98462 1 5.49957 1C3.01453 1 1 3.01472 1 5.5C1 7.98528 3.01453 10 5.49957 10C6.29966 10 7.05096 9.79116 7.70197 9.42501L10 9.99957L9.61692 7.31779Z" stroke="#CA7CCC" stroke-linecap="round" stroke-linejoin="round"/>
<path d="M9.61692 7.31779C9.86266 6.7619 9.99915 6.14689 9.99915 5.5C9.99915 3.01472 7.98462 1 5.49957 1C3.01453 1 1 3.01472 1 5.5C1 7.98528 3.01453 10 5.49957 10C6.29966 10 7.05096 9.79116 7.70197 9.42501L10 9.99957L9.61692 7.31779Z" stroke="#CA7CCC" stroke-linecap="round" stroke-linejoin="round"/>
<path d="M9.61692 7.31779C9.86266 6.7619 9.99915 6.14689 9.99915 5.5C9.99915 3.01472 7.98462 1 5.49957 1C3.01453 1 1 3.01472 1 5.5C1 7.98528 3.01453 10 5.49957 10C6.29966 10 7.05096 9.79116 7.70197 9.42501L10 9.99957L9.61692 7.31779Z" stroke="#CA7CCC" stroke-linecap="round" stroke-linejoin="round"/>
</svg>
