<svg width="21" height="20" viewBox="0 0 21 20" fill="none" xmlns="http://www.w3.org/2000/svg">
<path d="M4.37485 9.16667C4.37485 5.48477 7.5086 2.5 11.3743 2.5C15.2399 2.5 18.3737 5.48477 18.3737 9.16667C18.3737 10.125 18.1614 11.0361 17.7791 11.8597L18.375 15.8327L14.8003 14.9815C13.7876 15.5239 12.6188 15.8333 11.3743 15.8333M2.62583 13.3333C2.62583 13.9323 2.75851 14.5018 2.9974 15.0165L2.625 17.4996L4.85901 16.9676C5.49188 17.3066 6.22225 17.5 7.00005 17.5C9.41586 17.5 11.3743 15.6345 11.3743 13.3333C11.3743 11.0321 9.41586 9.16667 7.00005 9.16667C4.58423 9.16667 2.62583 11.0321 2.62583 13.3333Z" stroke="#8B8B8B" stroke-width="1.61078" stroke-linecap="round" stroke-linejoin="round"/>
</svg>
