<svg width="17" height="17" viewBox="0 0 17 17" fill="none" xmlns="http://www.w3.org/2000/svg">
<path fill-rule="evenodd" clip-rule="evenodd" d="M15.4531 7.35741C15.1948 7.35741 13.6483 7.35741 13.0048 6.57687C13.0048 6.44771 12.8756 6.44772 12.8756 6.31744C12.7465 5.40775 13.9066 4.23862 14.0346 4.10835C14.2929 3.84892 14.2929 3.45808 14.1638 3.32893C14.0346 3.19865 13.5191 2.67867 13.3911 2.41924C13.262 2.15868 12.8745 2.28896 12.6173 2.54952C12.359 2.80782 11.3291 3.84892 10.4273 3.71751C10.2982 3.71751 10.2982 3.58836 10.169 3.58836C9.3952 3.06838 9.39521 1.50955 9.39521 1.25012C9.39521 0.859284 9.26717 0.599854 9.00887 0.599854H7.71957C7.46239 0.599854 7.33324 0.859284 7.33324 1.25012C7.33324 1.50842 7.33324 3.0695 6.56056 3.71864C6.43141 3.71864 6.43141 3.84891 6.30225 3.84891C5.40042 3.84891 4.36944 2.80895 4.11225 2.54952C3.85394 2.28896 3.46761 2.28896 3.33733 2.41924C3.2093 2.67867 2.69381 3.19865 2.43662 3.32893C2.30747 3.45808 2.30747 3.84892 2.56465 4.10835C2.82296 4.36778 3.85394 5.40775 3.72479 6.31744C3.72479 6.44772 3.59564 6.44771 3.59564 6.57687C3.08014 7.35741 1.53367 7.35741 1.27648 7.35741C0.890144 7.35741 0.631836 7.48656 0.631836 7.74711V8.91624C0.631836 9.17567 0.890144 9.43622 1.27648 9.43622C1.53479 9.43622 3.08014 9.43622 3.72479 10.2156C3.72479 10.3459 3.85394 10.3459 3.85394 10.4751C3.9831 11.3848 2.82296 12.555 2.69381 12.6842C2.4355 12.9447 2.4355 13.3344 2.56465 13.4647C2.69381 13.5939 3.2093 14.1138 3.33845 14.3744C3.46761 14.5035 3.85394 14.5035 4.11113 14.2441C4.36944 13.9836 5.40042 12.9447 6.30225 13.0739C6.43141 13.0739 6.43141 13.2041 6.56056 13.2041C7.33324 13.8544 7.33324 15.283 7.33324 15.6727C7.33324 15.9332 7.59154 16.3229 7.84985 16.3229H9.00887C9.26717 16.3229 9.52436 16.0635 9.52436 15.6727C9.52436 15.4144 9.52436 13.8533 10.2982 13.2041C10.4262 13.2041 10.4262 13.0739 10.5565 13.0739C11.4572 12.9447 12.6173 14.1138 12.7465 14.2441C13.0048 14.5035 13.3911 14.5035 13.5191 14.3733L14.4221 13.4636C14.5501 13.3344 14.5501 12.9447 14.2929 12.6842C14.0346 12.4247 13.0037 11.3848 13.1328 10.4751C13.1328 10.3459 13.262 10.3459 13.262 10.2156C13.9066 9.43622 15.3239 9.43622 15.7103 9.43622C15.9686 9.43622 16.3549 9.17567 16.3549 8.91624V7.74711C16.0966 7.48656 15.8394 7.35741 15.4531 7.35741ZM8.36422 11.2545C6.81774 11.2545 5.52957 9.95621 5.52957 8.39625C5.52957 6.83742 6.81774 5.53802 8.36422 5.53802C9.9107 5.53802 11.2 6.83742 11.2 8.39625C11.2 9.95621 9.9107 11.2556 8.36422 11.2556V11.2545Z" fill="#4F566B"/>
</svg>
