<svg width="22" height="22" viewBox="0 0 22 22" fill="none" xmlns="http://www.w3.org/2000/svg">
<path d="M6.9809 9.49915H5.21649C3.08154 9.49915 1.9082 8.32581 1.9082 6.19087V4.42645C1.9082 2.2915 3.08154 1.11816 5.21649 1.11816H6.9809C9.11585 1.11816 10.2892 2.2915 10.2892 4.42645V6.19087C10.2892 8.32581 9.11585 9.49915 6.9809 9.49915ZM5.21649 2.44148C3.8226 2.44148 3.23152 3.03256 3.23152 4.42645V6.19087C3.23152 7.58476 3.8226 8.17584 5.21649 8.17584H6.9809C8.3748 8.17584 8.96588 7.58476 8.96588 6.19087V4.42645C8.96588 3.03256 8.3748 2.44148 6.9809 2.44148H5.21649Z" fill="#787486"/>
<path d="M17.5678 9.49915H15.8034C13.6685 9.49915 12.4951 8.32581 12.4951 6.19087V4.42645C12.4951 2.2915 13.6685 1.11816 15.8034 1.11816H17.5678C19.7028 1.11816 20.8761 2.2915 20.8761 4.42645V6.19087C20.8761 8.32581 19.7028 9.49915 17.5678 9.49915ZM15.8034 2.44148C14.4095 2.44148 13.8184 3.03256 13.8184 4.42645V6.19087C13.8184 7.58476 14.4095 8.17584 15.8034 8.17584H17.5678C18.9617 8.17584 19.5528 7.58476 19.5528 6.19087V4.42645C19.5528 3.03256 18.9617 2.44148 17.5678 2.44148H15.8034Z" fill="#787486"/>
<path d="M17.5678 20.0861H15.8034C13.6685 20.0861 12.4951 18.9127 12.4951 16.7778V15.0134C12.4951 12.8784 13.6685 11.7051 15.8034 11.7051H17.5678C19.7028 11.7051 20.8761 12.8784 20.8761 15.0134V16.7778C20.8761 18.9127 19.7028 20.0861 17.5678 20.0861ZM15.8034 13.0284C14.4095 13.0284 13.8184 13.6195 13.8184 15.0134V16.7778C13.8184 18.1717 14.4095 18.7628 15.8034 18.7628H17.5678C18.9617 18.7628 19.5528 18.1717 19.5528 16.7778V15.0134C19.5528 13.6195 18.9617 13.0284 17.5678 13.0284H15.8034Z" fill="#787486"/>
<path d="M6.9809 20.0861H5.21649C3.08154 20.0861 1.9082 18.9127 1.9082 16.7778V15.0134C1.9082 12.8784 3.08154 11.7051 5.21649 11.7051H6.9809C9.11585 11.7051 10.2892 12.8784 10.2892 15.0134V16.7778C10.2892 18.9127 9.11585 20.0861 6.9809 20.0861ZM5.21649 13.0284C3.8226 13.0284 3.23152 13.6195 3.23152 15.0134V16.7778C3.23152 18.1717 3.8226 18.7628 5.21649 18.7628H6.9809C8.3748 18.7628 8.96588 18.1717 8.96588 16.7778V15.0134C8.96588 13.6195 8.3748 13.0284 6.9809 13.0284H5.21649Z" fill="#787486"/>
</svg>
