<svg width="10" height="11" viewBox="0 0 10 11" fill="none" xmlns="http://www.w3.org/2000/svg">
<path d="M1 2.58824H9M4 7.88235V4.70588M6 7.88235V4.70588M7 10H3C2.44772 10 2 9.52595 2 8.94118V3.11765C2 2.82526 2.22386 2.58824 2.5 2.58824H7.5C7.77614 2.58824 8 2.82526 8 3.11765V8.94118C8 9.52595 7.55228 10 7 10ZM4 2.58824H6C6.27614 2.58824 6.5 2.35121 6.5 2.05882V1.52941C6.5 1.23703 6.27614 1 6 1H4C3.72386 1 3.5 1.23703 3.5 1.52941V2.05882C3.5 2.35121 3.72386 2.58824 4 2.58824Z" stroke="#CB5353" stroke-linecap="round" stroke-linejoin="round"/>
</svg>
