<svg width="24" height="24" viewBox="0 0 24 24" fill="none" xmlns="http://www.w3.org/2000/svg">
<path d="M11.0984 3.80369H5.4119C3.52756 3.80369 2 5.3312 2 7.21548V18.5882C2 20.4725 3.52756 22 5.4119 22H16.7849C18.6692 22 20.1968 20.4725 20.1968 18.5882L20.1968 12.9018M7.68649 16.3136L11.8244 15.4799C12.044 15.4356 12.2457 15.3274 12.4041 15.1689L21.6671 5.90116C22.1112 5.45682 22.1109 4.73657 21.6664 4.2926L19.7042 2.33264C19.2599 1.88886 18.54 1.88916 18.0961 2.33332L8.8321 11.6021C8.674 11.7602 8.56605 11.9615 8.52175 12.1807L7.68649 16.3136Z" stroke="black" stroke-width="2" stroke-linecap="round" stroke-linejoin="round"/>
</svg>
