<svg width="22" height="22" viewBox="0 0 22 22" fill="none" xmlns="http://www.w3.org/2000/svg">
<path d="M8.30467 17.2388H7.86357C4.33473 17.2388 2.57031 16.3566 2.57031 11.9455V7.53446C2.57031 4.00563 4.33473 2.24121 7.86357 2.24121H14.9212C18.4501 2.24121 20.2145 4.00563 20.2145 7.53446V11.9455C20.2145 15.4743 18.4501 17.2388 14.9212 17.2388H14.4801C14.2066 17.2388 13.942 17.3711 13.7744 17.5916L12.4511 19.3561C11.8688 20.1324 10.916 20.1324 10.3338 19.3561L9.01044 17.5916C8.86928 17.3976 8.54287 17.2388 8.30467 17.2388Z" stroke="#787486" stroke-width="1.76442" stroke-miterlimit="10" stroke-linecap="round" stroke-linejoin="round"/>
<path d="M14.9187 10.1809H14.9266" stroke="#787486" stroke-width="2.35256" stroke-linecap="round" stroke-linejoin="round"/>
<path d="M11.3884 10.1809H11.3963" stroke="#787486" stroke-width="2.35256" stroke-linecap="round" stroke-linejoin="round"/>
<path d="M7.85813 10.1809H7.86606" stroke="#787486" stroke-width="2.35256" stroke-linecap="round" stroke-linejoin="round"/>
</svg>
