<svg width="70" height="70" viewBox="0 0 70 70" fill="none" xmlns="http://www.w3.org/2000/svg">
<path d="M43 40C44.1046 40 45 39.1046 45 38C45 36.8954 44.1046 36 43 36C41.8954 36 41 36.8954 41 38C41 39.1046 41.8954 40 43 40Z" fill="black"/>
<path d="M53 38C53 39.1046 52.1046 40 51 40C49.8954 40 49 39.1046 49 38C49 36.8954 49.8954 36 51 36C52.1046 36 53 36.8954 53 38Z" fill="black"/>
<path d="M35 40C36.1046 40 37 39.1046 37 38C37 36.8954 36.1046 36 35 36C33.8954 36 33 36.8954 33 38C33 39.1046 33.8954 40 35 40Z" fill="black"/>
<path fill-rule="evenodd" clip-rule="evenodd" d="M62 18H54V8C54 3.58172 50.4183 0 46 0H8C3.58172 0 0 3.58172 0 8V52L12 40H16V50C16 54.4183 19.5817 58 24 58H58L70 70V26C70 21.5817 66.4183 18 62 18ZM11.1716 38L2 47.1716V8C2 4.68629 4.68629 2 8 2H46C49.3137 2 52 4.68629 52 8V18H24C19.5817 18 16 21.5817 16 26V38H11.1716ZM58.8284 56H24C20.6863 56 18 53.3137 18 50V26C18 22.6863 20.6863 20 24 20H62C65.3137 20 68 22.6863 68 26V65.1716L58.8284 56Z" fill="black"/>
</svg>
