<svg width="18" height="19" viewBox="0 0 18 19" fill="none" xmlns="http://www.w3.org/2000/svg">
<path d="M9.74192 18.4853C4.7795 18.4853 0.74707 14.4492 0.74707 9.49047C0.74707 4.53171 4.78317 0.495605 9.74192 0.495605C10.0433 0.495605 10.3448 0.510309 10.6462 0.539716C10.9108 0.565447 11.1424 0.730861 11.2527 0.969793C11.363 1.20872 11.3409 1.49177 11.1939 1.71232C10.3484 2.95476 9.89998 4.40673 9.89998 5.91017C9.89998 9.76983 12.7929 12.9752 16.6342 13.3575C16.8988 13.3832 17.1304 13.5486 17.2407 13.7876C17.3546 14.0265 17.3289 14.3095 17.1819 14.5301C15.4983 17.0076 12.7194 18.4853 9.74192 18.4853V18.4853ZM9.28244 2.01742C5.36764 2.25635 2.25418 5.51685 2.25418 9.49047C2.25418 13.6185 5.61392 16.9782 9.74192 16.9782C11.8151 16.9782 13.7707 16.1181 15.1749 14.6367C13.4766 14.2066 11.9364 13.284 10.7344 11.968C9.22362 10.3065 8.3892 8.1598 8.3892 5.91752C8.39288 4.55377 8.69798 3.22678 9.28244 2.01742Z" fill="#6F6F6F"/>
</svg>
