<svg width="100" height="100" viewBox="0 0 100 100" fill="none" xmlns="http://www.w3.org/2000/svg">
<path fill-rule="evenodd" clip-rule="evenodd" d="M60.5359 6.19013C58.3171 2.81471 54.4963 0.586243 50.155 0.586243C45.8137 0.586243 41.9928 2.81476 39.7741 6.19025C24.2577 10.6849 12.9138 25.0005 12.9138 41.9656V57.1573C10.3259 60.3554 8.77585 64.4277 8.77585 68.8621C8.77585 79.1461 17.1126 87.4828 27.3965 87.4828L37.7414 87.4828C37.7414 90.7752 39.0492 93.9327 41.3773 96.2607C43.7053 98.5887 46.8628 99.8966 50.1552 99.8966C53.4475 99.8966 56.605 98.5887 58.933 96.2607C61.2611 93.9327 62.5689 90.7752 62.5689 87.4828L72.9138 87.4828C83.1977 87.4828 91.5345 79.1461 91.5345 68.8621C91.5345 64.4277 89.9844 60.3554 87.3965 57.1573V41.9656C87.3965 25.0003 76.0524 10.6846 60.5359 6.19013ZM21.1896 57.1573C21.1896 59.0524 20.5393 60.89 19.3472 62.3632C17.9079 64.1418 17.0517 66.3907 17.0517 68.8621C17.0517 74.5754 21.6833 79.207 27.3965 79.207H72.9138C78.6271 79.207 83.2586 74.5754 83.2586 68.8621C83.2586 66.3907 82.4024 64.1418 80.9631 62.3632C79.7711 60.89 79.1207 59.0524 79.1207 57.1573V41.9656C79.1207 25.9683 66.1524 13 50.1552 13C34.1579 13 21.1896 25.9684 21.1896 41.9656V57.1573ZM47.2292 90.4088C46.4532 89.6328 46.0172 88.5803 46.0172 87.4828H54.2931C54.2931 88.5803 53.8571 89.6328 53.0811 90.4088C52.3051 91.1848 51.2526 91.6208 50.1552 91.6208C49.0577 91.6208 48.0052 91.1848 47.2292 90.4088Z" fill="#787486"/>
</svg>
