<svg width="18" height="26" viewBox="0 0 18 26" fill="none" xmlns="http://www.w3.org/2000/svg">
<path d="M5.99754 20.4711H11.9874M15.1399 24.2812H2.845C2.14856 24.2812 1.58398 23.7126 1.58398 23.0112V19.6185C1.58398 19.3474 1.67013 19.0834 1.82981 18.8651L5.44636 13.9219C5.77413 13.4739 5.77413 12.8631 5.44636 12.4151L1.82981 7.47189C1.67013 7.25363 1.58398 6.98963 1.58398 6.71851V3.32581C1.58398 2.6244 2.14856 2.05579 2.845 2.05579H14.8247C15.5211 2.05579 16.0857 2.6244 16.0857 3.32581V6.74298C16.0857 6.99893 16.0089 7.24891 15.8654 7.46015L12.4931 12.4241C12.1902 12.8699 12.2005 13.4598 12.5186 13.8946L16.1551 18.8651C16.3148 19.0834 16.4009 19.3474 16.4009 19.6185V23.0112C16.4009 23.7126 15.8364 24.2812 15.1399 24.2812Z" stroke="#959595" stroke-width="2.46949" stroke-linecap="round" stroke-linejoin="round"/>
</svg>
