<svg width="13" height="14" viewBox="0 0 13 14" fill="none" xmlns="http://www.w3.org/2000/svg">
<path fill-rule="evenodd" clip-rule="evenodd" d="M6.70431 0.736084C7.03459 0.736084 7.35135 0.867291 7.5849 1.10084C7.81845 1.33439 7.94966 1.65115 7.94966 1.98144V5.7175H11.6857C12.016 5.7175 12.3328 5.8487 12.5663 6.08225C12.7999 6.3158 12.9311 6.63256 12.9311 6.96285C12.9311 7.29314 12.7999 7.6099 12.5663 7.84345C12.3328 8.077 12.016 8.2082 11.6857 8.2082H7.94966V11.9443C7.94966 12.2746 7.81845 12.5913 7.5849 12.8249C7.35135 13.0584 7.03459 13.1896 6.70431 13.1896C6.37402 13.1896 6.05726 13.0584 5.82371 12.8249C5.59016 12.5913 5.45895 12.2746 5.45895 11.9443V8.2082H1.72289C1.3926 8.2082 1.07584 8.077 0.842295 7.84345C0.608746 7.6099 0.477539 7.29314 0.477539 6.96285C0.477539 6.63256 0.608746 6.3158 0.842295 6.08225C1.07584 5.8487 1.3926 5.7175 1.72289 5.7175H5.45895V1.98144C5.45895 1.65115 5.59016 1.33439 5.82371 1.10084C6.05726 0.867291 6.37402 0.736084 6.70431 0.736084Z" fill="white"/>
</svg>
