<svg width="20" height="19" viewBox="0 0 20 19" fill="none" xmlns="http://www.w3.org/2000/svg">
<g clip-path="url(#clip0_870_6269)">
<path d="M9.62504 14.1954C12.2236 14.1954 14.3302 12.0888 14.3302 9.49027C14.3302 6.89171 12.2236 4.78516 9.62504 4.78516C7.02647 4.78516 4.91992 6.89171 4.91992 9.49027C4.91992 12.0888 7.02647 14.1954 9.62504 14.1954Z" stroke="#131313" stroke-width="1.76442" stroke-linecap="round" stroke-linejoin="round"/>
<path d="M17.4678 9.49023H18.252" stroke="#131313" stroke-width="1.76442" stroke-linecap="round" stroke-linejoin="round"/>
<path d="M9.625 1.64844V0.864258" stroke="#131313" stroke-width="1.76442" stroke-linecap="round" stroke-linejoin="round"/>
<path d="M9.625 18.1162V17.332" stroke="#131313" stroke-width="1.76442" stroke-linecap="round" stroke-linejoin="round"/>
<path d="M15.8994 15.7637L15.1152 14.9795" stroke="#131313" stroke-width="1.76442" stroke-linecap="round" stroke-linejoin="round"/>
<path d="M15.8994 3.2168L15.1152 4.00098" stroke="#131313" stroke-width="1.76442" stroke-linecap="round" stroke-linejoin="round"/>
<path d="M3.35254 15.7637L4.13672 14.9795" stroke="#131313" stroke-width="1.76442" stroke-linecap="round" stroke-linejoin="round"/>
<path d="M3.35254 3.2168L4.13672 4.00098" stroke="#131313" stroke-width="1.76442" stroke-linecap="round" stroke-linejoin="round"/>
<path d="M1 9.49023H1.78419" stroke="#131313" stroke-width="1.76442" stroke-linecap="round" stroke-linejoin="round"/>
</g>
<defs>
<clipPath id="clip0_870_6269">
<rect width="18.8205" height="18.8205" fill="white" transform="translate(0.214844 0.0800781)"/>
</clipPath>
</defs>
</svg>
