<svg width="36" height="9" viewBox="0 0 36 9" fill="none" xmlns="http://www.w3.org/2000/svg">
<path d="M9 4.5C9 5.69347 8.52589 6.83807 7.68198 7.68198C6.83807 8.52589 5.69347 9 4.5 9C3.30653 9 2.16193 8.52589 1.31802 7.68198C0.474106 6.83807 0 5.69347 0 4.5C0 3.30653 0.474106 2.16193 1.31802 1.31802C2.16193 0.474107 3.30653 0 4.5 0C5.69347 0 6.83807 0.474107 7.68198 1.31802C8.52589 2.16193 9 3.30653 9 4.5ZM22.5 4.5C22.5 5.69347 22.0259 6.83807 21.182 7.68198C20.3381 8.52589 19.1935 9 18 9C16.8065 9 15.6619 8.52589 14.818 7.68198C13.9741 6.83807 13.5 5.69347 13.5 4.5C13.5 3.30653 13.9741 2.16193 14.818 1.31802C15.6619 0.474107 16.8065 0 18 0C19.1935 0 20.3381 0.474107 21.182 1.31802C22.0259 2.16193 22.5 3.30653 22.5 4.5ZM31.5 9C32.6935 9 33.8381 8.52589 34.682 7.68198C35.5259 6.83807 36 5.69347 36 4.5C36 3.30653 35.5259 2.16193 34.682 1.31802C33.8381 0.474107 32.6935 0 31.5 0C30.3065 0 29.1619 0.474107 28.318 1.31802C27.4741 2.16193 27 3.30653 27 4.5C27 5.69347 27.4741 6.83807 28.318 7.68198C29.1619 8.52589 30.3065 9 31.5 9Z" fill="black"/>
</svg>
