<svg width="21" height="6" viewBox="0 0 21 6" fill="none" xmlns="http://www.w3.org/2000/svg">
<path d="M5.33395 2.90721C5.33395 3.56779 5.07154 4.20131 4.60444 4.66841C4.13734 5.1355 3.50382 5.39792 2.84325 5.39792C2.18267 5.39792 1.54915 5.1355 1.08205 4.66841C0.614952 4.20131 0.352539 3.56779 0.352539 2.90721C0.352539 2.24663 0.614952 1.61311 1.08205 1.14602C1.54915 0.678917 2.18267 0.416504 2.84325 0.416504C3.50382 0.416504 4.13734 0.678917 4.60444 1.14602C5.07154 1.61311 5.33395 2.24663 5.33395 2.90721ZM12.8061 2.90721C12.8061 3.56779 12.5437 4.20131 12.0766 4.66841C11.6095 5.1355 10.9759 5.39792 10.3154 5.39792C9.65479 5.39792 9.02127 5.1355 8.55417 4.66841C8.08707 4.20131 7.82466 3.56779 7.82466 2.90721C7.82466 2.24663 8.08707 1.61311 8.55417 1.14602C9.02127 0.678917 9.65479 0.416504 10.3154 0.416504C10.9759 0.416504 11.6095 0.678917 12.0766 1.14602C12.5437 1.61311 12.8061 2.24663 12.8061 2.90721ZM17.7875 5.39792C18.4481 5.39792 19.0816 5.1355 19.5487 4.66841C20.0158 4.20131 20.2782 3.56779 20.2782 2.90721C20.2782 2.24663 20.0158 1.61311 19.5487 1.14602C19.0816 0.678917 18.4481 0.416504 17.7875 0.416504C17.1269 0.416504 16.4934 0.678917 16.0263 1.14602C15.5592 1.61311 15.2968 2.24663 15.2968 2.90721C15.2968 3.56779 15.5592 4.20131 16.0263 4.66841C16.4934 5.1355 17.1269 5.39792 17.7875 5.39792Z" fill="#5B6871"/>
</svg>
