<svg width="17" height="17" viewBox="0 0 17 17" fill="none" xmlns="http://www.w3.org/2000/svg">
<path fill-rule="evenodd" clip-rule="evenodd" d="M7.21307 2.84711C6.02164 2.84711 4.879 3.32041 4.03653 4.16288C3.19406 5.00535 2.72076 6.14799 2.72076 7.33942C2.72076 8.53085 3.19406 9.67349 4.03653 10.516C4.879 11.3584 6.02164 11.8317 7.21307 11.8317C8.4045 11.8317 9.54714 11.3584 10.3896 10.516C11.2321 9.67349 11.7054 8.53085 11.7054 7.33942C11.7054 6.14799 11.2321 5.00535 10.3896 4.16288C9.54714 3.32041 8.4045 2.84711 7.21307 2.84711ZM0.47461 7.33942C0.474474 6.2789 0.724654 5.23333 1.2048 4.28773C1.68495 3.34213 2.38151 2.52321 3.23782 1.89758C4.09414 1.27194 5.08603 0.857258 6.13283 0.687248C7.17964 0.517237 8.25179 0.596703 9.26208 0.919182C10.2724 1.24166 11.1923 1.79805 11.947 2.54309C12.7018 3.28813 13.27 4.20079 13.6055 5.20685C13.941 6.2129 14.0343 7.28393 13.8778 8.33284C13.7213 9.38175 13.3194 10.3789 12.7049 11.2432L15.8686 14.4069C16.0732 14.6188 16.1864 14.9024 16.1838 15.1969C16.1813 15.4914 16.0632 15.7731 15.8549 15.9813C15.6467 16.1895 15.365 16.3076 15.0706 16.3102C14.7761 16.3128 14.4924 16.1996 14.2806 15.995L11.118 12.8324C10.1099 13.5492 8.92391 13.9747 7.69001 14.0623C6.45612 14.1498 5.22194 13.8961 4.1227 13.3288C3.02346 12.7615 2.1016 11.9025 1.45811 10.8461C0.814632 9.78961 0.474369 8.57642 0.47461 7.33942Z" fill="#B0BABF"/>
</svg>
