<svg width="25" height="28" viewBox="0 0 25 28" fill="none" xmlns="http://www.w3.org/2000/svg">
<path d="M6.27674 15.6773C6.27674 15.0127 6.81552 14.4739 7.48013 14.4739H7.49127C8.15588 14.4739 8.69466 15.0127 8.69466 15.6773C8.69466 16.3419 8.15588 16.8807 7.49127 16.8807H7.48013C6.81552 16.8807 6.27674 16.3419 6.27674 15.6773Z" fill="#B6B6B6"/>
<path d="M11.6279 15.6773C11.6279 15.0127 12.1666 14.4739 12.8312 14.4739H12.8424C13.507 14.4739 14.0458 15.0127 14.0458 15.6773C14.0458 16.3419 13.507 16.8807 12.8424 16.8807H12.8312C12.1666 16.8807 11.6279 16.3419 11.6279 15.6773Z" fill="#B6B6B6"/>
<path d="M16.9678 15.6773C16.9678 15.0127 17.5066 14.4739 18.1712 14.4739H18.1823C18.8469 14.4739 19.3857 15.0127 19.3857 15.6773C19.3857 16.3419 18.8469 16.8807 18.1823 16.8807H18.1712C17.5066 16.8807 16.9678 16.3419 16.9678 15.6773Z" fill="#B6B6B6"/>
<path d="M6.27674 20.3543C6.27674 19.6897 6.81552 19.1509 7.48013 19.1509H7.49127C8.15588 19.1509 8.69466 19.6897 8.69466 20.3543C8.69466 21.0189 8.15588 21.5577 7.49127 21.5577H7.48013C6.81552 21.5577 6.27674 21.0189 6.27674 20.3543Z" fill="#B6B6B6"/>
<path d="M11.6279 20.3543C11.6279 19.6897 12.1666 19.1509 12.8312 19.1509H12.8424C13.507 19.1509 14.0458 19.6897 14.0458 20.3543C14.0458 21.0189 13.507 21.5577 12.8424 21.5577H12.8312C12.1666 21.5577 11.6279 21.0189 11.6279 20.3543Z" fill="#B6B6B6"/>
<path d="M16.9678 20.3543C16.9678 19.6897 17.5066 19.1509 18.1712 19.1509H18.1823C18.8469 19.1509 19.3857 19.6897 19.3857 20.3543C19.3857 21.0189 18.8469 21.5577 18.1823 21.5577H18.1712C17.5066 21.5577 16.9678 21.0189 16.9678 20.3543Z" fill="#B6B6B6"/>
<path fill-rule="evenodd" clip-rule="evenodd" d="M18.8935 2.06758C18.8935 1.40297 18.3547 0.864197 17.6901 0.864197C17.0255 0.864197 16.4867 1.40297 16.4867 2.06758V2.76446H9.17238V2.06758C9.17238 1.40297 8.63361 0.864197 7.969 0.864197C7.30439 0.864197 6.76562 1.40297 6.76562 2.06758V2.81095C5.17849 2.96716 3.77453 3.52103 2.7107 4.53231C1.42543 5.7541 0.791016 7.49668 0.791016 9.55517V20.4454C0.791016 22.5266 1.42175 24.2916 2.70229 25.5327C3.97686 26.768 5.74471 27.3385 7.73569 27.3385H17.9139C19.9042 27.3385 21.6704 26.7802 22.945 25.5631C24.2282 24.338 24.8587 22.593 24.8587 20.5364V9.55733C24.8647 7.50044 24.2373 5.75677 22.9541 4.53348C21.8909 3.51999 20.485 2.96619 18.8935 2.81056V2.06758ZM16.4867 5.17122V6.02764C16.4867 6.69225 17.0255 7.23103 17.6901 7.23103C18.3547 7.23103 18.8935 6.69225 18.8935 6.02764V5.23247C19.9515 5.37365 20.7427 5.75052 21.2934 6.27553C21.9914 6.94092 22.4567 7.99036 22.4519 9.55148L22.4519 9.55517V9.77439H3.19778V9.55517C3.19778 7.99499 3.66703 6.94391 4.36891 6.27669C4.92172 5.75119 5.7127 5.37472 6.76562 5.23309V6.02764C6.76562 6.69225 7.30439 7.23103 7.969 7.23103C8.63361 7.23103 9.17238 6.69225 9.17238 6.02764V5.17122H16.4867ZM3.19778 12.1812V20.4454C3.19778 22.0397 3.67071 23.1196 4.37732 23.8045C5.08991 24.4951 6.1927 24.9317 7.73569 24.9317H17.9139C19.4688 24.9317 20.5733 24.5 21.283 23.8224C21.9842 23.1528 22.4519 22.0984 22.4519 20.5364V12.1812H3.19778Z" fill="#B6B6B6"/>
</svg>
