<svg width="22" height="22" viewBox="0 0 22 22" fill="none" xmlns="http://www.w3.org/2000/svg">
<path d="M8.88629 10.2969C8.79806 10.2881 8.6922 10.2881 8.59516 10.2969C6.4955 10.2263 4.82812 8.50599 4.82812 6.38869C4.82812 4.22728 6.5749 2.47168 8.74513 2.47168C10.9065 2.47168 12.6621 4.22728 12.6621 6.38869C12.6533 8.50599 10.9859 10.2263 8.88629 10.2969Z" stroke="#787486" stroke-width="1.76442" stroke-linecap="round" stroke-linejoin="round"/>
<path d="M15.2827 4.23584C16.9941 4.23584 18.3704 5.62091 18.3704 7.32357C18.3704 8.99095 17.0471 10.3495 15.3973 10.4113C15.3268 10.4025 15.2474 10.4025 15.168 10.4113" stroke="#787486" stroke-width="1.76442" stroke-linecap="round" stroke-linejoin="round"/>
<path d="M4.47523 13.5521C2.34029 14.9813 2.34029 17.3104 4.47523 18.7307C6.90131 20.354 10.8801 20.354 13.3061 18.7307C15.4411 17.3015 15.4411 14.9725 13.3061 13.5521C10.8889 11.9377 6.91013 11.9377 4.47523 13.5521Z" stroke="#787486" stroke-width="1.76442" stroke-linecap="round" stroke-linejoin="round"/>
<path d="M16.9854 18.3514C17.6205 18.219 18.2204 17.9632 18.7145 17.5838C20.0907 16.5517 20.0907 14.849 18.7145 13.8168C18.2293 13.4463 17.6382 13.1993 17.0118 13.0581" stroke="#787486" stroke-width="1.76442" stroke-linecap="round" stroke-linejoin="round"/>
</svg>
