<svg width="24" height="24" viewBox="0 0 24 24" fill="none" xmlns="http://www.w3.org/2000/svg">
<path d="M16.0258 20.5708L16.0261 17.3571C16.0263 15.5819 14.5872 14.1427 12.812 14.1427H5.61481C3.83987 14.1427 2.40095 15.5815 2.40075 17.3564L2.40039 20.5708M21.6001 20.571L21.6004 17.3572C21.6005 15.5821 20.1615 14.1429 18.3863 14.1429M15.4067 4.06061C16.196 4.64624 16.7075 5.5851 16.7075 6.64343C16.7075 7.70176 16.196 8.64061 15.4067 9.22625M12.4942 6.64325C12.4942 8.41833 11.0552 9.85731 9.28013 9.85731C7.50506 9.85731 6.06608 8.41833 6.06608 6.64325C6.06608 4.86818 7.50506 3.4292 9.28013 3.4292C11.0552 3.4292 12.4942 4.86818 12.4942 6.64325Z" stroke="black" stroke-width="2" stroke-linecap="round" stroke-linejoin="round"/>
</svg>
