<svg width="93" height="14" viewBox="0 0 93 14" fill="none" xmlns="http://www.w3.org/2000/svg">
<g clip-path="url(#clip0_340_16558)">
<path d="M6.6017 0.32312L8.64148 4.4566L13.2032 5.11961L9.90231 8.33688L10.6815 12.8802L6.6017 10.7353L2.52166 12.8802L3.30085 8.33688L0 5.11961L4.56168 4.4566L6.6017 0.32312Z" fill="#EFCE4A"/>
</g>
<g clip-path="url(#clip1_340_16558)">
<path d="M26.7726 0.32312L28.8124 4.4566L33.3741 5.11961L30.0732 8.33688L30.8524 12.8802L26.7726 10.7353L22.6926 12.8802L23.4718 8.33688L20.1709 5.11961L24.7326 4.4566L26.7726 0.32312Z" fill="#EFCE4A"/>
</g>
<g clip-path="url(#clip2_340_16558)">
<path d="M46.9445 0.32312L48.9843 4.4566L53.5459 5.11961L50.2451 8.33688L51.0243 12.8802L46.9445 10.7353L42.8644 12.8802L43.6436 8.33688L40.3428 5.11961L44.9045 4.4566L46.9445 0.32312Z" fill="#EFCE4A"/>
</g>
<g clip-path="url(#clip3_340_16558)">
<path d="M67.1164 0.32312L69.1561 4.4566L73.7178 5.11961L70.417 8.33688L71.1962 12.8802L67.1164 10.7353L63.0363 12.8802L63.8155 8.33688L60.5146 5.11961L65.0763 4.4566L67.1164 0.32312Z" fill="#EFCE4A"/>
</g>
<g clip-path="url(#clip4_340_16558)">
<path d="M85.4533 0.32312L87.493 4.4566L92.0547 5.11961L88.7539 8.33688L89.5331 12.8802L85.4533 10.7353L81.3732 12.8802L82.1524 8.33688L78.8516 5.11961L83.4132 4.4566L85.4533 0.32312Z" fill="#EFCE4A"/>
</g>
<defs>
<clipPath id="clip0_340_16558">
<rect width="13.2032" height="13.2032" fill="white"/>
</clipPath>
<clipPath id="clip1_340_16558">
<rect width="13.2032" height="13.2032" fill="white" transform="translate(20.1709 0.00012207)"/>
</clipPath>
<clipPath id="clip2_340_16558">
<rect width="13.2032" height="13.2032" fill="white" transform="translate(40.3428 0.00012207)"/>
</clipPath>
<clipPath id="clip3_340_16558">
<rect width="13.2032" height="13.2032" fill="white" transform="translate(60.5146 0.00012207)"/>
</clipPath>
<clipPath id="clip4_340_16558">
<rect width="13.2032" height="13.2032" fill="white" transform="translate(78.8516 0.00012207)"/>
</clipPath>
</defs>
</svg>
