<svg width="30" height="30" viewBox="0 0 30 30" fill="none" xmlns="http://www.w3.org/2000/svg">
<mask id="mask0_340_16569" style="mask-type:alpha" maskUnits="userSpaceOnUse" x="0" y="0" width="30" height="30">
<circle cx="15.1737" cy="14.6241" r="14.4393" fill="#D9D9D9"/>
</mask>
<g mask="url(#mask0_340_16569)">
<path d="M23.0896 26.545C23.0233 26.5924 22.9476 26.6397 22.8813 26.687C22.8056 26.7344 22.7393 26.7817 22.6635 26.8196C22.5973 26.8575 22.5404 26.8953 22.4742 26.9332C22.4647 26.9427 22.4552 26.9427 22.4458 26.9522C22.228 27.0847 22.0007 27.2078 21.7735 27.3214C21.7072 27.3593 21.6315 27.3972 21.5652 27.4256C21.5652 27.4256 21.5557 27.435 21.5462 27.435C21.4705 27.4729 21.3948 27.5108 21.319 27.5487C21.1675 27.6244 21.0065 27.6907 20.855 27.757C20.7793 27.7949 20.6941 27.8233 20.6183 27.8517C20.5426 27.8801 20.4574 27.9179 20.3816 27.9463C20.3059 27.9748 20.2207 28.0126 20.1449 28.041C20.1449 28.041 20.1449 28.041 20.1354 28.041C20.0597 28.0694 19.9745 28.0978 19.8987 28.1263C19.7283 28.1831 19.5484 28.2399 19.378 28.2967C19.3212 28.3156 19.2549 28.3346 19.1981 28.3535C19.0182 28.4103 18.8383 28.4576 18.6584 28.4955C18.5921 28.5145 18.5258 28.5239 18.4501 28.5429C18.2796 28.5807 18.0997 28.6186 17.9293 28.6565C17.8914 28.666 17.863 28.666 17.8251 28.6754C17.7683 28.6849 17.702 28.6944 17.6452 28.7038C17.56 28.7133 17.4843 28.7322 17.399 28.7417C17.3612 28.7512 17.3233 28.7512 17.2854 28.7606C17.2381 28.7701 17.1813 28.7796 17.1245 28.7796C16.973 28.7985 16.812 28.8175 16.6605 28.8364C16.6132 28.8459 16.5564 28.8459 16.509 28.8553H16.4995C16.4333 28.8648 16.367 28.8648 16.3007 28.8743C16.2344 28.8837 16.1681 28.8837 16.1019 28.8837C16.064 28.8837 16.0166 28.8932 15.9788 28.8932C15.903 28.8932 15.8367 28.9027 15.7705 28.9027C15.6758 28.9027 15.5906 28.9121 15.4959 28.9121C15.4012 28.9121 15.316 28.9121 15.2213 28.9121C15.155 28.9121 15.0887 28.9121 15.0225 28.9121C11.0267 28.8553 7.43819 27.1605 4.87222 24.4714C4.87222 24.4714 4.87222 24.4619 4.86276 24.4619C4.5787 24.2063 4.82488 22.8428 5.97057 21.9812C7.40978 20.8923 10.8563 20.2106 10.8563 20.2106C10.8563 20.2106 12.1914 19.9928 17.1434 21.0249C20.0408 21.6309 22.2469 22.5114 23.4778 24.8975C23.7335 25.3899 23.9891 26.1473 23.0896 26.545Z" fill="white"/>
<path d="M17.1715 20.9208C18.9895 21.2901 20.9305 21.6878 22.4265 22.8903C22.9284 23.2974 23.2598 23.8939 23.5344 24.4715C23.6669 24.7556 23.7995 25.0491 23.9036 25.3615C23.9604 25.5698 24.0457 25.8066 23.9983 26.0527C23.9888 26.119 23.932 26.2042 23.8847 26.2516C23.6669 26.4693 23.4302 26.6019 23.1935 26.7723C21.8016 27.7381 20.2014 28.4199 18.5445 28.7797C14.8517 29.5845 10.856 28.9596 7.60834 27.0185C6.52893 26.3652 5.53474 25.5698 4.68258 24.6325C4.58789 24.5188 4.58789 24.3295 4.58789 24.2064C4.59736 23.9223 4.67311 23.6477 4.76779 23.3921C4.99504 22.805 5.28856 22.218 5.79039 21.8108C6.15019 21.5647 6.5384 21.3564 6.93608 21.1859C8.18592 20.6557 9.50204 20.2864 10.856 20.1349C10.9697 20.1255 10.9886 20.2864 10.875 20.3054C9.57779 20.5705 8.29007 20.9682 7.08757 21.5079C6.65202 21.7256 6.18807 21.915 5.83773 22.2559C5.50634 22.6157 5.26962 23.0607 5.08025 23.5152C4.95716 23.7898 4.87195 24.2253 4.90982 24.4431C5.50633 25.1532 6.207 25.7781 6.96448 26.3179C11.1117 29.2152 17.4082 29.4046 21.8206 26.9901C22.2182 26.7723 22.6064 26.5262 22.9757 26.2705C23.1556 26.1474 23.345 26.0433 23.487 25.9012C23.4965 25.8918 23.487 25.9012 23.487 25.9107C23.487 25.9202 23.4775 25.9296 23.4775 25.9296C23.487 25.816 23.4491 25.6645 23.4018 25.513C23.2314 24.9639 22.9568 24.3863 22.6633 23.8844C22.1993 23.1364 21.4134 22.663 20.6181 22.2843C20.0689 22.0286 19.4913 21.8298 18.9043 21.6404C18.3172 21.451 17.7207 21.2901 17.1242 21.1481C16.9727 21.1102 17.02 20.8924 17.1715 20.9208Z" fill="black"/>
<path d="M26.2339 32.4156H2.28809C2.28809 32.4156 2.67629 28.5145 4.15338 25.3994C4.69308 24.2632 4.87299 22.5967 5.94293 21.8676C7.04127 21.1196 9.37999 20.5231 10.1943 20.4284C10.6488 20.3716 10.5446 20.3338 10.8665 20.2485C10.9707 20.5326 12.0217 23.3163 14.5403 24.3389C16.7086 25.2195 17.9963 24.6324 18.1952 23.6572C18.3183 23.0323 17.93 22.0097 17.7312 21.6783C17.6176 21.5836 17.5418 21.4416 17.504 21.2995L17.4282 20.9871C17.5986 20.9492 17.7596 20.9019 17.93 20.8545C18.0153 20.8735 18.1099 20.864 18.1857 20.9113C18.981 21.3469 21.3766 21.9623 22.6264 23.2785C23.1188 23.7898 23.8857 25.6077 24.0088 26.7913C24.3592 30.039 26.2339 32.4156 26.2339 32.4156Z" fill="white"/>
<path d="M26.3661 32.4724C19.2648 32.4914 9.29445 32.5766 2.29723 32.5482C2.21201 32.5482 2.14573 32.4724 2.1552 32.3872C2.24042 31.715 2.35404 31.0616 2.4866 30.3988C2.83693 28.5904 3.36717 26.8103 4.16252 25.1533C4.48445 24.3769 4.64541 23.5626 5.03362 22.8051C5.26087 22.3506 5.60173 21.9151 6.05622 21.6594C6.78529 21.2239 7.59012 20.9493 8.39494 20.7031C8.87783 20.5611 9.37019 20.4285 9.86256 20.3338C10.1087 20.277 10.3549 20.2865 10.5822 20.1918C10.7053 20.1445 10.942 20.0024 11.0177 20.1823C11.7089 21.9719 13.044 23.6667 14.9093 24.3011C15.8751 24.6515 17.551 24.945 18.0433 23.7614C18.1948 23.3164 18.0528 22.8335 17.9202 22.3885C17.8445 22.1613 17.7498 21.9245 17.6362 21.7352L17.6646 21.7636C17.4942 21.6215 17.3995 21.3943 17.3711 21.186L17.3237 20.9966C17.3048 20.9209 17.3521 20.8451 17.4279 20.8262C17.5983 20.7978 17.7688 20.741 17.9392 20.6936C18.0339 20.6936 18.1854 20.7126 18.3085 20.7788C19.35 21.2617 20.5336 21.6121 21.5277 22.2181C22.0864 22.5495 22.6545 22.9377 23.0143 23.4963C23.6771 24.6041 24.1032 25.8634 24.2263 27.1417C24.4914 28.9691 25.2299 30.7208 26.2904 32.2263L26.3283 32.2736L26.3472 32.2925L26.3567 32.302C26.3567 32.302 26.3567 32.2925 26.3661 32.3209C26.3756 32.3778 26.3756 32.444 26.3661 32.4724ZM26.1105 32.3494C26.0916 32.3778 26.0916 32.444 26.1105 32.4724C26.1294 32.4914 26.12 32.4819 26.12 32.4819L26.1105 32.4724L26.0916 32.444L26.0537 32.3967C25.4572 31.4877 24.9648 30.5125 24.605 29.4993C24.321 28.7513 24.1126 27.9749 23.999 27.1796C23.9611 26.8955 23.9138 26.5168 23.8475 26.2422C23.6298 25.3332 23.2794 24.4242 22.7776 23.6383C22.6166 23.3827 22.3799 23.1838 22.1432 22.9945C21.3952 22.4264 20.5146 22.076 19.6435 21.7352L18.7535 21.4038C18.46 21.2901 18.1096 21.1671 17.9297 20.9872H18.0055C17.835 21.044 17.6646 21.0913 17.4942 21.1292L17.5983 20.9588L17.6457 21.1481C17.6835 21.3186 17.7214 21.4701 17.854 21.5837C17.8634 21.5931 17.8729 21.6026 17.8824 21.6121C18.138 22.076 18.2895 22.5589 18.3653 23.0797C18.5262 23.9792 17.9581 24.6893 17.087 24.8598C15.8845 25.0965 14.4453 24.5757 13.4511 23.9035C12.2013 23.0229 11.3018 21.7162 10.7526 20.3054L10.923 20.3906C10.8378 20.419 10.781 20.4475 10.6958 20.4853C10.6106 20.5327 10.5064 20.5611 10.4117 20.58C10.4212 20.6368 10.3928 20.4664 10.4307 20.6936C10.2508 20.7126 10.1087 20.722 9.9383 20.7599C9.45541 20.8357 8.97252 20.9493 8.49909 21.0818C7.8647 21.2523 7.23978 21.4606 6.65274 21.7352C6.35921 21.8772 6.07516 22.0287 5.85738 22.2275C5.63014 22.4264 5.45024 22.6915 5.29874 22.9755C4.85372 23.8372 4.63595 24.8692 4.18146 25.7403C3.23461 27.8518 2.70437 30.1527 2.44872 32.4535L2.30669 32.302C9.18082 32.2736 19.1227 32.3115 26.1105 32.3494Z" fill="black"/>
<path d="M18.5452 26.2232C18.2138 26.3179 17.0586 25.1154 16.8219 24.9071C16.6042 25.1533 15.0703 26.886 14.3128 26.7724C13.4796 26.6493 11.3491 25.2196 10.2697 22.9756C9.67322 21.7446 9.65428 20.9966 9.72056 20.5895C9.74896 20.4001 9.80577 20.277 9.83418 20.2108C9.92887 19.993 10.6106 19.1503 10.781 19.1597V19.1692C10.8662 20.0782 11.1598 20.9588 11.6521 21.7257C12.2581 22.6631 13.2144 23.7898 14.5495 24.3295C16.7178 25.2101 17.8445 24.339 18.0339 23.3638C18.157 22.7388 17.9392 22.0003 17.7404 21.6689C17.6268 21.5742 17.551 21.4322 17.5131 21.2902L17.4374 20.9777C17.6078 20.9398 17.7688 20.8925 17.9392 20.8451C17.9866 20.8262 18.0434 20.8167 18.0907 20.7978C18.1191 20.8357 18.157 20.8735 18.1854 20.9114C18.5831 21.3659 18.9997 21.9908 19.2269 23.0513C19.6057 24.7462 18.9145 26.1096 18.5452 26.2232Z" fill="black"/>
<path d="M16.7939 24.8503C16.7939 24.8503 17.4851 25.248 17.4662 25.5794C17.4473 25.9108 17.6461 26.9618 17.6461 26.9618" stroke="black" stroke-width="0.0668622" stroke-miterlimit="10" stroke-linecap="round" stroke-linejoin="round"/>
<path d="M16.7839 26.1098C16.9094 26.1098 17.0111 26.008 17.0111 25.8825C17.0111 25.757 16.9094 25.6553 16.7839 25.6553C16.6584 25.6553 16.5566 25.757 16.5566 25.8825C16.5566 26.008 16.6584 26.1098 16.7839 26.1098Z" fill="black"/>
<path d="M16.8601 26.9997C16.9856 26.9997 17.0873 26.8979 17.0873 26.7724C17.0873 26.6469 16.9856 26.5452 16.8601 26.5452C16.7346 26.5452 16.6328 26.6469 16.6328 26.7724C16.6328 26.8979 16.7346 26.9997 16.8601 26.9997Z" fill="black"/>
<path d="M6.97491 32.4156L6.54883 28.9028" stroke="#544D4D" stroke-width="0.0668622" stroke-miterlimit="10" stroke-linecap="round" stroke-linejoin="round"/>
<path d="M23.5166 27.71C23.5166 27.71 23.2325 28.4012 23.3178 29.0924C23.403 29.7836 23.6492 30.7967 23.2988 32.4158" stroke="#544D4D" stroke-width="0.0668622" stroke-miterlimit="10" stroke-linecap="round" stroke-linejoin="round"/>
<path d="M10.7812 19.1597C10.7812 19.1597 13.8395 18.2129 18.1003 20.7883C18.1003 20.7883 19.2744 23.9508 18.5453 24.4337C17.8162 24.9166 15.5249 24.9639 13.9247 24.4337C12.3151 23.9129 10.2509 21.3091 10.7812 19.1597Z" fill="black"/>
<path d="M18.0614 23.4396C17.8626 24.4148 16.5749 25.0019 14.4066 24.1213C12.1531 23.2123 11.1778 21.044 10.9316 20.4002C12.2667 17.9005 11.3388 16.1678 11.3388 16.1678C14.416 15.9027 17.1051 19.5007 17.1051 19.5007L17.5217 21.2808C17.5596 21.4323 17.6353 21.5648 17.749 21.6595C17.9478 22.0098 18.1845 22.8147 18.0614 23.4396Z" fill="white"/>
<path d="M10.8846 20.4287C11.0645 20.1541 11.1781 19.8321 11.2539 19.5197C11.3959 18.8664 11.4433 18.2036 11.4527 17.5408V17.2946C11.4243 17.0484 11.3391 16.7928 11.2444 16.5655C11.1213 16.2625 11.5664 16.0731 11.7084 16.3761C11.7273 16.414 11.7273 16.4803 11.7273 16.5182C11.7557 17.8059 11.8125 19.4629 10.9982 20.5328C10.9414 20.5896 10.8278 20.5044 10.8846 20.4287Z" fill="black"/>
<path d="M17.2091 19.4819C17.3511 19.5671 17.3985 19.6807 17.4174 19.7943C17.4742 20.0216 17.4553 20.2677 17.5121 20.5045C17.5594 20.7317 17.7015 20.9495 17.7394 21.1862C17.7867 21.4324 17.9287 21.9531 17.9855 22.2088C18.0045 22.2656 17.9666 22.3319 17.9003 22.3413C17.8624 22.3508 17.834 22.3413 17.8056 22.3224C17.6825 22.2183 17.6257 22.1141 17.55 21.9815C17.4269 21.7543 17.3417 21.546 17.2659 21.2903C17.1996 21.0631 17.2281 20.8169 17.1712 20.5802C17.1239 20.353 16.9913 20.1352 16.944 19.8985C16.9156 19.7849 16.9061 19.6618 16.9913 19.5197C17.0482 19.4629 17.1428 19.444 17.2091 19.4819Z" fill="black"/>
<path d="M17.8908 21.9814C16.0823 21.8868 14.6052 21.3186 13.166 18.7527C14.378 19.8226 15.8077 20.2298 17.3132 20.4191L17.5121 21.2902C17.5499 21.4417 17.7772 21.8868 17.8908 21.9814Z" fill="black"/>
<path d="M17.8154 21.631C18.1373 22.237 18.3267 22.9945 18.1278 23.6668C17.9763 24.1402 17.5408 24.4905 17.0673 24.6231C15.969 24.9166 14.7002 24.4527 13.725 23.9319C12.5225 23.2596 11.6324 22.1329 11.0643 20.902C11.0264 20.8073 11.159 20.7315 11.2158 20.8262C11.4147 21.2239 11.6419 21.6121 11.8975 21.9624C12.1532 22.3223 12.4467 22.6536 12.7781 22.9472C13.7439 23.8183 15.0506 24.358 16.3572 24.358C17.7017 24.3201 18.213 23.61 17.9006 22.3033C17.8532 22.095 17.7775 21.8772 17.6733 21.6973C17.6165 21.6216 17.7585 21.5364 17.8154 21.631Z" fill="black"/>
<path d="M21.4801 10.2595C21.6505 11.0548 21.518 11.5851 21.4422 13.7818C21.3665 15.9406 20.7416 18.9894 19.9746 19.7564C19.3876 20.334 17.5033 20.7885 15.8274 20.3624C14.9752 20.1446 14.2556 19.6522 13.6686 19.3019C12.93 18.8569 12.2862 17.484 11.756 16.6034C11.3393 15.9122 11.3772 16.7454 10.8375 16.1489C10.0895 15.3346 9.18999 13.6966 9.63501 10.7992C10.3546 6.10282 14.0757 5.55364 16.8311 6.07441C19.6053 6.59518 21.0256 8.16695 21.4801 10.2595Z" fill="white"/>
<path d="M11.3107 16.982C11.0929 16.6222 10.8088 16.3003 10.5532 15.9594C10.1744 15.4387 9.89039 14.8421 9.70102 14.2267C8.87726 11.5944 9.37909 8.14791 11.8693 6.59507C14.1323 5.15586 18.5257 5.67663 20.3625 7.64608C21.0538 8.35622 21.4988 9.28413 21.6881 10.2499C21.6976 10.3067 21.726 10.4109 21.7355 10.4677C21.7449 10.515 21.7734 10.5718 21.7639 10.6287C21.7449 10.837 21.7071 11.0453 21.6881 11.2536C21.5461 12.5129 21.584 13.8006 21.423 15.0599C21.281 16.3855 21.0916 17.7111 20.6939 18.9893C20.5709 19.3775 20.3341 19.7279 20.0217 19.9835C19.321 20.5706 18.4026 20.7694 17.522 20.8073C15.7609 20.8925 13.9713 20.2676 12.9487 18.781C12.9108 18.7242 12.9866 18.6579 13.0339 18.7148C13.8861 19.6332 15.0413 20.2202 16.2722 20.3528C17.6356 20.5138 19.6903 20.3907 20.2868 18.9325C20.978 16.8684 21.3378 14.6812 21.3757 12.5129C21.3757 11.9827 21.3473 11.4524 21.3473 10.9127C21.3473 10.8464 21.3567 10.6949 21.3567 10.6287C21.3567 10.6192 21.3567 10.6287 21.3567 10.6287C21.3567 10.6381 21.3567 10.6381 21.3567 10.6287C21.281 10.4393 21.2526 10.231 21.1958 10.0416C20.9875 9.25572 20.6087 8.50771 20.069 7.9112C18.2795 5.90387 14.2932 5.40204 12.0587 6.90754C10.2881 8.08163 9.81464 10.3351 9.69155 12.3235C9.5874 13.8101 10.0229 15.2682 11.1497 16.2908L11.5947 16.7548C11.7841 16.9631 11.4622 17.2093 11.3107 16.982Z" fill="black"/>
<path d="M12.4282 13.9711C12.4282 13.9711 12.1346 12.5508 10.7522 12.7212C9.5592 12.8727 9.14259 15.7322 11.8506 16.5276" fill="white"/>
<path d="M11.7274 15.2871C11.5097 15.1641 11.3582 14.9558 11.3487 14.7001C11.3582 14.5107 11.3866 14.293 11.3392 14.1036C11.3108 13.9237 11.1214 13.8763 10.9794 13.8858C10.8279 13.9142 10.7332 14.1036 10.7048 14.2551C10.7048 14.2646 10.6954 14.293 10.6954 14.3024C10.6859 14.3498 10.6101 14.3498 10.5912 14.3024C10.4681 13.9332 10.7427 13.526 11.1404 13.5734C11.699 13.6112 11.7748 14.1983 11.6706 14.6433C11.6138 14.8327 11.6896 15.0031 11.7937 15.1641L11.8126 15.1925C11.86 15.2493 11.7842 15.325 11.7274 15.2871Z" fill="black"/>
<path d="M19.3018 12.9674C19.4438 13.6397 19.7089 14.2646 20.0403 14.8516C20.3338 15.5712 19.5763 16.253 18.9041 16.2246C18.8283 16.2246 18.8189 16.1204 18.8851 16.1015C19.3112 15.9689 19.6994 15.6849 19.7657 15.2493C19.7941 15.1167 19.7562 15.0031 19.69 14.8895C19.3775 14.3025 19.1881 13.6302 19.2355 12.9674C19.2355 12.92 19.3018 12.92 19.3018 12.9674Z" fill="black"/>
<path d="M12.3803 13.9805C12.1625 13.4218 11.6891 12.8916 11.0547 12.9011C10.9978 12.8916 10.9032 12.9105 10.8464 12.9105C10.6854 12.92 10.5528 12.9768 10.4297 13.0904C9.82376 13.6964 9.92791 14.7664 10.4203 15.4386C10.5907 15.6753 10.8085 15.8836 11.0547 16.0541C11.3008 16.2245 11.5754 16.3571 11.869 16.4707C11.9352 16.4896 11.9068 16.5938 11.8405 16.5843C11.2062 16.4518 10.6002 16.1393 10.1836 15.6185C9.5397 14.8421 9.40714 13.5449 10.1741 12.7875C10.3445 12.636 10.5812 12.5223 10.8179 12.5223C10.8937 12.5223 11.0073 12.5034 11.0831 12.5223C11.4807 12.5413 11.8595 12.7401 12.1057 13.0526C12.3234 13.3177 12.4465 13.6396 12.4844 13.9615C12.4844 14.0184 12.3992 14.0373 12.3803 13.9805Z" fill="black"/>
<path d="M18.5828 17.1713C17.9768 17.7489 16.8311 17.2849 16.5282 16.5843C16.4903 16.4991 16.585 16.4233 16.6607 16.4612C16.8217 16.5464 16.9637 16.6316 17.1152 16.6979C17.5508 16.8967 18.0052 17.0577 18.4881 17.0104C18.5828 16.9914 18.6491 17.105 18.5828 17.1713Z" fill="#040404"/>
<path d="M17.162 11.9636C17.3703 11.992 17.5313 11.7742 17.4556 11.5659C17.4177 11.4523 17.3514 11.3481 17.2472 11.2818C16.9253 11.083 15.7228 11.064 15.0884 11.5185C14.5203 11.9351 16.2152 11.831 17.162 11.9636Z" fill="black"/>
<path d="M19.7851 12.0677C19.6147 12.0677 19.5106 11.8499 19.5958 11.67C19.6431 11.5753 19.7094 11.4901 19.8041 11.4427C20.0976 11.3007 20.8835 11.3859 21.2338 11.8688C21.5463 12.2949 20.571 12.0582 19.7851 12.0677Z" fill="black"/>
<path d="M16.8117 13.1851C16.3288 12.9768 15.7796 13.0336 15.2778 13.1472C15.221 13.1661 15.1831 13.0904 15.2304 13.0525C15.666 12.6927 16.4897 12.6454 16.8401 13.1377C16.8685 13.1567 16.8495 13.1945 16.8117 13.1851Z" fill="black"/>
<path d="M20.5334 13.3838C20.3061 13.2229 19.9747 13.2513 19.7096 13.2797C19.6149 13.2892 19.5202 13.3081 19.4161 13.3365C19.3877 13.346 19.3593 13.2986 19.3782 13.2797L19.3971 13.2608C19.6339 13.0146 20.0031 12.9578 20.3251 13.0809C20.4387 13.1282 20.5523 13.1945 20.6091 13.327C20.6375 13.3744 20.5712 13.4217 20.5334 13.3838Z" fill="black"/>
<path d="M21.2343 15.5901C21.2532 16.1487 21.2816 16.5085 21.2816 16.5085L22.3515 16.215C22.3515 16.215 22.0296 14.3592 22.1906 12.759C22.503 9.72909 22.1906 8.87692 22.1906 8.87692C22.0296 8.09104 21.5088 7.39037 20.3537 7.18206C20.0034 6.96429 19.6151 6.79386 19.1891 6.65183C17.6646 6.11212 14.3128 4.98537 11.7374 6.68023C9.16193 8.37509 9.06724 11.5281 8.71691 13.6301C8.36657 15.7321 6.0752 17.266 6.0752 17.266L6.60543 18.0235C6.88949 18.2318 7.65643 17.2944 7.77952 17.266C7.90262 17.2376 7.08832 18.2223 7.08832 18.2223C7.29663 19.065 8.18667 19.5574 8.18667 19.5574C8.18667 19.5574 9.56907 18.6674 9.28502 19.0745C9.00096 19.4816 8.47073 19.8036 8.47073 19.8036C8.47073 19.8036 9.85313 21.025 10.4212 20.9209C10.9893 20.8167 11.8036 19.5195 11.7374 19.8036C11.6805 20.0876 11.2166 21.1292 11.2166 21.1292L11.9646 21.5552C14.3223 20.7978 12.4475 17.8247 13.792 15.9972C15.1271 14.1698 13.4227 13.1946 14.4927 12.5886C14.7673 12.4276 15.0324 12.2572 15.2691 12.0678L16.803 12.3329C16.803 12.3329 17.7972 12.314 17.5131 10.3256C17.409 9.59653 17.6552 8.82011 17.7499 8.56446C17.7593 8.56446 17.7593 8.56446 17.7688 8.56446C17.7309 8.82011 17.6646 9.57759 17.8824 10.5528C18.1854 11.9258 17.2386 12.456 17.2386 12.456L18.1949 12.759C19.1701 12.2761 18.3842 10.7328 18.1949 9.50185C18.1381 9.10417 18.2138 8.85799 18.3464 8.71596C19.0092 8.9148 19.4352 9.14204 19.4731 8.9432C21.0354 9.33141 21.0544 11.3861 21.1017 11.4429C21.0828 11.8216 21.0354 12.4655 21.026 13.2987C21.026 13.6869 21.0638 14.4349 21.0354 14.8705C21.007 15.4007 20.9597 15.8931 20.8839 16.3854C20.7419 17.1429 20.5241 17.9383 20.2117 18.4306C19.5867 19.4059 19.0944 20.2297 18.1949 20.6463C17.3048 21.0534 16.2917 21.1386 16.2917 21.1386C16.2917 21.1386 16.5758 21.3185 17.248 21.3564C17.9203 21.3943 18.4032 21.1292 18.8955 21.0534C19.3879 20.9682 20.5147 21.2807 20.5147 21.2807C20.6377 21.0629 20.5525 20.2581 20.6756 20.419C20.7987 20.58 20.7798 21.2807 20.7798 21.2807L21.7929 21.4606C22.0107 20.9493 22.0391 20.0403 22.0391 20.0403C22.0391 19.8888 22.0296 19.7373 22.0201 19.5669C21.8592 17.9572 21.2248 17.6826 21.2343 15.5901Z" fill="black"/>
<path d="M17.3044 15.107C16.8689 15.1165 15.5243 15.1259 15.1077 15.1354C14.3881 15.1449 13.8484 14.52 13.9147 13.8098C13.9242 13.5731 13.9147 13.2417 13.9242 13.005C13.9431 12.3895 14.4923 11.8688 15.1077 11.8877L16.7079 11.9066C16.831 11.9066 17.1813 11.9161 17.3044 11.9161C17.8157 11.9066 18.2986 12.2854 18.4122 12.7872C18.4501 12.9292 18.4406 13.0807 18.4406 13.2038V14.0087C18.4312 14.6052 17.9009 15.1165 17.3044 15.107ZM17.3044 14.8987C17.7968 14.9176 18.2513 14.4915 18.2607 13.9992C18.2702 13.7435 18.2607 13.4689 18.2607 13.2038C18.3175 12.6263 17.882 12.096 17.2949 12.115C16.8878 12.1244 15.5243 12.1339 15.0983 12.1434C14.587 12.1434 14.1514 12.6073 14.1893 13.1186C14.1893 13.1849 14.1893 13.3553 14.1893 13.4216C14.1987 13.6299 14.1703 13.9897 14.2177 14.1791C14.3124 14.5768 14.6911 14.8798 15.0983 14.8798H15.2971C15.5717 14.8798 17.0204 14.8987 17.3044 14.8987Z" fill="black"/>
<path d="M21.1203 12.1624L20.3723 12.1719C20.164 12.1813 19.9178 12.1434 19.7379 12.2665C19.5674 12.3802 19.4917 12.5885 19.5012 12.7873C19.5012 13.0335 19.5012 13.2891 19.4917 13.5353L19.4822 13.4974C19.6148 13.9614 19.7947 14.4064 20.0693 14.7946L19.9746 14.7378C20.0503 14.7568 20.1829 14.7568 20.2586 14.7568C20.5427 14.7662 20.8741 14.7852 21.1582 14.7852C21.4233 14.7852 21.6789 14.5863 21.7357 14.3212C21.7547 14.2455 21.7547 14.1129 21.7547 14.0371C21.7547 13.63 21.7641 13.2323 21.7452 12.8252C21.7641 12.4654 21.4895 12.1434 21.1203 12.1624ZM21.1203 11.8783C21.6221 11.8783 21.9724 12.3612 21.8872 12.8346C21.8683 13.2418 21.8778 13.6395 21.8778 14.0466C21.9251 14.52 21.641 14.9461 21.1487 14.984C20.9404 14.9935 20.7415 14.9935 20.5427 15.0029C20.4385 15.0029 20.1829 15.0219 20.0882 15.0219C20.0409 15.0313 19.9651 15.0219 19.9178 15.0219C19.8799 15.0219 19.842 14.9935 19.8231 14.9651C19.5296 14.5295 19.3213 14.0466 19.1982 13.5448C19.1982 13.2229 19.1698 12.9009 19.1982 12.579C19.255 12.2003 19.5958 11.8783 19.9841 11.8689C20.2492 11.8594 20.8552 11.8783 21.1203 11.8783Z" fill="black"/>
<path d="M18.3369 12.7494C18.5926 12.6357 18.8766 12.5884 19.1607 12.6073C19.2554 12.6168 19.3501 12.6452 19.4353 12.721L19.5584 12.8251C19.6815 12.9293 19.53 13.1092 19.4069 13.005C19.2554 12.8724 19.0755 12.8914 18.8956 12.9009C18.7157 12.9198 18.5452 12.9577 18.3748 13.0239C18.2138 13.0902 18.1097 12.8535 18.2612 12.7778L18.3369 12.7494Z" fill="black"/>
<path d="M14.076 13.0902C14.0097 13.2417 13.9339 13.2606 13.8108 13.2512L13.5363 13.2606C12.9871 13.2606 12.4284 13.2512 11.8793 13.166C11.6899 13.1565 11.6804 12.8914 11.8698 12.8819L14.0665 12.8062C14.1328 12.8062 14.1801 12.8724 14.1517 12.9292L14.076 13.0902Z" fill="black"/>
<path d="M28.0226 8.16677C33.7699 19.2354 23.6671 31.7244 11.6231 28.6755C6.21661 27.331 1.87057 22.6441 0.971063 17.1429C-0.0515351 11.6701 2.41974 5.79018 7.04037 2.69398C13.3748 -1.66153 22.1521 -0.212848 26.6875 6.01742C26.7159 6.04583 26.7064 6.09317 26.6686 6.12158C26.6402 6.14998 26.5928 6.14051 26.5644 6.10264C25.9395 5.29782 25.2294 4.56874 24.4529 3.91542C23.1747 2.82654 21.6787 1.97438 20.0974 1.3968C12.0492 -1.5195 3.2151 3.32837 1.45396 11.7459C-0.534428 21.1765 7.48539 29.8591 17.0486 28.5619C24.4245 27.634 29.9068 20.8262 29.3008 13.4218C29.1682 11.6322 28.6948 9.86163 27.9089 8.23305C27.89 8.20465 27.9089 8.16677 27.9373 8.14784C27.9657 8.1289 28.0036 8.13837 28.0226 8.16677Z" fill="black"/>
</g>
</svg>
