<svg width="12" height="11" viewBox="0 0 12 11" fill="none" xmlns="http://www.w3.org/2000/svg">
<path fill-rule="evenodd" clip-rule="evenodd" d="M5.79387 10.9472C8.7931 10.9472 11.2245 8.51588 11.2245 5.51665C11.2245 2.51742 8.7931 0.0860596 5.79387 0.0860596C2.79464 0.0860596 0.363281 2.51742 0.363281 5.51665C0.363281 8.51588 2.79464 10.9472 5.79387 10.9472ZM8.28761 4.13755C8.42571 3.95999 8.39373 3.70409 8.21617 3.56599C8.03861 3.42789 7.78271 3.45988 7.64461 3.63744L5.46857 6.4352C5.42019 6.49741 5.32917 6.50549 5.27059 6.45276L3.8941 5.21393C3.72691 5.06345 3.46938 5.07701 3.3189 5.2442C3.16842 5.4114 3.18198 5.66893 3.34917 5.81941L4.72566 7.05824C5.13574 7.42731 5.77286 7.3708 6.11157 6.93531L8.28761 4.13755Z" fill="#28303F"/>
</svg>
