<svg width="41" height="41" viewBox="0 0 41 41" fill="none" xmlns="http://www.w3.org/2000/svg">
<path fill-rule="evenodd" clip-rule="evenodd" d="M20.5 40.0833C31.3156 40.0833 40.0834 31.3156 40.0834 20.5C40.0834 9.68443 31.3156 0.916672 20.5 0.916672C9.68444 0.916672 0.916687 9.68443 0.916687 20.5C0.916687 31.3156 9.68444 40.0833 20.5 40.0833ZM29.4927 15.5268C29.9907 14.8865 29.8754 13.9637 29.2351 13.4657C28.5948 12.9677 27.672 13.0831 27.174 13.7233L19.327 23.8124C19.1525 24.0368 18.8242 24.0659 18.613 23.8757L13.6492 19.4084C13.0463 18.8657 12.1176 18.9146 11.575 19.5175C11.0323 20.1205 11.0812 21.0491 11.6842 21.5918L16.6479 26.0592C18.1267 27.3901 20.4242 27.1863 21.6457 25.6159L29.4927 15.5268Z" fill="#28303F"/>
</svg>
