<svg width="214" height="204" viewBox="0 0 214 204" fill="none" xmlns="http://www.w3.org/2000/svg">
<path d="M9.72025 93.5142C10.9128 93.5142 11.8795 92.5475 11.8795 91.355C11.8795 90.1625 10.9128 89.1957 9.72025 89.1957C8.52775 89.1957 7.56104 90.1625 7.56104 91.355C7.56104 92.5475 8.52775 93.5142 9.72025 93.5142Z" stroke="black" stroke-width="0.727109"/>
<path d="M13.951 91.575C18.3062 91.1267 25.1399 91.6568 25.9476 95.0257C26.7554 98.3946 23.671 99.6267 22.0279 99.8217C15.7723 100.816 7.47754 100.348 7.47754 95.0257" stroke="black" stroke-width="0.727109" stroke-linecap="round"/>
<path d="M12.3777 96.67C12.6529 96.67 12.876 96.4469 12.876 96.1717C12.876 95.8965 12.6529 95.6734 12.3777 95.6734C12.1025 95.6734 11.8794 95.8965 11.8794 96.1717C11.8794 96.4469 12.1025 96.67 12.3777 96.67Z" stroke="black" stroke-width="0.727109"/>
<path d="M17.1942 96.1717C17.1942 96.4137 16.9686 96.67 16.6128 96.67C16.257 96.67 16.0315 96.4137 16.0315 96.1717C16.0315 95.9297 16.257 95.6734 16.6128 95.6734C16.9686 95.6734 17.1942 95.9297 17.1942 96.1717Z" stroke="black" stroke-width="0.727109"/>
<path d="M20.8484 96.67C21.1236 96.67 21.3467 96.4469 21.3467 96.1717C21.3467 95.8965 21.1236 95.6734 20.8484 95.6734C20.5732 95.6734 20.3501 95.8965 20.3501 96.1717C20.3501 96.4469 20.5732 96.67 20.8484 96.67Z" stroke="black" stroke-width="0.727109"/>
<path d="M173.571 32.7239C174.672 32.7239 175.564 31.8315 175.564 30.7307C175.564 29.63 174.672 28.7376 173.571 28.7376C172.47 28.7376 171.578 29.63 171.578 30.7307C171.578 31.8315 172.47 32.7239 173.571 32.7239Z" stroke="black" stroke-width="0.727109"/>
<path d="M177.488 28.9868C178.948 28.9868 183.121 28.9868 185.085 28.9868C186.675 28.9868 187.44 29.3385 187.44 31.8007C187.44 34.193 187.421 37.2918 187.44 38.5425C187.454 39.4218 187.016 40.3949 185.556 40.5356C184.095 40.6763 178.233 40.5942 175.485 40.5356C174.464 40.5356 172.658 39.9569 172.658 37.6044V34.9663" stroke="black" stroke-width="0.727109" stroke-linecap="round"/>
<path d="M176.478 33.1392L180.132 35.6306" stroke="black" stroke-width="0.727109" stroke-linecap="round"/>
<path d="M180.132 35.6305L186.776 29.485" stroke="black" stroke-width="0.727109" stroke-linecap="round"/>
<path d="M181.816 34.1357L183.632 35.9628L185.447 37.7898" stroke="black" stroke-width="0.727109" stroke-linecap="round"/>
<path d="M175.149 37.7898L177.828 34.1357" stroke="black" stroke-width="0.727109" stroke-linecap="round"/>
<path d="M188.178 157.291C187.626 157.844 187.15 158.32 186.822 158.649C185.968 159.504 185.07 159.005 184.728 158.649L179.276 153.396C178.471 152.647 177.791 151.908 174.748 149.006C174.437 148.694 173.944 147.898 174.461 147.207C174.978 146.516 177.887 142.889 179.276 141.162C179.698 140.552 180.613 139.825 181.782 140.912C182.788 141.847 186.237 145.085 189.184 147.547" stroke="black" stroke-width="0.727109" stroke-linecap="round"/>
<path d="M179.219 141.349C179.39 144.5 180.547 149.572 186.527 151.481" stroke="black" stroke-width="0.727109" stroke-linecap="round"/>
<path d="M194.384 151.725C194.11 151.028 192.006 150.217 191.21 151.725C190.39 153.28 191.017 154.591 191.55 154.848C192.231 155.176 193.231 155.347 194.288 153.459" stroke="black" stroke-width="0.727109" stroke-linecap="round"/>
<path d="M194.559 150.755C194.497 151.119 194.434 151.272 194.384 151.725C194.319 152.315 194.278 152.933 194.288 153.459C194.308 154.382 194.49 155.019 195.009 154.711C196.048 154.095 196.61 153.589 196.759 153.074C197.008 152.206 197.01 150.546 195.608 149.461C193.917 148.15 192.011 148.186 190.511 149.461C189.022 150.726 188.614 152.752 188.696 153.803C188.785 154.952 189.643 157.421 192.442 157.46C195.241 157.498 196.758 155.989 196.99 155.283" stroke="black" stroke-width="0.727109" stroke-linecap="round"/>
<path d="M47.0079 130.98C46.4108 128.675 44.4279 124.423 41.2748 125.86C38.1215 127.297 39.9608 129.872 41.2748 130.98C42.1589 131.579 44.0597 132.219 44.5892 129.992C45.1187 127.765 42.8873 126.848 42.2601 127.836C41.9294 128.226 41.5558 129.202 42.708 129.992" stroke="black" stroke-width="0.727109" stroke-linecap="round"/>
<path d="M60.6632 16.9733L64.5968 19.0127C64.8305 19.1339 65.1089 19.1323 65.3412 19.0084L69.2512 16.9242C69.3044 16.8958 69.367 16.9407 69.3571 17.0002L68.6331 21.3715C68.5901 21.6312 68.6777 21.8955 68.8672 22.0781L72.0577 25.1527C72.1011 25.1945 72.0777 25.2679 72.0182 25.277L67.6371 25.9392C67.3768 25.9785 67.1525 26.1434 67.0374 26.3802L65.0992 30.3646C65.0728 30.4188 64.9958 30.4193 64.9688 30.3654L62.9851 26.4034C62.8673 26.168 62.6412 26.0057 62.3804 25.9693L57.992 25.3573C57.9324 25.3489 57.9081 25.2758 57.951 25.2335L61.1062 22.1226C61.2936 21.9377 61.3781 21.6725 61.3321 21.4133L60.5581 17.0506C60.5476 16.9912 60.6097 16.9456 60.6632 16.9733Z" stroke="black" stroke-width="0.727109"/>
<path d="M112.366 93.5001V107.618" stroke="black" stroke-width="0.727109" stroke-linecap="round"/>
<path d="M122.996 95.1611V108.615" stroke="black" stroke-width="0.727109" stroke-linecap="round"/>
<path d="M98.1332 156.298C94.6231 156.735 86.406 158.347 84.6061 161.624C84.066 162.608 83.4396 165.001 85.254 166.705C87.0685 168.41 90.3842 167.962 91.815 167.525L100.158 164.165" stroke="black" stroke-width="0.727109" stroke-linecap="round"/>
<path d="M145.967 131.562C139.417 131.773 110.49 145.777 96.8453 152.753C95.6834 160.44 100.587 165.959 103.184 167.758C116.784 163.81 144.699 155.807 147.551 155.386C150.404 154.965 153.229 152.929 154.286 151.964C161.68 143.329 156.222 135.994 152.569 133.405C149.968 131.562 147.723 131.506 145.967 131.562Z" fill="black"/>
<path d="M84.6168 129.603C89.2574 129.913 109.501 137.758 119.093 141.87L97.1566 152.832C87.3395 155.711 81.3087 154.762 79.467 154.142C68.8358 149.02 73.0011 136.384 77.225 131.703C79.9473 129.386 82.9542 129.492 84.6168 129.603Z" fill="black"/>
<path d="M136.265 157.793C139.165 159.186 140.733 161.012 141.528 162.51C143.232 166.41 140.172 168.754 136.679 167.652C134.749 167.043 134.294 166.634 133.272 165.787C132.753 165.356 130.33 163.105 127.563 160.446" stroke="black" stroke-width="0.727109" stroke-linecap="round"/>
<path d="M80.5591 91.0274L82.8086 131.905C82.851 132.676 83.4885 133.28 84.2606 133.28H146.788C147.591 133.28 148.242 132.629 148.242 131.825V90.0743C148.242 89.2635 147.579 88.6093 146.768 88.6202L81.9915 89.4934C81.1648 89.5046 80.5137 90.2019 80.5591 91.0274Z" fill="black"/>
<rect x="82.469" y="133.861" width="65.7731" height="3.15578" rx="1.45422" fill="black"/>
<path d="M123.162 71.0774C128.947 70.9944 141.681 75.3958 146.747 89.2647" stroke="black" stroke-width="0.727109" stroke-linecap="round"/>
<path d="M110.456 70.9943C97.2512 73.5688 90.9396 79.216 85.9568 90.0951" stroke="black" stroke-width="0.727109" stroke-linecap="round"/>
<path d="M154.637 84.13L157.876 78.732" stroke="black" stroke-width="0.727109" stroke-linecap="round"/>
<path d="M157.876 85.6248L162.277 81.9708" stroke="black" stroke-width="0.727109" stroke-linecap="round"/>
<path d="M158.54 88.1161C159.398 88.4483 161.347 88.7638 162.277 87.3687" stroke="black" stroke-width="0.727109" stroke-linecap="round"/>
<path d="M73.5832 83.1192L68.6003 77.9703" stroke="black" stroke-width="0.727109" stroke-linecap="round"/>
<path d="M78.6489 82.2889L75.6592 74.5655" stroke="black" stroke-width="0.727109" stroke-linecap="round"/>
<path d="M72.3375 86.0258L68.6003 84.614" stroke="black" stroke-width="0.727109" stroke-linecap="round"/>
<path d="M150.069 98.5801C153.142 103.397 156.63 109.127 150.069 119.909" stroke="black" stroke-width="0.727109" stroke-linecap="round"/>
<path d="M123.245 71.4927C123.993 69.3335 123.312 67.8805 122.647 67.6036C118.661 71.2577 112.615 69.9013 110.373 67.6867C109.576 68.4175 110.041 70.5792 110.373 71.2435C114.691 76.0271 120.837 73.3474 123.245 71.4927Z" fill="black"/>
<path d="M105.556 84.7802L107.168 82.3056C108.306 80.5587 110.522 79.8613 112.455 80.641L116.52 82.2799C118.256 82.98 120.245 82.4944 121.464 81.073L125.404 76.4755" stroke="black" stroke-width="0.727109" stroke-linecap="round"/>
<path d="M79.5624 101.639C78.3167 104.573 76.8385 111.687 80.8912 116.67" stroke="black" stroke-width="0.727109" stroke-linecap="round"/>
<path d="M134.696 37.5441C132.869 44.1048 131.956 44.6861 129.298 47.5927C129.298 44.7201 128.805 39.8985 128.805 37.8908C120.103 37.8908 112.76 34.3387 110.176 32.5626C110.268 38.5858 104.621 42.524 104.621 42.524C104.621 42.524 105.431 44.9564 105.894 50.4005C106.265 54.7557 105.2 53.914 104.621 52.9487C102.955 47.5742 100.224 49.0105 99.0672 50.4005C84.8683 27.3293 106.704 22.8715 110.87 23.2962C114.017 20.6089 118.406 18.503 121.492 18.1941C132.62 17.0801 137.659 26.9061 134.696 37.5441Z" fill="black"/>
<path d="M104.816 57.055C106.311 66.1811 116.344 72.7433 123.585 65.3506C130.825 57.9579 129.376 44.4258 128.602 38.1112" stroke="black" stroke-width="0.727109" stroke-linecap="round"/>
<path d="M98.903 49.835C97.9895 52.0772 98.8465 57.0459 104.816 57.0459" stroke="black" stroke-width="0.727109" stroke-linecap="round"/>
<path d="M101.535 51.0665C101.403 51.5464 101.509 52.6832 102.988 53.3918" stroke="black" stroke-width="0.727109" stroke-linecap="round"/>
<path d="M128.401 55.8832C130.349 55.0709 131.723 52.0631 131.195 47.2463" stroke="black" stroke-width="0.727109" stroke-linecap="round"/>
<path d="M117.439 61.3643C119.349 61.8626 119.228 60.4914 120.678 59.2881" stroke="black" stroke-width="0.727109" stroke-linecap="round"/>
<circle cx="123.141" cy="49.7626" r="1.2457" fill="black"/>
<circle cx="112.179" cy="49.9288" r="1.2457" fill="black"/>
<path d="M109.467 47.0803C109.729 46.3085 110.86 44.8806 113.287 45.3437" stroke="black" stroke-width="0.727109" stroke-linecap="round"/>
<path d="M121.093 45.5855C121.672 45.0841 123.246 44.3822 124.913 45.5855" stroke="black" stroke-width="0.727109" stroke-linecap="round"/>
<path d="M117.075 49.0734C116.881 50.7134 116.75 54.0392 117.771 54.2223" stroke="black" stroke-width="0.727109" stroke-linecap="round"/>
<path d="M164.935 124.408C187.108 130.553 226.937 137.612 208.866 116.684C203.164 111.065 194.748 104.476 181.212 98.6631" stroke="black" stroke-width="0.727109" stroke-linecap="round"/>
<path d="M188.935 81.4704C202.721 72.6398 224.928 54.3971 203.468 52.0718C182.009 49.7465 162.415 57.802 155.301 62.1205" stroke="black" stroke-width="0.727109" stroke-linecap="round"/>
<path d="M135.536 68.5658C144.671 48.8837 159.454 8.09109 145.502 2.37746C128.062 -4.76458 105.473 15.8311 87.0369 64.9948" stroke="black" stroke-width="0.727109" stroke-linecap="round"/>
<path d="M66.7199 51.611C46.2904 40.4273 4.58425 23.2256 1.19594 43.8876C-2.19237 64.5497 39.2037 81.7846 60.3253 87.8194" stroke="black" stroke-width="0.727109" stroke-linecap="round"/>
<path d="M65.7485 98.6631C35.9347 113.861 -1.42155 134.879 19.2704 145.834C27.7411 150.318 49.4164 147.578 59.382 143.508" stroke="black" stroke-width="0.727109" stroke-linecap="round"/>
<ellipse cx="114.525" cy="198.153" rx="41.1082" ry="4.98281" fill="black"/>
</svg>
