<svg width="30" height="19" viewBox="0 0 30 19" fill="none" xmlns="http://www.w3.org/2000/svg">
<path fill-rule="evenodd" clip-rule="evenodd" d="M23.8757 5.14714V8.34954H20.5882V10.5918H23.8757V13.7958H26.3407V10.5918H29.6273V8.26946H26.3407V5.14714H23.8757ZM9.41437 7.62908V11.2327H14.3443C14.0157 13.3148 12.1258 14.8363 9.41437 14.8363C6.45639 14.8363 3.99141 12.3538 3.99141 9.47092C3.99141 6.58804 6.37423 4.10556 9.41437 4.10556C10.8112 4.10556 11.9615 4.50596 12.9475 5.46692L15.5768 2.90435C13.9335 1.46291 11.8793 0.582031 9.41437 0.582031C4.40224 0.582031 0.293945 4.58604 0.293945 9.47092C0.293945 14.3558 4.40224 18.3598 9.41437 18.3598C14.7552 18.3598 18.2061 14.6761 18.2061 9.63108C18.2061 8.99044 18.124 8.26972 18.0418 7.62908H9.41437" fill="white"/>
</svg>
