<svg width="264" height="258" viewBox="0 0 264 258" fill="none" xmlns="http://www.w3.org/2000/svg">
<g opacity="0.1">
<path d="M0.399305 250.242C-2.36558 247.79 9.91928 247.971 15.9827 247.858C16.8558 249.084 17.4985 249.106 19.075 249.39C19.8025 251.263 3.16419 252.693 0.399305 250.242Z" fill="black"/>
<path d="M94.9345 64.918C94.3722 66.9528 93.9532 73.5648 96.1611 78.9903" stroke="black" stroke-width="1.6629" stroke-linecap="round"/>
<path d="M93.1455 80.3201C98.3855 78.4423 108.364 76.1446 108.364 82.6399V83.7672C108.364 84.5282 109.233 84.9593 109.834 84.4933C118.247 77.9758 135.362 64.918 141.393 55.0339" stroke="black" stroke-width="1.6629" stroke-linecap="round"/>
<path d="M116.367 30.0724C121.514 34.125 129.504 42.8726 121.738 46.4313C121.283 46.6397 121.032 47.1443 121.161 47.6254C122.689 53.2832 122.448 64.966 110.595 72.8775C110.419 72.9951 110.283 73.17 110.219 73.3711L107.888 80.6656" stroke="black" stroke-width="1.6629" stroke-linecap="round"/>
<path d="M111.272 59.8923C111.089 60.6964 111.564 62.3583 114.924 62.5727" stroke="black" stroke-width="1.6629" stroke-linecap="round"/>
<path d="M120.285 38.7838C120.285 40.5458 119.752 42.0953 118.947 43.1776C118.141 44.2595 117.121 44.8148 116.097 44.8148C115.073 44.8148 114.053 44.2595 113.247 43.1776C112.442 42.0953 111.909 40.5458 111.909 38.7838C111.909 37.0218 112.442 35.4723 113.247 34.39C114.053 33.3081 115.073 32.7528 116.097 32.7528C117.121 32.7528 118.141 33.3081 118.947 34.39C119.752 35.4723 120.285 37.0218 120.285 38.7838Z" stroke="black" stroke-width="1.6629" stroke-linecap="round"/>
<path d="M100.852 44.1447L111.238 40.4591" stroke="black" stroke-width="1.6629" stroke-linecap="round"/>
<path d="M108.893 37.1085C109.158 35.9919 110.131 33.4228 111.909 32.0827" stroke="black" stroke-width="1.6629" stroke-linecap="round"/>
<path d="M116.599 39.789C117.34 39.789 117.94 39.3389 117.94 38.7838C117.94 38.2287 117.34 37.7786 116.599 37.7786C115.859 37.7786 115.259 38.2287 115.259 38.7838C115.259 39.3389 115.859 39.789 116.599 39.789Z" fill="black"/>
<path d="M112.041 149.687C111.424 143.1 110.931 128.566 113.893 123.12C116.855 117.673 119.701 109.882 121.702 106.731C128.433 102.845 144.476 87.9363 154.795 59.3896" stroke="black" stroke-width="1.6629" stroke-linecap="round"/>
<path d="M93.1455 79.9955L54.6143 125.228" stroke="black" stroke-width="1.6629" stroke-linecap="round"/>
<path d="M54.6143 125.367C57.471 124.981 64.8971 125.168 71.7523 129.006C80.3215 133.804 89.3942 142.242 111.909 149.687" stroke="black" stroke-width="1.6629" stroke-linecap="round"/>
<path d="M111.908 149.687L104.202 155.048" stroke="black" stroke-width="1.6629" stroke-linecap="round"/>
<path d="M54.6183 125.228C54.0963 126.846 53.5782 130.619 57.9644 135.28" stroke="black" stroke-width="1.6629" stroke-linecap="round"/>
<path d="M82.7587 92.3925C76.5234 97.5864 60.7126 108.544 47.3511 110.822C44.2337 112.107 38.8669 115.714 42.3408 119.869C45.8148 124.025 48.1308 129.085 48.8547 131.095C49.4114 132.938 50.7972 135.508 54.1376 129.61" stroke="black" stroke-width="1.6629" stroke-linecap="round"/>
<path d="M43.557 121.542C40.9684 123.069 34.9321 125.985 31.4953 125.443C28.0586 124.9 25.7674 126.347 25.0514 127.139C24.6658 127.76 24.4235 129.038 26.5384 129.174C28.6533 129.309 31.1649 129.23 32.1562 129.174" stroke="black" stroke-width="1.6629" stroke-linecap="round"/>
<path d="M34.8455 126.903C33.6862 128.202 29.7443 131.155 23.2518 132.572C21.982 132.808 20.2705 134.166 22.5893 135.761C24.5768 137.001 30.0755 135.867 32.8581 134.166" stroke="black" stroke-width="1.6629" stroke-linecap="round"/>
<path d="M32.8279 133.939C30.6985 135.011 26.8655 137.865 28.5691 140.708C29.1151 141.272 31.4192 141.317 36.2678 136.985L39.8714 133.939" stroke="black" stroke-width="1.6629" stroke-linecap="round"/>
<path d="M40.0517 134.004L36.3723 137.077C35.3131 139.866 33.6964 146.64 38.0448 142.883C41.2224 139.639 40.5534 136.873 41.8914 136.053C43.2293 135.233 46.2397 132.069 47.5777 130.589" stroke="black" stroke-width="1.6629" stroke-linecap="round"/>
<path d="M40.2097 128.578C39.764 129.958 39.4074 133.162 41.5469 134.944" stroke="black" stroke-width="1.6629" stroke-linecap="round"/>
<path d="M80.7485 241.492C82.8562 240.933 87.1046 238.108 87.2376 231.273C87.3709 224.438 90.1772 212.677 91.5636 207.651L105.208 147.341" stroke="black" stroke-width="1.6629" stroke-linecap="round"/>
<path d="M110.233 50.1756C110.603 50.1756 110.903 49.9506 110.903 49.6731C110.903 49.3955 110.603 49.1705 110.233 49.1705C109.863 49.1705 109.563 49.3955 109.563 49.6731C109.563 49.9506 109.863 50.1756 110.233 50.1756Z" fill="black"/>
<path d="M112.411 52.186C112.689 52.186 112.914 52.036 112.914 51.8509C112.914 51.6659 112.689 51.5159 112.411 51.5159C112.134 51.5159 111.909 51.6659 111.909 51.8509C111.909 52.036 112.134 52.186 112.411 52.186Z" fill="black"/>
<path d="M107.553 53.5262C107.738 53.5262 107.888 53.2262 107.888 52.8561C107.888 52.486 107.738 52.186 107.553 52.186C107.368 52.186 107.218 52.486 107.218 52.8561C107.218 53.2262 107.368 53.5262 107.553 53.5262Z" fill="black"/>
<path d="M58.0467 45.3742C66.1894 30.2394 78.3477 28.3366 83.4094 29.2767C93.9213 13.1792 108.438 7.86877 117.282 12.6815C124.357 16.5315 118.561 26.2343 114.779 30.6046L111.108 25.2941C108.572 30.2063 101.319 28.3918 97.7591 27.2854C100.818 33.7022 105.702 50.2869 95.423 65.289C85.1448 80.2912 72.2297 80.5564 65.7219 76.2419C59.7151 71.9826 49.9039 60.5095 58.0467 45.3742Z" fill="black"/>
<path d="M53.9438 243.502C55.0545 245.241 58.7536 248.522 64.6656 247.739" stroke="black" stroke-width="1.6629" stroke-linecap="round"/>
<path d="M63.2551 126.233C61.1587 132.23 51.3367 144.557 42.5634 160.049C36.7145 169.766 22.7653 191.465 13.7602 200.527C12.5463 202.249 11.4096 206.158 16.5743 208.023C20.5471 209.689 22.3349 213.554 22.8646 217.685C23.5268 222.849 31.9691 226.68 37.5973 222.849C42.0833 219.795 54.9824 197.798 64.7274 185.369C67.2085 182.204 69.4852 179.659 71.3665 178.206" stroke="black" stroke-width="1.6629" stroke-linecap="round"/>
<path d="M64.9685 185.538L53.9438 243.502C59.5475 242.007 74.9407 239.184 84.4338 239.184" stroke="black" stroke-width="1.6629" stroke-linecap="round"/>
<path d="M10.0962 238.712C0.963657 221.009 9.42941 209.228 14.008 206.311C21.1057 208.544 21.2975 215.985 22.4484 219.52L19.792 226.794C18.0144 229.923 19.0513 236.043 19.792 238.712C22.8623 251.076 18.2282 252.265 15.9541 248.954L10.0962 238.712Z" fill="black"/>
<path d="M58.789 254.945C55.7128 252.509 61.797 251.564 67.9707 251.208C70.1215 253.131 84.4072 253.788 85.1043 254.233C78.532 256.369 61.4849 257.08 58.789 254.945Z" fill="black"/>
<path d="M89.688 253.902C66.3641 257.099 61.5235 247.874 62.0186 242.481C66.0299 240.806 77.0601 240.197 82.2599 239.817C80.7741 243.319 82.6312 242.862 83.9311 243.814C85.6028 244.956 90.2451 246.352 92.845 246.478C104.544 247.05 95.383 253.077 89.688 253.902Z" fill="black"/>
<path d="M144.631 25.5412C145.699 24.9269 147.903 24.7035 148.171 28.7242" stroke="black" stroke-width="1.6629" stroke-linecap="round"/>
<path d="M142.475 36.2629C142.587 34.6995 142.475 31.1366 141.135 29.3943C139.46 27.2164 139.125 23.0283 142.475 23.3633C143.539 23.4697 144.216 24.3533 144.631 25.5412C145.263 27.3468 145.29 29.8552 145.156 31.4046" stroke="black" stroke-width="1.6629" stroke-linecap="round"/>
<path d="M140.369 40.6185C140.233 39.1108 139.661 35.6262 138.454 33.7499C136.947 31.4046 136.779 25.3736 139.962 26.0437" stroke="black" stroke-width="1.6629" stroke-linecap="round"/>
<path d="M142.475 52.0105C141.638 52.0105 139.862 51.2063 139.46 47.9898C139.058 44.7733 137.617 42.7408 136.947 42.1263C136.556 41.1771 136.143 39.2114 137.617 38.9433C138.485 38.7855 139.512 39.6268 140.369 40.6186L141.805 42.6289" stroke="black" stroke-width="1.6629" stroke-linecap="round"/>
<path d="M150.181 37.1005C150.572 36.3748 150.952 34.5206 149.343 32.9124C147.333 30.9021 147.836 29.0593 149.008 28.5567C150.181 28.0541 151.856 28.3891 153.532 33.415C155.207 37.7706 157.686 48.8274 154.872 58.2089" stroke="black" stroke-width="1.6629" stroke-linecap="round"/>
<path d="M157.834 10.887L160.463 6.10803" stroke="black" stroke-width="1.6629" stroke-linecap="round"/>
<path d="M135.104 13.1442L139.794 16.1597" stroke="black" stroke-width="1.6629" stroke-linecap="round"/>
<path d="M143.615 1L148.204 11.5512" stroke="black" stroke-width="1.6629" stroke-linecap="round"/>
<path d="M159.858 25.3805C159.858 21.863 160.676 15.9911 164.931 21.309C167.549 25.1313 168.531 32.7425 166.567 36.5979" stroke="black" stroke-width="1.6629" stroke-linecap="round"/>
<path d="M151.185 28.6211C150.639 26.6824 150.367 23.0706 153.64 24.1342L157.24 31.4463" stroke="black" stroke-width="1.6629" stroke-linecap="round"/>
<path d="M157.239 31.4463L153.639 24.1342C153.367 21.9738 154.785 18.4839 158.221 21.309L159.858 25.3806L161.494 29.4521" stroke="black" stroke-width="1.6629" stroke-linecap="round"/>
<path d="M161.573 41.7913C160.679 43.746 159.73 48.1908 163.081 50.3352" stroke="black" stroke-width="1.6629" stroke-linecap="round"/>
<path d="M165.761 38.9433C166.543 36.7098 168.911 32.2758 172.127 32.4099C175.344 32.5439 172.797 36.7654 172.127 38.2732L167.437 47.4872C166.431 50.0001 164.924 54.5233 168.442 59.7167C171.96 64.4074 184.091 76.4694 197.159 78.4797" stroke="black" stroke-width="1.6629" stroke-linecap="round"/>
<path d="M194.744 148.506C195.749 152.08 199.434 160.367 206.135 164.924M184.357 142.643L197.592 146.496L184.357 142.643ZM196.921 153.197C198.373 148.45 200.239 136.679 196.084 127.565C190.89 116.173 187.707 101.599 190.22 91.8819C192.231 84.1087 199.546 82.947 202.952 83.338C208.313 83.9532 217.561 90.3742 217.025 107.797C216.355 129.576 211.329 148.171 204.125 162.578L196.921 153.197Z" stroke="black" stroke-width="1.6629" stroke-linecap="round"/>
<path d="M191.56 161.071C191.56 152.527 191.504 146.496 190.555 144.15C203.421 148.975 219.035 147.724 225.233 146.496C225.401 146.887 226.775 150.617 230.929 162.411C236.123 177.153 232.437 226.406 230.929 231.935C229.422 237.463 225.401 237.631 219.537 236.961C214.847 236.424 208.648 223.558 206.135 217.192C194.408 195.246 191.56 171.096 191.56 161.071Z" fill="black"/>
<path d="M237.051 116.52C238.713 120.597 242.472 130.961 244.214 139.806C239.411 143.213 225.904 149.679 209.821 147.668L184.357 142.643C183.352 134.211 183.234 112.734 189.935 93.5689C189.935 91.838 191.695 86.9901 195.581 84.8457" stroke="black" stroke-width="1.6629" stroke-linecap="round"/>
<path d="M235.62 131.083C235.549 130.008 237.534 122.182 237.051 116.52C236.781 113.363 236.437 109.424 236.005 104.626C234.799 91.2235 230.03 80.9487 227.796 77.4863C225.562 74.0241 220.278 71.9461 216.089 73.4539" stroke="black" stroke-width="1.6629" stroke-linecap="round"/>
<path d="M232.405 220.863C233.849 189.441 227.444 159.753 223.894 148.171C232.848 146.963 239.901 143.092 242.489 141.805C245.089 151.608 248.893 176.774 250.458 188.3C254.357 200.922 253.527 219.073 252.624 226.57C253.202 231.135 249.495 232.948 247.569 233.284C237.315 236.641 233.187 226.402 232.405 220.863Z" fill="black"/>
<path d="M150.852 28.0541C153.7 32.6332 157.921 43.7346 154.705 59.5491C154.984 62.9556 159.955 74.2198 163.751 79.3174C169.615 87.1911 181.844 96.0701 189.383 98.583" stroke="black" stroke-width="1.6629" stroke-linecap="round"/>
<path d="M202.83 75.871C200.613 74.507 183.942 75.8217 180.7 54.8503C175.151 54.9153 172.133 50.3697 176.368 48.4243C180.881 46.0967 180.543 41.8234 179.725 39.3055C178.425 36.0035 178.346 32.5366 178.626 31.8115" stroke="black" stroke-width="1.6629" stroke-linecap="round"/>
<path d="M185.304 47.3124C184.511 47.3217 183.857 46.3652 183.843 45.176C183.829 43.9868 184.461 43.0153 185.254 43.006C186.046 42.9967 186.7 43.9532 186.714 45.1424C186.728 46.3316 186.097 47.3031 185.304 47.3124Z" fill="black"/>
<path d="M188.687 40.3552C187.762 39.3658 185.367 37.918 183.198 40.0446" stroke="black" stroke-width="1.6629" stroke-linecap="round"/>
<path d="M194.976 59.6266C193.275 62.245 191.406 62.9885 187.778 61.2988" stroke="black" stroke-width="1.6629" stroke-linecap="round"/>
<path d="M208.906 41.2733C209.3 42.139 209.631 44.1045 207.798 45.0399" stroke="black" stroke-width="1.6629" stroke-linecap="round"/>
<path d="M228.438 32.3828C230.597 44.1953 223.842 53.0873 218.944 59.9231C213.714 57.0972 205.141 50.3774 208.429 49.652C211.885 48.8897 215.53 39.4636 212.174 36.5802C208.236 33.1969 204.687 38.3157 204.011 42.197L200.839 36.7128C201.736 32.8769 202.088 26.1482 196.32 29.9204C190.553 33.6923 182.093 32.7044 178.584 31.7388C171.666 26.7865 160.916 15.235 173.269 8.6475C183.544 3.16855 196.913 10.0954 205.074 16.3196C210.6 14.8608 225.494 16.277 228.438 32.3828Z" fill="black"/>
<path d="M218.56 59.1317C216.062 62.1384 214.821 64.6353 214.976 69.8075" stroke="black" stroke-width="1.6629" stroke-linecap="round"/>
<path d="M234.069 256.978C213.295 257.815 203.411 253.648 203.411 250.779C203.411 249.607 202.741 248.434 207.432 246.759C205.421 249.495 206.158 254.699 225.19 253.627C228.261 253.795 235.174 252.991 238.257 248.434H239.764C254.842 244.581 263.721 247.744 263.721 250.612C263.721 253.48 251.324 256.282 234.069 256.978Z" fill="black"/>
<path d="M237.961 248.36C249.182 249.433 250.597 240.431 249.902 235.796" stroke="black" stroke-width="1.6629" stroke-linecap="round"/>
<path d="M223.098 240.152C223.098 240.878 222.931 242.463 222.261 243C221.423 243.67 206.346 241.994 206.681 249.533C206.513 250.594 208.189 252.214 212.209 252.716C217.864 253.423 234.075 255.487 237.962 248.36C238.188 247.946 238.373 247.499 238.511 247.02L240.019 240.654" stroke="black" stroke-width="1.6629" stroke-linecap="round"/>
</g>
</svg>
