<svg width="196" height="192" viewBox="0 0 196 192" fill="none" xmlns="http://www.w3.org/2000/svg">
<path d="M0.296768 186.239C-1.75812 184.417 7.37211 184.552 11.8785 184.467C12.5274 185.378 13.005 185.395 14.1767 185.606C14.7175 186.998 2.35166 188.061 0.296768 186.239Z" fill="black"/>
<path d="M70.5566 48.5045C70.1387 50.0168 69.8273 54.9309 71.4682 58.9632" stroke="black" stroke-width="1.23589" stroke-linecap="round"/>
<path d="M69.2266 59.9515C73.121 58.5559 80.537 56.8482 80.537 61.6756V62.5134C80.537 63.079 81.1831 63.3994 81.63 63.053C87.8819 58.2092 100.603 48.5045 105.085 41.1586" stroke="black" stroke-width="1.23589" stroke-linecap="round"/>
<path d="M86.4848 22.6068C90.3105 25.6188 96.2484 32.1201 90.477 34.765C90.1385 34.9199 89.9518 35.2949 90.0483 35.6525C91.1838 39.8574 91.0043 48.5401 82.1953 54.4201C82.0642 54.5074 81.9633 54.6375 81.9156 54.7869L80.1831 60.2083" stroke="black" stroke-width="1.23589" stroke-linecap="round"/>
<path d="M82.6983 44.7693C82.5624 45.367 82.9154 46.6021 85.4125 46.7615" stroke="black" stroke-width="1.23589" stroke-linecap="round"/>
<path d="M89.3973 29.0813C89.3973 30.3908 89.0013 31.5424 88.4026 32.3468C87.8039 33.1509 87.0458 33.5636 86.2846 33.5636C85.5233 33.5636 84.7652 33.1509 84.1666 32.3468C83.5679 31.5424 83.1719 30.3908 83.1719 29.0813C83.1719 27.7718 83.5679 26.6202 84.1666 25.8158C84.7652 25.0117 85.5233 24.599 86.2846 24.599C87.0458 24.599 87.8039 25.0117 88.4026 25.8158C89.0013 26.6202 89.3973 27.7718 89.3973 29.0813Z" stroke="black" stroke-width="1.23589" stroke-linecap="round"/>
<path d="M74.9541 33.0656L82.6736 30.3264" stroke="black" stroke-width="1.23589" stroke-linecap="round"/>
<path d="M80.9302 27.8362C81.1268 27.0063 81.8503 25.0969 83.1713 24.101" stroke="black" stroke-width="1.23589" stroke-linecap="round"/>
<path d="M86.6577 29.8283C87.2078 29.8283 87.6537 29.4939 87.6537 29.0813C87.6537 28.6687 87.2078 28.3342 86.6577 28.3342C86.1076 28.3342 85.6616 28.6687 85.6616 29.0813C85.6616 29.4939 86.1076 29.8283 86.6577 29.8283Z" fill="black"/>
<path d="M83.2702 111.506C82.8117 106.61 82.4447 95.808 84.6462 91.7605C86.8476 87.7126 88.9627 81.9226 90.4504 79.5802C95.453 76.6921 107.376 65.6119 115.045 44.3958" stroke="black" stroke-width="1.23589" stroke-linecap="round"/>
<path d="M69.2267 59.7103L40.5898 93.3274" stroke="black" stroke-width="1.23589" stroke-linecap="round"/>
<path d="M40.5898 93.4306C42.713 93.1438 48.2321 93.283 53.327 96.1356C59.6957 99.7014 66.4386 105.972 83.1716 111.506" stroke="black" stroke-width="1.23589" stroke-linecap="round"/>
<path d="M83.1712 111.506L77.4438 115.49" stroke="black" stroke-width="1.23589" stroke-linecap="round"/>
<path d="M40.5926 93.3275C40.2047 94.5299 39.8196 97.3345 43.0795 100.798" stroke="black" stroke-width="1.23589" stroke-linecap="round"/>
<path d="M61.5069 68.9239C56.8728 72.784 45.122 80.9275 35.1916 82.6212C32.8747 83.5757 28.8861 86.2569 31.4679 89.3449C34.0498 92.4333 35.7711 96.1938 36.3091 97.6878C36.7228 99.0577 37.7528 100.968 40.2354 96.5844" stroke="black" stroke-width="1.23589" stroke-linecap="round"/>
<path d="M32.3717 90.5883C30.4478 91.7227 25.9615 93.8905 23.4073 93.487C20.853 93.0838 19.1502 94.1594 18.6181 94.7475C18.3315 95.2097 18.1514 96.1591 19.7233 96.26C21.2951 96.3608 23.1617 96.3019 23.8985 96.26" stroke="black" stroke-width="1.23589" stroke-linecap="round"/>
<path d="M25.8977 94.5725C25.036 95.5379 22.1064 97.7323 17.2811 98.7856C16.3374 98.9611 15.0654 99.9703 16.7887 101.155C18.2658 102.077 22.3525 101.234 24.4205 99.9704" stroke="black" stroke-width="1.23589" stroke-linecap="round"/>
<path d="M24.3982 99.8018C22.8156 100.599 19.9669 102.72 21.233 104.832C21.6388 105.252 23.3512 105.285 26.9548 102.065L29.633 99.8018" stroke="black" stroke-width="1.23589" stroke-linecap="round"/>
<path d="M29.7667 99.8498L27.0321 102.134C26.2449 104.207 25.0434 109.241 28.2751 106.449C30.6368 104.038 30.1396 101.982 31.134 101.373C32.1283 100.764 34.3657 98.4118 35.3601 97.3117" stroke="black" stroke-width="1.23589" stroke-linecap="round"/>
<path d="M29.8841 95.8176C29.5528 96.8427 29.2878 99.2241 30.8779 100.549" stroke="black" stroke-width="1.23589" stroke-linecap="round"/>
<path d="M60.0132 179.736C61.5796 179.321 64.7371 177.221 64.8359 172.141C64.935 167.061 67.0207 158.321 68.051 154.585L78.1914 109.762" stroke="black" stroke-width="1.23589" stroke-linecap="round"/>
<path d="M81.9267 37.5478C82.2018 37.5478 82.4248 37.3806 82.4248 37.1743C82.4248 36.968 82.2018 36.8008 81.9267 36.8008C81.6517 36.8008 81.4287 36.968 81.4287 37.1743C81.4287 37.3806 81.6517 37.5478 81.9267 37.5478Z" fill="black"/>
<path d="M83.5454 39.0419C83.7517 39.0419 83.9189 38.9305 83.9189 38.7929C83.9189 38.6554 83.7517 38.5439 83.5454 38.5439C83.3391 38.5439 83.1719 38.6554 83.1719 38.7929C83.1719 38.9305 83.3391 39.0419 83.5454 39.0419Z" fill="black"/>
<path d="M79.9346 40.038C80.0721 40.038 80.1836 39.815 80.1836 39.54C80.1836 39.2649 80.0721 39.0419 79.9346 39.0419C79.797 39.0419 79.6855 39.2649 79.6855 39.54C79.6855 39.815 79.797 40.038 79.9346 40.038Z" fill="black"/>
<path d="M43.1409 33.9794C49.1927 22.731 58.2288 21.3168 61.9908 22.0155C69.8033 10.0517 80.5925 6.10492 87.1651 9.68179C92.4233 12.5431 88.1159 19.7544 85.3049 23.0024L82.5768 19.0556C80.6918 22.7064 75.3015 21.3579 72.6556 20.5356C74.9291 25.3046 78.5586 37.6305 70.9194 48.7803C63.2806 59.93 53.6819 60.1271 48.8452 56.9205C44.3809 53.755 37.0892 45.228 43.1409 33.9794Z" fill="black"/>
<path d="M40.0918 181.23C40.9172 182.522 43.6665 184.961 48.0603 184.379" stroke="black" stroke-width="1.23589" stroke-linecap="round"/>
<path d="M47.0118 94.0745C45.4537 98.5313 38.1539 107.693 31.6334 119.207C27.2865 126.429 16.9193 142.556 10.2266 149.291C9.32442 150.57 8.4796 153.475 12.3181 154.862C15.2707 156.1 16.5994 158.972 16.9931 162.042C17.4852 165.88 23.7597 168.728 27.9426 165.88C31.2766 163.611 40.8634 147.263 48.1059 138.025C49.95 135.673 51.642 133.781 53.0402 132.701" stroke="black" stroke-width="1.23589" stroke-linecap="round"/>
<path d="M48.2854 138.15L40.0918 181.23C44.2565 180.119 55.6968 178.021 62.7523 178.021" stroke="black" stroke-width="1.23589" stroke-linecap="round"/>
<path d="M7.50386 177.67C0.716498 164.513 7.00833 155.757 10.4112 153.589C15.6862 155.249 15.8288 160.779 16.6842 163.407L14.7099 168.813C13.3888 171.138 14.1594 175.686 14.7099 177.67C16.9918 186.859 13.5477 187.742 11.8575 185.282L7.50386 177.67Z" fill="black"/>
<path d="M43.6926 189.734C41.4063 187.924 45.9282 187.222 50.5166 186.957C52.1151 188.387 62.7323 188.875 63.2504 189.205C58.3658 190.793 45.6962 191.321 43.6926 189.734Z" fill="black"/>
<path d="M66.6573 188.959C49.3227 191.336 45.7251 184.479 46.0931 180.471C49.0743 179.226 57.2721 178.774 61.1366 178.491C60.0324 181.094 61.4125 180.754 62.3787 181.462C63.6211 182.31 67.0713 183.348 69.0036 183.442C77.6985 183.867 70.8898 188.346 66.6573 188.959Z" fill="black"/>
<path d="M107.491 19.2392C108.285 18.7827 109.923 18.6167 110.122 21.6049" stroke="black" stroke-width="1.23589" stroke-linecap="round"/>
<path d="M105.889 27.2077C105.972 26.0458 105.889 23.3978 104.893 22.1029C103.648 20.4843 103.399 17.3716 105.889 17.6207C106.679 17.6997 107.182 18.3565 107.491 19.2393C107.961 20.5812 107.981 22.4455 107.881 23.597" stroke="black" stroke-width="1.23589" stroke-linecap="round"/>
<path d="M104.324 30.4449C104.223 29.3243 103.797 26.7345 102.901 25.34C101.78 23.597 101.656 19.1147 104.021 19.6127" stroke="black" stroke-width="1.23589" stroke-linecap="round"/>
<path d="M105.889 38.9115C105.266 38.9115 103.947 38.3139 103.648 35.9233C103.349 33.5328 102.278 32.0222 101.78 31.5655C101.49 30.8601 101.183 29.3991 102.278 29.1999C102.923 29.0826 103.686 29.7079 104.324 30.445L105.391 31.9391" stroke="black" stroke-width="1.23589" stroke-linecap="round"/>
<path d="M111.616 27.8303C111.907 27.2909 112.189 25.9128 110.994 24.7176C109.5 23.2235 109.873 21.8539 110.745 21.4804C111.616 21.1069 112.861 21.3559 114.106 25.0911C115.351 28.3283 117.194 36.5458 115.102 43.5183" stroke="black" stroke-width="1.23589" stroke-linecap="round"/>
<path d="M117.304 8.34812L119.258 4.79633" stroke="black" stroke-width="1.23589" stroke-linecap="round"/>
<path d="M100.411 10.0257L103.897 12.2668" stroke="black" stroke-width="1.23589" stroke-linecap="round"/>
<path d="M106.736 1L110.147 8.84174" stroke="black" stroke-width="1.23589" stroke-linecap="round"/>
<path d="M118.808 19.1199C118.808 16.5056 119.416 12.1415 122.578 16.0938C124.524 18.9346 125.254 24.5914 123.795 27.4567" stroke="black" stroke-width="1.23589" stroke-linecap="round"/>
<path d="M112.362 21.5283C111.957 20.0874 111.754 17.4031 114.186 18.1935L116.862 23.628" stroke="black" stroke-width="1.23589" stroke-linecap="round"/>
<path d="M116.862 23.628L114.187 18.1935C113.984 16.5879 115.038 13.9942 117.592 16.0939L118.808 19.1199L120.024 22.1459" stroke="black" stroke-width="1.23589" stroke-linecap="round"/>
<path d="M120.082 31.3165C119.418 32.7693 118.713 36.0727 121.203 37.6664" stroke="black" stroke-width="1.23589" stroke-linecap="round"/>
<path d="M123.195 29.1998C123.776 27.5399 125.536 24.2445 127.927 24.3441C130.317 24.4437 128.425 27.5812 127.927 28.7018L124.44 35.5497C123.693 37.4174 122.573 40.7791 125.187 44.6388C127.802 48.1251 136.818 57.0896 146.53 58.5837" stroke="black" stroke-width="1.23589" stroke-linecap="round"/>
<path d="M144.735 110.628C145.482 113.284 148.221 119.443 153.202 122.83M137.016 106.27L146.852 109.134L137.016 106.27ZM146.354 114.114C147.433 110.587 148.819 101.838 145.731 95.0646C141.871 86.598 139.506 75.7658 141.373 68.5444C142.868 62.7672 148.304 61.9039 150.836 62.1945C154.82 62.6517 161.693 67.4238 161.295 80.3726C160.797 96.5587 157.061 110.379 151.708 121.087L146.354 114.114Z" stroke="black" stroke-width="1.23589" stroke-linecap="round"/>
<path d="M142.37 119.966C142.37 113.616 142.328 109.134 141.623 107.391C151.185 110.977 162.789 110.047 167.396 109.134C167.52 109.425 168.541 112.197 171.629 120.962C175.489 131.919 172.75 168.524 171.629 172.633C170.508 176.742 167.52 176.866 163.162 176.368C159.676 175.97 155.069 166.408 153.202 161.676C144.486 145.366 142.37 127.417 142.37 119.966Z" fill="black"/>
<path d="M176.179 86.8557C177.414 89.8855 180.208 97.5883 181.502 104.162C177.933 106.694 167.894 111.5 155.941 110.006L137.016 106.27C136.269 100.004 136.181 84.0419 141.162 69.7981C141.162 68.5117 142.47 64.9087 145.358 63.315" stroke="black" stroke-width="1.23589" stroke-linecap="round"/>
<path d="M175.116 97.6792C175.062 96.8799 176.538 91.0636 176.179 86.8557C175.979 84.5093 175.723 81.5818 175.402 78.0157C174.505 68.055 170.961 60.4187 169.301 57.8454C167.641 55.2723 163.713 53.7279 160.6 54.8485" stroke="black" stroke-width="1.23589" stroke-linecap="round"/>
<path d="M172.726 164.404C173.799 141.052 169.039 118.987 166.4 110.379C173.055 109.481 178.298 106.604 180.221 105.648C182.153 112.933 184.98 131.637 186.143 140.203C189.041 149.584 188.424 163.074 187.753 168.646C188.183 172.039 185.428 173.386 183.996 173.636C176.375 176.131 173.307 168.521 172.726 164.404Z" fill="black"/>
<path d="M112.114 21.1069C114.231 24.5101 117.368 32.7607 114.978 44.5143C115.185 47.046 118.88 55.4177 121.701 59.2062C126.059 65.0581 135.148 71.6571 140.751 73.5247" stroke="black" stroke-width="1.23589" stroke-linecap="round"/>
<path d="M150.745 56.6449C149.098 55.6311 136.707 56.6083 134.298 41.0221C130.174 41.0704 127.931 37.692 131.078 36.2462C134.433 34.5163 134.181 31.3404 133.573 29.469C132.607 27.015 132.549 24.4383 132.757 23.8994" stroke="black" stroke-width="1.23589" stroke-linecap="round"/>
<path d="M137.72 35.4198C137.13 35.4267 136.644 34.7159 136.634 33.8321C136.624 32.9482 137.093 32.2262 137.682 32.2193C138.271 32.2124 138.757 32.9233 138.768 33.8071C138.778 34.6909 138.309 35.4129 137.72 35.4198Z" fill="black"/>
<path d="M140.234 30.2492C139.546 29.5138 137.767 28.4378 136.154 30.0183" stroke="black" stroke-width="1.23589" stroke-linecap="round"/>
<path d="M144.908 44.5719C143.643 46.5179 142.255 47.0705 139.558 45.8147" stroke="black" stroke-width="1.23589" stroke-linecap="round"/>
<path d="M155.261 30.9315C155.554 31.5749 155.8 33.0357 154.438 33.7309" stroke="black" stroke-width="1.23589" stroke-linecap="round"/>
<path d="M169.778 24.324C171.382 33.1032 166.361 39.7118 162.721 44.7922C158.834 42.692 152.463 37.6978 154.906 37.1587C157.475 36.5921 160.184 29.5866 157.69 27.4435C154.763 24.9291 152.125 28.7334 151.623 31.618L149.266 27.5422C149.932 24.6912 150.194 19.6904 145.907 22.4939C141.621 25.2973 135.334 24.563 132.726 23.8454C127.583 20.1648 119.594 11.5796 128.775 6.6837C136.411 2.61169 146.348 7.75982 152.413 12.3857C156.52 11.3015 167.59 12.354 169.778 24.324Z" fill="black"/>
<path d="M162.436 44.204C160.58 46.4387 159.657 48.2944 159.772 52.1384" stroke="black" stroke-width="1.23589" stroke-linecap="round"/>
<path d="M173.962 191.245C158.523 191.868 151.177 188.77 151.177 186.638C151.177 185.767 150.679 184.895 154.165 183.65C152.671 185.684 153.219 189.552 167.363 188.755C169.645 188.88 174.784 188.282 177.075 184.895H178.195C189.401 182.032 196 184.382 196 186.514C196 188.646 186.786 190.728 173.962 191.245Z" fill="black"/>
<path d="M176.855 184.841C185.195 185.638 186.247 178.947 185.73 175.503" stroke="black" stroke-width="1.23589" stroke-linecap="round"/>
<path d="M165.809 178.74C165.809 179.28 165.684 180.458 165.186 180.857C164.564 181.355 153.358 180.11 153.607 185.712C153.483 186.501 154.728 187.705 157.716 188.078C161.919 188.603 173.966 190.137 176.855 184.841C177.024 184.533 177.161 184.201 177.264 183.845L178.384 179.113" stroke="black" stroke-width="1.23589" stroke-linecap="round"/>
</svg>
