<svg width="1039" height="984" viewBox="0 0 1039 984" fill="none" xmlns="http://www.w3.org/2000/svg">
<path d="M350.068 682.866C347.142 683.04 344.245 682.213 341.854 680.523C339.464 678.833 337.724 676.381 336.921 673.573C336.842 673.205 336.619 672.884 336.302 672.68C335.985 672.476 335.599 672.406 335.23 672.486C334.862 672.565 334.539 672.787 334.335 673.103C334.13 673.419 334.06 673.803 334.139 674.17C334.338 676.043 334.94 677.851 335.903 679.471C336.867 681.091 338.169 682.485 339.723 683.558C341.276 684.631 343.043 685.358 344.904 685.689C346.764 686.019 348.675 685.947 350.504 685.475C350.852 685.418 351.162 685.225 351.366 684.939C351.571 684.654 351.653 684.299 351.595 683.953C351.538 683.607 351.344 683.299 351.058 683.095C350.771 682.891 350.415 682.809 350.068 682.866ZM358.032 668.409C360.487 668.409 364.142 667.812 364.906 665.529C365.669 663.246 363.978 660.746 360.869 655.583C360.703 655.273 360.419 655.041 360.082 654.94C359.744 654.838 359.38 654.873 359.069 655.039C358.758 655.205 358.526 655.487 358.423 655.823C358.321 656.16 358.357 656.523 358.523 656.833C359.765 659.236 360.788 661.747 361.578 664.333C360.387 665 359.099 665.477 357.76 665.746C357.451 665.833 357.182 666.025 357.002 666.29C356.821 666.554 356.74 666.874 356.773 667.192C356.805 667.51 356.949 667.807 357.18 668.029C357.41 668.252 357.712 668.387 358.032 668.409ZM341.558 633.734C342.401 632.806 343.541 632.196 344.783 632.008C346.025 631.82 347.295 632.065 348.377 632.701C348.688 632.859 349.041 632.914 349.386 632.857C349.73 632.8 350.047 632.636 350.291 632.387C350.534 632.138 350.692 631.818 350.74 631.474C350.788 631.13 350.725 630.779 350.559 630.473C349.85 629.543 348.906 628.818 347.822 628.372C346.739 627.927 345.556 627.776 344.396 627.937C343.235 628.097 342.138 628.563 341.217 629.286C340.297 630.008 339.586 630.962 339.158 632.049C339.049 632.361 339.045 632.7 339.147 633.015C339.249 633.329 339.45 633.602 339.721 633.792C339.992 633.982 340.318 634.08 340.65 634.069C340.981 634.059 341.3 633.941 341.558 633.734ZM363.324 631.343C364.849 631.333 366.317 631.918 367.415 632.973C367.638 633.249 367.948 633.441 368.294 633.52C368.64 633.599 369.003 633.56 369.324 633.408C372.161 632.049 368.07 626.505 363.378 627.973C360.76 628.516 361.305 631.288 363.324 631.343ZM346.795 644.332C345.213 644.332 344.286 646.343 344.395 649.278C344.395 651.18 344.395 654.387 347.177 654.441C349.959 654.496 349.523 651.126 349.523 649.006C349.523 646.887 349.086 644.224 346.795 644.332ZM367.197 642.321C365.56 642.321 364.687 644.224 364.797 647.213C364.797 649.115 364.797 652.322 367.633 652.376C370.47 652.43 369.924 649.061 369.924 646.941C369.924 644.821 369.488 642.158 367.197 642.321ZM509.409 772.979C510.366 772.363 511.152 771.518 511.697 770.521C512.242 769.524 512.528 768.407 512.528 767.272C512.528 766.137 512.242 765.02 511.697 764.023C511.152 763.026 510.366 762.181 509.409 761.565C508.267 761.05 507.009 760.841 505.761 760.958C504.513 761.076 503.318 761.516 502.293 762.235C501.268 762.955 500.449 763.928 499.918 765.059C499.386 766.19 499.16 767.44 499.262 768.685C499.353 769.813 499.752 770.895 500.416 771.814C501.08 772.732 501.984 773.451 503.03 773.894C504.076 774.336 505.223 774.485 506.348 774.324C507.472 774.162 508.531 773.697 509.409 772.979ZM506.136 763.522C510.172 763.522 511.154 768.631 507.881 770.805C505.481 772.381 502.153 771.674 501.935 768.413C501.899 767.223 502.309 766.063 503.086 765.158C503.863 764.253 504.95 763.67 506.136 763.522ZM783.522 362.799C783.777 362.951 784.075 363.016 784.37 362.984C784.665 362.951 784.941 362.824 785.157 362.621C785.373 362.419 785.517 362.151 785.566 361.859C785.616 361.568 785.569 361.268 785.432 361.006C784.729 359.751 783.674 358.728 782.397 358.062C781.119 357.395 779.675 357.113 778.239 357.252C776.804 357.39 775.44 357.942 774.315 358.841C773.19 359.739 772.352 360.945 771.903 362.31C771.521 364.212 772.994 364.865 774.085 363.669C774.63 362.97 775.313 362.389 776.092 361.964C776.871 361.539 777.73 361.277 778.615 361.195C779.499 361.114 780.391 361.214 781.235 361.49C782.08 361.766 782.858 362.212 783.522 362.799ZM803.87 357.853C802.547 357.566 801.17 357.664 799.903 358.136C798.635 358.609 797.532 359.435 796.723 360.517C796.561 360.78 796.494 361.09 796.532 361.397C796.571 361.703 796.713 361.987 796.935 362.202C797.158 362.418 797.447 362.551 797.755 362.58C798.064 362.61 798.373 362.534 798.633 362.364C800.023 361.609 801.624 361.327 803.19 361.563C804.756 361.798 806.201 362.538 807.306 363.669C807.439 363.87 807.616 364.038 807.824 364.161C808.032 364.283 808.265 364.357 808.506 364.375C810.743 364.375 810.143 358.723 803.87 357.853ZM793.614 384.539C792.258 385.308 790.661 385.541 789.141 385.191C787.286 384.159 789.141 378.072 790.123 376.169C790.228 375.853 790.213 375.51 790.081 375.204C789.948 374.898 789.708 374.652 789.405 374.511C789.102 374.37 788.758 374.345 788.438 374.44C788.118 374.536 787.844 374.745 787.668 375.028C785.984 377.929 785.152 381.244 785.268 384.594C785.923 389.539 791.65 389.431 795.032 386.768C795.329 386.58 795.539 386.283 795.615 385.942C795.692 385.6 795.63 385.242 795.442 384.947C795.253 384.651 794.955 384.442 794.612 384.366C794.27 384.29 793.911 384.352 793.614 384.539ZM787.341 395.464C785.608 395.479 783.911 394.967 782.478 393.996C781.045 393.024 779.944 391.64 779.322 390.029C779.176 389.757 778.941 389.543 778.657 389.422C778.372 389.301 778.055 389.279 777.757 389.362C777.459 389.444 777.197 389.624 777.016 389.874C776.834 390.124 776.744 390.427 776.758 390.735C776.908 391.977 777.32 393.172 777.967 394.244C778.614 395.315 779.481 396.238 780.512 396.952C781.542 397.665 782.713 398.153 783.946 398.384C785.18 398.615 786.448 398.583 787.668 398.29C788.044 398.247 788.388 398.056 788.623 397.761C788.858 397.465 788.966 397.088 788.923 396.714C788.879 396.339 788.688 395.997 788.392 395.762C788.095 395.528 787.717 395.42 787.341 395.464ZM779.704 368.289C777.14 368.289 776.649 373.071 778.776 374.756C780.904 376.441 782.595 374.756 782.322 371.55C782.104 369.647 781.013 368.289 779.704 368.289ZM802.124 368.289C798.96 367.963 798.305 374.919 801.469 375.245C804.633 375.572 805.342 368.56 802.124 368.289ZM788.923 509.653C787.018 509.66 785.145 510.133 783.467 511.031C781.79 511.929 780.359 513.224 779.302 514.802C778.244 516.38 777.593 518.193 777.404 520.081C777.215 521.969 777.495 523.875 778.219 525.63C778.943 527.385 780.088 528.936 781.555 530.146C783.022 531.356 784.765 532.188 786.63 532.57C788.496 532.951 790.427 532.87 792.254 532.333C794.08 531.796 795.746 530.82 797.105 529.491C798.754 527.878 799.883 525.812 800.348 523.556C800.812 521.301 800.591 518.959 799.713 516.829C798.834 514.699 797.339 512.879 795.417 511.601C793.495 510.323 791.234 509.644 788.923 509.653ZM788.923 529.98C787.499 529.979 786.097 529.628 784.841 528.959C783.585 528.29 782.514 527.323 781.722 526.144C780.93 524.964 780.442 523.609 780.3 522.197C780.159 520.785 780.368 519.36 780.91 518.048C781.453 516.736 782.311 515.577 783.409 514.674C784.508 513.77 785.812 513.151 787.208 512.869C788.604 512.587 790.048 512.652 791.412 513.058C792.777 513.464 794.02 514.198 795.032 515.197C796.231 516.415 797.044 517.959 797.369 519.635C797.694 521.31 797.517 523.044 796.86 524.62C796.203 526.196 795.094 527.545 793.673 528.498C792.252 529.451 790.581 529.966 788.868 529.98H788.923ZM770.921 447.585C750.52 431.28 751.883 432.367 751.283 432.639C750.683 432.911 751.283 431.389 748.174 454.705C748.149 454.818 748.15 454.934 748.177 455.047C748.205 455.159 748.257 455.263 748.33 455.352C748.404 455.441 748.497 455.512 748.602 455.56C748.707 455.608 748.822 455.632 748.938 455.629C749.483 455.629 753.247 454.325 770.758 448.998C770.892 448.943 771.009 448.852 771.096 448.736C771.183 448.62 771.238 448.484 771.255 448.34C771.272 448.196 771.25 448.05 771.191 447.917C771.132 447.785 771.039 447.67 770.921 447.585ZM832.017 438.998C806.651 437.53 807.961 437.259 807.579 437.802C807.197 438.346 806.761 436.933 816.525 458.673C816.586 458.801 816.677 458.913 816.791 458.998C816.905 459.084 817.039 459.14 817.18 459.162C817.834 459.162 816.852 460.358 832.617 440.302C832.706 440.185 832.762 440.046 832.778 439.9C832.793 439.753 832.769 439.606 832.708 439.472C832.646 439.338 832.55 439.223 832.428 439.14C832.307 439.057 832.165 439.008 832.017 438.998ZM867.911 469.162C869.659 469.162 871.368 468.646 872.821 467.678C874.274 466.711 875.407 465.336 876.076 463.727C876.744 462.118 876.919 460.348 876.579 458.64C876.238 456.932 875.396 455.363 874.16 454.132C872.924 452.9 871.349 452.062 869.635 451.722C867.921 451.382 866.144 451.557 864.529 452.223C862.915 452.889 861.534 454.018 860.563 455.466C859.592 456.914 859.074 458.616 859.074 460.357C859.088 462.688 860.024 464.919 861.678 466.568C863.332 468.216 865.572 469.148 867.911 469.162ZM880.185 511.012C880.307 511.089 880.449 511.13 880.594 511.13C880.739 511.13 880.881 511.089 881.003 511.012C899.605 505.088 898.459 505.577 898.623 504.816C898.786 504.055 899.823 505.142 883.458 489.706C883.35 489.59 883.21 489.507 883.056 489.468C882.901 489.429 882.738 489.436 882.588 489.488C882.437 489.54 882.305 489.634 882.208 489.76C882.11 489.886 882.052 490.037 882.04 490.196C879.53 511.555 879.53 510.577 880.185 511.012ZM872.821 541.285C872.749 541.161 872.646 541.057 872.521 540.986C872.397 540.914 872.255 540.876 872.112 540.876C871.968 540.876 871.826 540.914 871.702 540.986C871.577 541.057 871.474 541.161 871.402 541.285C866.602 556.068 866.547 555.361 866.984 555.905C867.42 556.448 866.984 556.285 882.694 554.6C882.847 554.589 882.993 554.535 883.116 554.445C883.239 554.355 883.335 554.232 883.392 554.09C883.448 553.949 883.464 553.794 883.437 553.644C883.411 553.494 883.342 553.355 883.24 553.242L872.821 541.285Z" fill="black"/>
<path d="M692.915 470.467C692.915 471.73 693.165 472.981 693.65 474.148C694.135 475.315 694.847 476.376 695.743 477.269C696.64 478.162 697.704 478.871 698.875 479.354C700.047 479.838 701.302 480.087 702.57 480.087C703.838 480.087 705.094 479.838 706.265 479.354C707.437 478.871 708.501 478.162 709.398 477.269C710.294 476.376 711.006 475.315 711.491 474.148C711.976 472.981 712.226 471.73 712.226 470.467C712.226 469.203 711.976 467.952 711.491 466.785C711.006 465.618 710.294 464.558 709.398 463.664C708.501 462.771 707.437 462.062 706.265 461.579C705.094 461.096 703.838 460.847 702.57 460.847C701.302 460.847 700.047 461.096 698.875 461.579C697.704 462.062 696.64 462.771 695.743 463.664C694.847 464.558 694.135 465.618 693.65 466.785C693.165 467.952 692.915 469.203 692.915 470.467Z" fill="black"/>
<path d="M700.552 492.696C700.48 492.571 700.377 492.468 700.253 492.397C700.128 492.325 699.987 492.287 699.843 492.287C699.699 492.287 699.558 492.325 699.433 492.397C699.309 492.468 699.206 492.571 699.134 492.696C689.533 513.24 690.024 511.881 690.406 512.425C690.788 512.968 689.478 512.805 710.644 511.175C710.782 511.16 710.915 511.109 711.028 511.029C711.142 510.949 711.233 510.841 711.293 510.716C711.353 510.591 711.38 510.452 711.372 510.314C711.363 510.175 711.319 510.041 711.244 509.925L700.552 492.696ZM696.134 559.546C696.181 559.728 696.286 559.891 696.434 560.008C696.581 560.126 696.763 560.193 696.952 560.198C697.497 560.198 696.679 560.796 711.899 546.393C711.999 546.295 712.073 546.172 712.111 546.037C712.15 545.902 712.153 545.759 712.121 545.622C712.088 545.485 712.02 545.359 711.923 545.256C711.827 545.153 711.706 545.077 711.571 545.035C691.497 539.6 692.37 539.6 691.824 540.143C691.279 540.687 691.279 539.708 696.134 559.546Z" fill="black"/>
<path d="M833.163 333.885H1037.73C1037.83 333.893 1037.94 333.878 1038.05 333.84C1038.15 333.801 1038.24 333.742 1038.32 333.664C1038.4 333.587 1038.46 333.494 1038.5 333.391C1038.54 333.289 1038.55 333.179 1038.54 333.07V331.983C1038.54 331.767 1038.46 331.559 1038.3 331.406C1038.15 331.253 1037.94 331.168 1037.73 331.168H834.417C834.972 329.493 835.128 327.712 834.872 325.967C834.617 324.222 833.957 322.56 832.945 321.113C831.758 319.696 830.229 318.603 828.502 317.937C826.774 317.272 824.905 317.055 823.071 317.308C823.559 314.829 823.264 312.259 822.226 309.953C821.189 307.648 819.46 305.719 817.277 304.432C815.095 303.145 812.565 302.563 810.038 302.767C807.51 302.97 805.107 303.949 803.16 305.569C802.394 304.078 801.236 302.822 799.809 301.936C798.382 301.05 796.74 300.568 795.059 300.54C793.379 300.512 791.722 300.94 790.266 301.778C788.81 302.616 787.611 303.832 786.795 305.297C780.904 297.362 766.721 300.84 767.212 314.319C765.154 313.183 762.762 312.799 760.45 313.233C758.138 313.668 756.05 314.893 754.549 316.699C753.048 318.504 752.227 320.775 752.228 323.119C752.23 325.463 753.053 327.733 754.556 329.537C753.301 329.856 752.105 330.369 751.01 331.059H685.55C691.715 316.928 689.151 299.373 678.623 283.937C660.839 257.632 634.983 253.719 610.817 270.73C616.708 259.768 621.216 248.121 624.236 236.055C631.982 205.619 631.491 158.117 612.726 131.594C607.141 123.694 599.962 117.042 591.649 112.063C583.336 107.084 574.072 103.889 564.449 102.68L562.758 99.7452C570.723 98.2234 572.741 85.5055 567.286 81.2119C568.469 74.8373 567.98 68.2664 565.868 62.135C571.248 59.4963 575.365 54.8474 577.323 49.1997C577.355 49.0649 577.351 48.9243 577.313 48.7912C577.275 48.6582 577.203 48.537 577.105 48.4391C577.006 48.3413 576.885 48.2699 576.751 48.2318C576.618 48.1937 576.477 48.1902 576.341 48.2214C562.104 51.9172 547.321 25.6662 520.919 32.5143C516.888 33.2327 513.049 34.7714 509.642 37.0345C506.235 39.2975 503.333 42.2362 501.117 45.667C499.713 48.45 498.88 51.4834 498.664 54.5906C498.449 57.6978 498.856 60.8166 499.862 63.7655C494.407 85.5055 501.99 119.474 520.209 130.181C509.299 145.834 505.972 177.14 505.099 190.727L502.753 191.216C502.03 189.114 500.561 187.346 498.623 186.246C496.684 185.145 494.41 184.787 492.225 185.238L466.75 187.14C458.732 179.64 420.165 146.541 382.307 165.4C334.521 188.879 347.395 296.927 347.995 301.275C348.006 301.436 348.071 301.588 348.18 301.706C348.289 301.825 348.435 301.903 348.595 301.927L354.432 303.286C353.568 306.483 352.456 309.609 351.104 312.634C343.769 314.494 336.897 317.843 330.921 322.472C329.503 323.722 325.466 327.472 326.83 331.331H206.82C206.82 -22.5423 207.256 0.502105 206.001 0.502105H204.91C203.656 0.502105 204.092 -22.4879 204.092 331.385H126.031C125.818 331.398 125.618 331.488 125.467 331.638C125.316 331.788 125.226 331.988 125.213 332.2C124.831 344.157 124.831 356.875 125.213 371.115C125.227 371.321 125.319 371.515 125.471 371.656C125.623 371.798 125.823 371.876 126.031 371.876H131.486V636.125H59.862C59.645 636.125 59.4368 636.211 59.2834 636.364C59.1299 636.517 59.0437 636.724 59.0437 636.941V676.073C59.0437 676.18 59.0649 676.286 59.106 676.385C59.1471 676.484 59.2074 676.573 59.2834 676.649C59.3594 676.725 59.4496 676.785 59.5488 676.826C59.6481 676.867 59.7545 676.888 59.862 676.888H65.317V940.757H1.27528C1.05827 940.757 0.850142 940.843 0.69669 940.996C0.543239 941.149 0.457031 941.356 0.457031 941.572V942.605C0.457031 942.821 0.543239 943.029 0.69669 943.182C0.850142 943.334 1.05827 943.42 1.27528 943.42H237.586C274.789 984.509 341.995 982.498 386.507 982.335C537.447 981.683 535.374 984.944 553.867 981.139C580.323 975.704 596.961 963.693 606.126 943.583H616.599C619.798 946.057 623.15 948.326 626.636 950.377C629.637 952.062 636.619 955.812 641.365 953.149C643.983 951.573 644.747 948.094 643.438 943.529H673.44C673.769 944.105 674.172 944.635 674.64 945.105C677.968 948.366 703.388 948.747 711.953 945.703C713.351 945.162 714.616 944.328 715.662 943.257C1060.53 943.257 1038.38 943.746 1038.38 942.442V941.464C1038.38 940.159 1060.2 940.648 716.917 940.648C716.589 932.768 696.242 927.007 688.66 924.887C685.968 920.366 682.979 916.027 679.714 911.897C682.346 909.765 684.725 907.34 686.805 904.669C686.911 904.528 686.969 904.356 686.969 904.18C686.969 904.003 686.911 903.832 686.805 903.69C664.276 874.505 647.584 854.178 621.345 838.47C621.209 838.395 621.054 838.36 620.898 838.37C620.742 838.379 620.593 838.433 620.467 838.524C620.341 838.615 620.243 838.741 620.186 838.885C620.129 839.03 620.115 839.188 620.145 839.34C625.6 859.884 626.2 882.331 627.837 907.495C627.844 907.924 627.71 908.345 627.455 908.691L620.636 912.06L619.599 909.832C621.181 908.962 622.654 908.093 623.582 907.441C623.79 907.324 623.958 907.147 624.065 906.934C624.172 906.721 624.213 906.481 624.182 906.245C620.2 843.742 604.98 758.25 542.357 766.511C547.812 759.554 552.394 754.554 544.211 750.641C538.756 748.249 496.917 731.184 491.516 730.749C487.043 730.368 484.97 733.195 482.624 736.184C480.279 739.173 466.259 759.554 462.114 766.62C462.605 759.5 462.441 751.402 462.114 744.391C463.762 744.846 465.519 744.712 467.078 744.01L468.387 745.804H468.823C470.158 746.113 471.471 746.512 472.751 746.999C472.965 747.082 473.196 747.11 473.424 747.08C473.652 747.05 473.868 746.963 474.053 746.828C474.238 746.692 474.385 746.512 474.482 746.305C474.579 746.097 474.621 745.869 474.606 745.641V742.054C474.637 741.91 474.637 741.762 474.606 741.619L472.424 738.14C473.274 736.874 473.741 735.39 473.768 733.867C473.795 732.343 473.381 730.844 472.575 729.549C471.77 728.253 470.607 727.216 469.226 726.562C467.845 725.907 466.303 725.662 464.787 725.857L457.477 714.172C454.913 711.889 448.585 715.857 449.785 719.607C449.785 720.042 456.059 728.194 456.659 728.955C454.401 730.121 452.549 731.937 451.342 734.166C450.136 736.396 449.631 738.936 449.894 741.456C440.722 752.191 429.622 761.13 417.164 767.815C415.637 765.478 414.219 763.033 412.8 760.641C398.181 735.966 383.671 718.466 355.632 711.726L355.25 701.835C370.088 700.584 375.816 690.965 377.452 676.236H697.879C710.177 698.995 724.182 720.797 739.773 741.456C739.914 741.586 740.099 741.658 740.291 741.658C740.483 741.658 740.668 741.586 740.81 741.456L744.901 739.01C745.305 739.87 745.76 740.705 746.265 741.51C743.041 748.899 742.202 757.104 743.864 764.989C744.301 766.892 745.992 773.033 750.519 773.413C755.047 773.794 759.847 767.109 761.757 762.924C764.398 756.884 765.808 750.381 765.903 743.793C766.268 740.28 765.229 736.765 763.011 734.01C762.354 732.5 761.607 731.03 760.775 729.607C762.029 728.846 762.575 728.683 762.63 728.086C763.575 710.81 763.43 693.493 762.193 676.236H813.579C813.056 694.85 813.767 713.478 815.707 731.999C815.707 732.651 816.143 732.651 819.252 733.792C818.74 734.978 818.303 736.194 817.943 737.434C812.816 742.434 817.943 765.968 828.853 773.631C829.604 774.26 830.473 774.732 831.41 775.022C832.347 775.311 833.332 775.411 834.308 775.316C839.763 774.174 840.363 765.098 840.309 761.239C840.084 754.866 838.326 748.64 835.181 743.086C835.646 742.135 836.047 741.155 836.381 740.151L842.654 742.434C842.844 742.511 843.055 742.515 843.247 742.444C843.439 742.374 843.597 742.235 843.691 742.054C859.881 721.497 874.022 699.417 885.912 676.127H1037.73C1038.93 676.127 1038.93 673.464 1037.73 673.464H886.731C892.309 662.141 896.837 650.334 900.259 638.191H1037.73C1038.93 638.191 1038.93 635.582 1037.73 635.582H929.607C932.861 629.408 934.723 622.601 935.062 615.635C935.498 599.33 929.607 581.558 910.624 562.59L905.169 557.644C920.279 527.969 912.369 483.456 896.986 454.379C891.239 443.186 883.17 433.338 873.314 425.486C863.458 417.634 852.041 411.958 839.818 408.834C830.578 406.346 821.017 405.247 811.452 405.573L810.579 401.388C813.199 396.772 815.041 391.76 816.034 386.55C816.946 386.902 817.958 386.902 818.871 386.55C823.78 384.594 826.18 376.115 825.144 371.441H1037.73C1037.83 371.449 1037.94 371.433 1038.05 371.395C1038.15 371.357 1038.24 371.297 1038.32 371.22C1038.4 371.143 1038.46 371.05 1038.5 370.947C1038.54 370.844 1038.55 370.735 1038.54 370.626V369.593C1038.54 369.486 1038.52 369.38 1038.48 369.281C1038.44 369.182 1038.38 369.092 1038.3 369.017C1038.23 368.941 1038.14 368.881 1038.04 368.84C1037.94 368.799 1037.83 368.778 1037.73 368.778H823.889C823.255 368.173 822.476 367.74 821.625 367.521C820.775 367.302 819.883 367.304 819.034 367.528C819.167 363.382 819.752 359.264 820.78 355.245C833.163 355.842 837.418 342.744 830.053 336.82C831.281 336.064 832.339 335.065 833.163 333.885ZM820.943 370.68C823.889 371.821 821.762 382.365 817.834 384.213C817.662 384.319 817.464 384.375 817.261 384.375C817.059 384.375 816.861 384.319 816.689 384.213C817.487 380.143 817.98 376.019 818.161 371.876C818.449 371.419 818.869 371.061 819.366 370.847C819.863 370.634 820.413 370.575 820.943 370.68ZM900.914 635.962C904.095 624.392 904.857 612.293 903.15 600.417C902.394 595.635 900.651 591.06 898.031 586.981C895.412 582.903 891.973 579.409 887.931 576.721C894.679 573.24 900.171 567.749 903.641 561.014C908.573 565.532 913.049 570.519 917.006 575.906C934.244 598.57 934.68 619.386 926.661 635.691L900.914 635.962ZM818.598 741.13C820.132 743.238 822.323 744.781 824.829 745.518C827.336 746.255 830.016 746.146 832.453 745.206C834.965 750.284 836.325 755.851 836.436 761.511C836.436 767.707 835.454 775.207 830.272 771.729C822.962 766.946 816.961 747.923 818.598 741.13ZM758.102 762.054C756.465 765.859 752.647 770.859 750.356 770.859C748.065 770.859 746.919 766.891 746.428 764.663C744.942 757.558 745.471 750.181 747.956 743.358C750.465 744.025 753.125 743.854 755.529 742.873C757.933 741.891 759.947 740.153 761.266 737.923C763.23 743.467 760.393 756.511 758.102 762.054ZM743.646 607.102C741.082 602.591 741.41 601.015 741.628 600.852C741.846 600.689 744.192 601.396 746.701 604.765C753.495 614.475 758.586 625.262 761.757 636.669C761.81 636.833 761.911 636.977 762.047 637.083C762.183 637.19 762.348 637.254 762.52 637.267L808.942 638.408C809.126 638.415 809.307 638.359 809.456 638.251C809.604 638.142 809.712 637.987 809.761 637.81C813.711 625.827 818.999 614.323 825.526 603.515C828.035 599.33 830.108 598.515 830.435 598.624C833.381 600.2 815.707 619.712 813.034 673.79H761.266C759.52 650.854 755.374 627.375 743.646 607.102ZM748.065 740.532C747.716 739.622 747.315 738.733 746.865 737.869L757.338 731.618C758.011 732.91 758.758 734.162 759.575 735.368C758.474 737.353 756.757 738.929 754.682 739.859C752.607 740.79 750.286 741.026 748.065 740.532ZM820.016 738.466C820.589 737.447 821.099 736.395 821.543 735.314L832.999 739.553C832.59 740.484 832.261 741.448 832.017 742.434C829.855 743.157 827.516 743.161 825.352 742.445C823.188 741.73 821.315 740.333 820.016 738.466ZM412.146 771.076C411.842 771.257 411.623 771.55 411.536 771.891C411.449 772.233 411.501 772.594 411.682 772.897C411.863 773.2 412.157 773.419 412.5 773.505C412.843 773.592 413.206 773.539 413.51 773.359C429.875 764.174 437.784 760.587 451.967 743.575C452.233 743.216 452.351 742.768 452.295 742.325C451.947 740.217 452.289 738.053 453.272 736.154C454.254 734.255 455.824 732.722 457.75 731.781L459.168 733.684C458.044 734.652 457.181 735.885 456.659 737.271C456.35 737.333 456.073 737.5 455.874 737.742C455.675 737.985 455.566 738.289 455.566 738.602C455.566 738.916 455.675 739.22 455.874 739.462C456.073 739.705 456.35 739.872 456.659 739.934C459.193 739.939 461.706 740.4 464.077 741.293C464.688 741.542 465.217 741.956 465.605 742.488C464.971 742.568 464.329 742.568 463.696 742.488C461.95 742.488 460.041 742.108 459.059 743.141C458.901 743.309 458.788 743.515 458.732 743.739C458.676 743.963 458.678 744.198 458.738 744.421C458.798 744.644 458.914 744.848 459.075 745.014C459.236 745.18 459.437 745.302 459.659 745.369C459.659 745.858 459.004 770.044 459.004 772.163C458.132 773.247 457.466 774.482 457.041 775.805C456.76 776.893 456.796 778.037 457.144 779.105C457.492 780.173 458.137 781.121 459.004 781.838C440.155 786.584 421.771 793.005 404.072 801.023C403.418 792.925 404.072 788.903 404.072 775.805C404.072 762.707 404.072 758.467 396.981 748.63C391.223 741.029 384.757 733.987 377.67 727.596C372.898 723.424 367.685 719.779 362.124 716.726C388.853 725.694 403.472 753.467 414.219 769.5L412.146 771.076ZM458.786 737.379C459.201 736.671 459.676 735.998 460.204 735.368L462.441 738.249C461.283 737.72 460.05 737.372 458.786 737.216V737.379ZM492.062 734.282C488.461 736.184 486.607 740.749 480.824 748.413L466.75 768.685C466.596 768.98 466.556 769.321 466.637 769.644C466.718 769.966 466.915 770.248 467.191 770.435C467.466 770.623 467.801 770.703 468.132 770.661C468.463 770.619 468.767 770.457 468.987 770.207C472.096 765.805 486.17 745.423 487.316 743.63C491.352 737.434 493.043 734.879 498.226 735.803C507.881 739.445 539.302 752.108 542.793 753.467C544.32 754.174 545.139 754.88 545.302 755.587C545.684 757.163 543.339 760.043 539.411 764.881C536.356 768.685 516.282 794.067 513.118 796.621C511.669 797.776 509.843 798.356 507.99 798.251C505.699 798.251 503.626 797.327 485.679 791.512C487.316 789.773 486.77 787.708 484.588 787.49C486.061 786.458 487.752 784.447 486.77 782.925C485.788 781.403 482.079 782.381 478.479 782.925C483.006 778.468 480.824 774.99 477.006 776.675C475.532 777.652 474.002 778.541 472.424 779.338C470.926 779.839 469.365 780.131 467.787 780.207C468.407 777.672 468.407 775.025 467.787 772.49C467.687 772.214 467.53 771.962 467.325 771.752C467.121 771.541 466.873 771.377 466.6 771.269C466.326 771.161 466.033 771.112 465.739 771.126C465.445 771.139 465.158 771.215 464.896 771.348C464.379 771.704 463.943 772.164 463.614 772.697C463.285 773.23 463.072 773.826 462.986 774.446C462.471 776.215 461.776 777.926 460.914 779.555C460.415 779.153 460.046 778.615 459.852 778.006C459.658 777.398 459.648 776.745 459.823 776.131C460.259 774.229 483.934 740.097 485.134 738.466C487.425 734.716 488.516 733.412 492.225 734.118L492.062 734.282ZM676.986 942.605C674.733 939.814 673.114 936.569 672.24 933.094C680.095 933.692 685.496 931.844 688.332 927.659C696.626 929.859 704.548 933.265 711.843 937.768C714.789 940.051 714.625 941.246 710.48 942.877C699.438 945.312 687.986 945.219 676.986 942.605ZM127.831 333.885H329.284C338.121 339.755 367.469 335.787 370.579 333.885H413.291C414.423 345.684 416.244 357.407 418.746 368.995H127.831C128.049 356.929 128.049 345.353 127.831 333.885ZM609.508 133.66C621.4 150.889 625.054 172.085 625.164 193.445C625.609 207.431 624.178 221.414 620.909 235.022C618.222 246.328 614.193 257.275 608.908 267.632C604.945 275.426 599.915 282.633 593.961 289.046C585.8 279.925 576.527 271.855 566.359 265.024C571.046 265.261 575.735 264.572 580.154 262.995C584.573 261.419 588.635 258.986 592.106 255.838C598.578 249.762 603.625 242.339 606.889 234.098C616.436 209.152 620.69 169.313 607.544 144.04C603.626 135.906 597.431 129.074 589.706 124.366C589.403 124.261 589.073 124.265 588.773 124.379C588.473 124.493 588.223 124.708 588.067 124.987C587.911 125.266 587.858 125.591 587.918 125.905C587.979 126.218 588.148 126.501 588.397 126.703C595.478 131.336 601.14 137.824 604.762 145.454C610.626 158.534 613.192 172.845 612.235 187.14C599.525 187.14 576.56 187.52 555.721 188.499C556.077 176.078 557.115 163.686 558.831 151.378C558.831 151.051 558.712 150.735 558.497 150.487C558.282 150.24 557.985 150.079 557.66 150.033C557.335 149.986 557.004 150.058 556.728 150.236C556.452 150.413 556.25 150.683 556.158 150.997C552.089 171.464 551.132 192.424 553.321 213.174C538.572 217.226 524.638 223.79 512.136 232.577L511.209 228.174C513.816 212.7 520.1 198.071 529.537 185.51C531.228 183.336 524.955 173.661 531.61 133.062C533.444 133.046 535.272 132.845 537.065 132.464C538.347 133.752 539.932 134.701 541.675 135.223C543.419 135.745 545.266 135.824 547.048 135.453C550.902 134.78 554.571 133.304 557.814 131.122C561.057 128.94 563.801 126.1 565.868 122.79C568.195 119.31 569.324 115.171 569.086 110.996L565.922 105.561C574.701 107.11 583.08 110.395 590.566 115.221C598.051 120.046 604.492 126.316 609.508 133.66ZM724.39 564.275C772.83 566.068 831.253 566.394 851.273 565.796C851.687 567.29 851.687 568.868 851.273 570.362C849.455 570.724 847.764 571.159 846.2 571.666L725.099 569.764C724.346 568.038 724.1 566.134 724.39 564.275ZM724.39 561.612C720.598 542.718 718.77 523.485 718.935 504.218C718.935 493.348 718.935 487.369 721.881 484.706C726.299 480.684 747.246 478.673 753.574 478.13C796.287 474.217 847.182 478.13 858.419 483.565C863.383 486.174 863.002 490.25 862.183 498.402C859.89 520.237 856.247 541.909 851.273 563.296L724.39 561.612ZM639.51 950.051C634.601 952.986 619.272 941.735 615.126 937.985C612.89 935.92 612.017 935.159 610.926 929.344C610.926 928.365 610.599 927.387 610.49 926.354C612.746 926.776 615.078 926.478 617.155 925.502C619.231 924.526 620.946 922.922 622.054 920.919C627.786 926.802 633.107 933.066 637.983 939.67C639.51 942.605 641.91 948.584 639.51 950.051ZM612.672 940.268H607.544C608.144 938.746 608.689 937.224 609.235 935.703C609.98 937.486 611.162 939.056 612.672 940.268ZM609.78 922.876L606.126 915.593C609.707 914.505 613.192 913.123 616.545 911.463L619.818 918.474C619.04 920.358 617.56 921.869 615.689 922.689C613.818 923.51 611.7 923.577 609.78 922.876ZM61.6621 638.734H288.863C288.863 639.984 289.19 644.169 289.245 645.039C290.008 658.844 287.499 666.779 280.244 673.736H62.044C61.8803 666.724 61.7167 643.952 61.6621 638.734ZM539.302 64.6351C547.231 66.9007 555.698 66.4022 563.304 63.222C564.765 68.696 565.117 74.4051 564.34 80.0162C562.879 79.8119 561.389 80.0193 560.039 80.6148C558.689 81.2103 557.534 82.1702 556.703 83.3859C556.541 83.6723 556.484 84.0063 556.542 84.3302C556.6 84.6541 556.77 84.9477 557.022 85.1602C557.274 85.3728 557.593 85.491 557.923 85.4945C558.253 85.498 558.574 85.3866 558.831 85.1794C561.122 82.7337 563.358 82.6793 564.668 83.4946C567.504 85.1251 567.395 90.1796 566.031 93.1145C564.668 96.0494 560.576 98.1691 558.449 95.9951C558.15 94.0193 557.749 92.0601 557.249 90.1253C557.139 89.7866 556.918 89.4949 556.621 89.2976C556.324 89.1002 555.968 89.0088 555.612 89.0383L552.23 89.31C551.815 89.3649 551.425 89.5376 551.106 89.8074C550.787 90.0772 550.552 90.4328 550.43 90.8318C544.157 113.659 526.537 92.4623 508.208 110.67C501.718 96.0889 499.688 79.9249 502.372 64.2003C510.336 59.5806 519.5 59.6349 539.302 64.6351ZM527.846 111.485C533.301 111.485 539.466 114.039 539.52 117.572C539.52 126.975 518.737 126.54 518.737 118.224C518.737 113.387 523.101 111.485 527.846 111.485ZM528.883 133.225C526.125 146.297 525.08 159.669 525.773 173.009C519.882 172.194 513.663 171.705 510.499 171.542C512.572 157.845 516.827 140.508 522.828 131.486C524.771 132.265 526.805 132.795 528.883 133.062V133.225ZM634.983 264.969C649.984 263.121 663.185 270.404 675.404 286.274C680.383 292.52 683.629 299.959 684.816 307.847C686.003 315.735 685.09 323.796 682.168 331.222H479.406C480.224 324.898 480.479 318.514 480.17 312.145C496.535 315.406 516.282 320.841 540.175 319.971C567.777 318.993 586.16 309.482 593.415 292.416C593.616 292.554 593.854 292.628 594.097 292.628C594.341 292.628 594.579 292.554 594.779 292.416C599.195 287.976 603.093 283.054 606.398 277.741C614.577 270.933 624.456 266.463 634.983 264.806V264.969ZM808.233 405.138L808.67 408.018C808.5 414.65 806.978 421.177 804.197 427.204C802.967 430.158 800.835 432.651 798.103 434.329C795.371 436.007 792.178 436.785 788.977 436.552C775.721 435.954 771.194 418.834 770.867 405.79L771.685 403.344C773.828 406.26 776.639 408.625 779.884 410.241C783.128 411.858 786.713 412.679 790.341 412.638C793.726 412.924 797.129 412.374 800.25 411.037C803.37 409.7 806.112 407.618 808.233 404.975V405.138ZM375.106 605.635C370.661 601.175 364.867 598.296 358.617 597.442C352.367 596.587 346.009 597.805 340.522 600.907C334.128 597.386 326.775 595.983 319.528 596.901C312.281 597.82 305.515 601.012 300.209 606.015C296.125 609.79 292.964 614.447 290.968 619.629C288.973 624.811 288.197 630.38 288.699 635.908H134.377V371.93H419.128C420.601 379.159 426.711 407.094 428.074 413.725C428.122 413.908 428.227 414.07 428.374 414.187C428.522 414.305 428.704 414.372 428.893 414.377H432.493C432.684 416.862 432.593 419.36 432.22 421.823C425.846 426.758 420.57 432.958 416.728 440.031C411.273 452.151 418.692 456.77 431.075 451.825C438.54 448.742 445.608 444.783 452.131 440.031C455.95 437.096 459.768 433.509 459.277 429.161C458.693 424.932 456.784 420.995 453.822 417.91C453.822 415.954 453.495 414.269 453.331 413.019H457.313C457.49 413.023 457.663 412.965 457.803 412.856C457.942 412.747 458.039 412.593 458.077 412.421C460.914 402.149 466.696 384.648 470.46 371.876H755.102C755.102 377.637 758.593 385.626 763.993 384.539C765.015 390.046 766.971 395.339 769.776 400.192L768.466 403.997C758.497 404.041 748.583 405.468 739.009 408.236C699.843 419.432 671.858 451.716 662.148 496.989C657.512 518.186 659.203 538.73 666.785 553.35C650.748 576.449 636.837 604.276 653.857 635.854H382.143C383.453 623.625 384.653 614.712 375.106 605.635ZM256.351 727.814C263.661 730.368 268.516 729.662 270.48 734.825C272.443 739.988 267.152 751.945 272.334 761.62C276.48 769.283 284.935 772.49 296.173 770.642C310.574 814.122 345.704 849.123 372.543 858.96C380.48 861.999 389.098 862.826 397.472 861.352L394.854 874.124C374.446 869.94 355.322 861 339.049 848.036C319.095 830.018 304.204 807.126 295.845 781.62C295.698 781.334 295.454 781.108 295.155 780.984C294.857 780.86 294.524 780.846 294.216 780.944C293.908 781.042 293.645 781.246 293.474 781.519C293.303 781.792 293.234 782.117 293.281 782.436C301.419 808.678 316.492 832.257 336.921 850.699C366.597 876.298 413.291 883.907 452.076 883.907C497.298 883.907 526.919 871.298 555.721 884.777C555.89 884.888 556.094 884.933 556.294 884.903C556.494 884.874 556.675 884.771 556.804 884.616C556.933 884.461 556.999 884.264 556.991 884.063C556.982 883.861 556.899 883.671 556.758 883.527C537.774 859.45 533.41 841.079 527.792 812.872C526.21 805.045 531.938 810.154 532.647 812.872C547.321 867.548 566.086 891.244 595.27 917.115C595.413 917.234 595.578 917.325 595.756 917.381C595.934 917.437 596.121 917.457 596.307 917.441C598.565 917.225 600.806 916.862 603.016 916.354C608.471 927.224 606.726 922.659 607.926 929.67C599.798 956.084 581.742 971.737 552.83 977.498C528.337 982.172 526.101 978.53 393.762 977.117H385.089C331.085 978.096 249.369 979.563 223.021 909.56C200.219 847.873 238.131 744.662 256.351 727.814ZM759.52 368.615C760.611 368.615 761.593 369.539 762.193 371.169C762.294 374.701 762.622 378.223 763.175 381.713C759.084 382.42 755.865 368.886 759.52 368.615ZM435.493 413.997L450.167 413.345C450.167 415.084 450.604 417.258 450.985 419.215C449.268 421.825 446.585 423.655 443.521 424.307C440.457 424.958 437.258 424.378 434.62 422.693C435.489 419.881 435.786 416.925 435.493 413.997ZM419.783 441.498C423.189 435.222 427.655 429.578 432.984 424.813C434.476 426.044 436.219 426.935 438.092 427.426C439.966 427.916 441.924 427.993 443.83 427.651C445.736 427.31 447.545 426.558 449.129 425.448C450.714 424.338 452.036 422.897 453.004 421.225C454.631 423.791 455.725 426.656 456.222 429.65C456.55 432.748 451.913 436.172 450.167 437.476C435.166 448.02 411.928 458.292 419.783 441.498ZM411.764 228.718C413.837 235.892 417.219 246.599 419.292 253.393C421.365 260.186 422.947 265.024 430.202 265.73C414.219 281.329 411.546 308.83 413.073 330.95H372.488C373.489 325.923 373.015 320.716 371.124 315.95C370.797 315.297 371.124 316.873 372.815 307.09L374.888 307.525C375.042 307.562 375.203 307.55 375.349 307.492C375.496 307.433 375.621 307.331 375.706 307.199C376.034 306.71 407.564 261.545 407.509 225.185L411.764 228.718ZM679.605 635.962H656.639C642.292 607.374 651.184 583.352 668.367 556.448C673.517 565.213 681.585 571.904 691.169 575.362C674.64 587.754 670.877 607.646 679.605 635.962ZM746.919 336.494C744.083 346.929 756.302 346.983 759.357 353.397C760.7 357.444 761.346 361.689 761.266 365.952C760.675 365.751 760.05 365.673 759.429 365.722C758.807 365.771 758.202 365.946 757.65 366.236C757.099 366.526 756.612 366.925 756.221 367.409C755.83 367.893 755.542 368.451 755.374 369.049H471.114C474.555 357.522 477.198 345.773 479.024 333.885H748.065C747.536 334.683 747.149 335.565 746.919 336.494ZM555.34 215.837C557.412 215.13 555.34 213.88 555.721 191.488C576.396 191.488 599.361 190.836 612.126 190.129C610.981 211.869 606.071 239.044 589.979 253.393C579.887 262.252 569.25 262.904 554.358 261.056C546.078 259.918 537.866 258.339 529.756 256.328C529.101 252.632 525.283 252.251 516.064 251.436L512.791 235.62C526.041 227.194 540.347 220.542 555.34 215.837ZM526.701 256.871C526.844 257.332 526.859 257.824 526.744 258.293C526.629 258.762 526.387 259.191 526.046 259.534C523.323 259.959 520.564 260.123 517.809 260.023C517.427 258.121 517.045 256.219 516.609 254.262C525.555 255.784 526.374 255.784 526.701 256.871ZM434.02 263.23C430.802 263.23 427.256 263.23 425.62 260.947C423.983 258.665 421.31 249.479 415.855 232.087C404.618 193.499 404.673 195.619 420.383 194.042C436.093 192.466 473.951 189.694 492.28 188.607C502.099 188.281 498.608 189.097 514.973 259.969L434.02 263.23ZM369.979 306.71C369.27 309.971 368.615 313.232 368.233 315.678C361.633 319.374 357.814 318.721 353.777 313.341C355.282 310.324 356.453 307.153 357.269 303.884L369.979 306.71ZM68.3172 676.834H276.698C263.333 686.562 242.932 691.562 245.223 712.541C245.287 715.312 246.026 718.026 247.375 720.449C248.724 722.873 250.644 724.934 252.969 726.455C236.604 742.76 194.764 845.047 218.493 911.245C222.26 921.822 227.793 931.69 234.858 940.431H68.3172V676.834ZM393.653 750.532C400.418 759.935 399.763 764.011 400.036 775.751C399.793 784.579 400.011 793.413 400.69 802.219L399.49 802.763C375.325 787.871 363.651 751.13 329.884 737.543C329.559 737.406 329.192 737.403 328.865 737.536C328.537 737.668 328.276 737.925 328.139 738.249C328.001 738.573 327.999 738.939 328.132 739.265C328.265 739.591 328.523 739.851 328.848 739.988C362.178 753.956 372.815 791.132 398.399 806.567C398.671 806.701 398.969 806.771 399.272 806.771C399.575 806.771 399.874 806.701 400.145 806.567C419.512 797.204 439.709 789.653 460.477 784.012C461.023 784.012 461.241 783.523 461.459 783.033C464.241 777.598 464.677 774.12 465.332 773.522C465.999 775.794 465.999 778.208 465.332 780.479C464.732 782.11 466.205 782.707 466.859 782.925C469.032 783.265 471.256 782.943 473.242 782.001C474.476 781.359 475.629 780.575 476.678 779.664C478.37 778.468 477.879 780.425 477.279 781.131C476.126 782.047 474.924 782.9 473.678 783.686C472.751 784.447 473.133 785.642 474.442 785.642C477.111 785.668 479.777 785.45 482.406 784.99C484.643 784.555 483.552 786.131 483.006 786.512C481.278 787.353 479.443 787.956 477.551 788.305C477.351 788.387 477.18 788.527 477.06 788.706C476.939 788.885 476.875 789.095 476.875 789.311C476.875 789.526 476.939 789.737 477.06 789.916C477.18 790.095 477.351 790.234 477.551 790.316C479.179 790.735 480.887 790.735 482.515 790.316C483.061 790.316 484.206 790.316 482.788 791.24C481.059 791.94 479.197 792.256 477.333 792.164C477.181 792.129 477.023 792.128 476.87 792.162C476.718 792.196 476.575 792.264 476.453 792.361C476.331 792.457 476.232 792.58 476.164 792.72C476.096 792.861 476.06 793.014 476.06 793.17C476.06 793.325 476.096 793.479 476.164 793.619C476.232 793.759 476.331 793.882 476.453 793.979C476.575 794.076 476.718 794.143 476.87 794.177C477.023 794.211 477.181 794.211 477.333 794.175C478.368 794.256 479.408 794.256 480.442 794.175C481.152 794.175 481.097 794.175 480.442 794.556C478.849 795.032 477.197 795.288 475.533 795.317C473.607 795.37 471.69 795.042 469.892 794.351C468.094 793.661 466.451 792.622 465.059 791.295C464.759 791.027 464.371 790.879 463.968 790.879C463.566 790.879 463.177 791.027 462.877 791.295C447.058 805.86 422.51 873.254 373.47 855.699C348.759 846.569 314.61 813.252 299.064 770.316C318.047 765.696 328.03 748.902 324.757 727.162C334.303 732.868 352.577 741.89 363.705 740.967C372.924 740.314 375.652 731.999 365.833 723.085C369.037 725.34 372.098 727.791 374.997 730.423C381.791 736.534 388.033 743.226 393.653 750.423V750.532ZM355.196 720.205V718.14C359.723 721.129 368.942 727.705 369.215 733.303C369.215 736.619 365.942 737.379 363.76 737.543C352.85 738.358 333.867 728.847 324.429 723.248C323.168 718.082 321.339 713.069 318.974 708.302C312.428 694.008 312.101 688.791 312.974 679.442C313.533 676.185 313.366 672.845 312.483 669.659C312.483 669.333 312.156 668.735 311.556 668.627C310.956 668.518 310.519 668.953 310.356 669.061C306.755 672.757 303.755 669.062 302.064 664.333C301.516 663.239 301.311 662.006 301.476 660.794C301.642 659.582 302.17 658.448 302.991 657.539C305.719 655.202 308.446 656.833 310.356 659.931C314.556 666.724 316.956 670.475 315.811 678.138C315.429 680.203 317.283 680.692 318.484 679.225C323.175 673.79 323.338 666.127 323.502 658.137C323.939 639.93 325.575 638.191 336.54 624.984C340.074 620.965 343.336 616.716 346.304 612.266C351.529 611.943 356.722 613.275 361.142 616.07C371.724 623.353 373.143 636.941 373.961 653.843C374.654 663.566 374.104 673.337 372.324 682.921C369.27 694.878 362.56 697.758 352.577 698.574C352.322 698.595 352.074 698.669 351.848 698.79C351.623 698.912 351.425 699.079 351.268 699.28C350.559 700.15 350.613 699.28 352.85 720.422C352.997 720.612 353.192 720.759 353.414 720.85C353.637 720.94 353.88 720.971 354.118 720.937C354.356 720.904 354.581 720.809 354.77 720.661C354.96 720.514 355.106 720.319 355.196 720.096V720.205ZM377.016 658.735C379.904 661.693 383.792 663.475 387.926 663.735C388.087 663.744 388.248 663.705 388.388 663.623C388.527 663.541 388.639 663.42 388.709 663.274C388.779 663.129 388.804 662.966 388.782 662.806C388.759 662.646 388.689 662.497 388.58 662.376C385.778 659.198 383.695 655.456 382.471 651.405C381.248 647.354 380.913 643.089 381.489 638.897H680.095C684.247 650.898 689.317 662.563 695.26 673.79H377.016C377.356 668.742 377.411 663.68 377.179 658.626L377.016 658.735ZM546.775 132.464C544.655 132.856 542.466 132.591 540.502 131.703C553.649 127.083 560.14 115.833 558.885 99.6909H559.54L566.522 112.028C565.818 117.076 563.528 121.771 559.981 125.442C556.434 129.113 551.811 131.571 546.775 132.464ZM509.954 174.15C515.409 174.857 521.355 175.4 525.883 175.618C525.883 178.661 526.537 181.651 527.028 184.477C518.31 195.025 512.334 207.55 509.627 220.946C508.045 213.5 504.772 198.119 503.681 193.771C510.118 192.575 507.008 196.162 510.063 174.15H509.954ZM369.106 318.232C370.196 322.276 370.346 326.514 369.542 330.624C369.461 330.936 369.267 331.207 368.997 331.385C360.034 333.25 350.867 333.963 341.722 333.505C335.339 333.07 331.085 331.765 330.212 329.972C329.339 328.178 330.812 327.037 333.321 324.917C338.943 320.665 345.227 317.36 351.923 315.134C352.742 316.581 353.871 317.83 355.23 318.792C356.589 319.755 358.144 320.407 359.784 320.703C361.425 320.999 363.111 320.931 364.722 320.504C366.333 320.077 367.83 319.301 369.106 318.232ZM671.804 929.942C670.004 927.17 667.658 924.126 666.349 922.17C670.658 919.18 674.368 916.408 677.259 913.854L686.096 925.974C684.165 927.661 681.877 928.893 679.403 929.58C676.929 930.266 674.332 930.39 671.804 929.942ZM657.13 928.202C657.13 928.202 659.912 926.463 663.676 923.854C665.367 926.463 667.603 929.778 669.131 932.061C669.337 934.939 670.116 937.747 671.422 940.322H641.965C636.692 931.76 630.102 924.075 622.436 917.55L621.072 914.397C658.657 929.181 656.584 928.528 657.13 928.202ZM858.638 420.845C873.713 429.216 885.9 441.927 893.604 457.314L888.531 469.76C888.477 469.873 888.452 469.998 888.458 470.124C888.464 470.249 888.501 470.371 888.566 470.478C888.63 470.586 888.721 470.676 888.829 470.74C888.937 470.805 889.06 470.841 889.186 470.847L900.096 472.369C907.523 491.266 910.545 511.597 908.933 531.828C906.673 531.886 904.498 532.694 902.752 534.123C901.006 535.553 899.788 537.523 899.293 539.72C898.799 541.917 899.054 544.216 900.02 546.252C900.985 548.288 902.605 549.945 904.623 550.959C901.132 560.633 894.75 571.558 885.094 575.09C875.675 569.965 864.83 568.056 854.219 569.655C854.44 567.826 854.253 565.97 853.673 564.22C857.78 551.831 860.756 539.098 862.565 526.175C867.341 526.022 872.082 527.031 876.378 529.115C880.674 531.198 884.396 534.293 887.222 538.132C887.413 538.387 887.689 538.566 887.999 538.639C888.31 538.713 888.637 538.675 888.923 538.532C889.208 538.39 889.435 538.152 889.563 537.861C889.69 537.569 889.711 537.242 889.622 536.937C887.182 532.27 883.435 528.41 878.835 525.824C874.235 523.238 868.981 522.039 863.711 522.371C862.511 522.371 863.711 524.219 865.838 499C866.602 490.685 867.475 483.837 860.056 479.978C853.637 477.56 846.922 476.006 840.091 475.358C842.455 464.525 845.928 453.962 850.455 443.835C850.607 443.518 850.626 443.154 850.509 442.822C850.391 442.491 850.146 442.22 849.828 442.069C849.509 441.917 849.144 441.898 848.811 442.015C848.479 442.133 848.207 442.377 848.055 442.694C842.577 452.879 838.695 463.84 836.545 475.195C803.484 471.455 770.09 471.747 737.1 476.065C734.415 464.966 730.056 454.338 724.172 444.542C724.005 444.232 723.722 444 723.385 443.898C723.047 443.796 722.683 443.832 722.372 443.998C722.061 444.164 721.828 444.446 721.726 444.782C721.624 445.119 721.66 445.482 721.826 445.792C726.801 455.654 730.75 465.998 733.609 476.662C714.68 479.978 715.062 484.271 715.116 504.924C715.116 510.359 715.116 515.794 715.553 521.556C699.624 518.675 686.478 523.838 680.314 539.002C680.169 539.319 680.157 539.68 680.279 540.007C680.402 540.333 680.65 540.597 680.968 540.741C681.287 540.885 681.649 540.898 681.977 540.775C682.304 540.653 682.569 540.406 682.714 540.089C689.533 526.556 700.333 522.86 715.826 525.143C716.814 537.74 718.876 550.232 721.99 562.481C721.158 564.437 720.949 566.599 721.39 568.677C716.761 567.554 711.951 567.395 707.258 568.208C702.565 569.022 698.09 570.791 694.115 573.405C674.586 566.394 663.13 546.611 663.239 520.306C664.611 520.425 665.992 520.262 667.298 519.827C668.603 519.392 669.805 518.694 670.828 517.776C671.852 516.859 672.675 515.741 673.246 514.493C673.817 513.246 674.125 511.894 674.15 510.523C674.146 508.067 673.22 505.701 671.554 503.891C669.889 502.081 667.604 500.957 665.149 500.74C672.24 463.945 693.46 433.346 722.153 418.671C728.372 429.921 743.155 424.106 741.737 411.062C750.38 408.559 759.306 407.153 768.303 406.877C768.303 421.986 773.758 439.052 788.923 439.487C804.088 439.922 811.124 424.65 811.452 408.779C820.465 408.658 829.449 409.829 838.127 412.258C838.563 424.595 851.71 429.704 858.638 420.845ZM791.268 409.268C787.794 409.25 784.371 408.43 781.267 406.875C778.163 405.319 775.462 403.069 773.376 400.301C764.157 388.289 763.12 357.799 768.685 350.462C774.249 343.125 789.795 344.32 797.978 345.027C813.743 346.277 816.198 353.56 815.488 368.397C814.561 387.094 809.979 409.323 791.268 409.323V409.268ZM455.022 716.672C474.006 747.054 471.387 742.597 471.933 744.988L470.242 744.336L451.695 719.063C451.695 718.14 454.04 716.563 455.022 716.672ZM470.405 736.075L466.314 729.444C467.104 729.428 467.884 729.617 468.577 729.994C469.27 730.371 469.853 730.922 470.266 731.592C470.68 732.262 470.91 733.029 470.935 733.815C470.959 734.602 470.776 735.381 470.405 736.075Z" fill="black"/>
<path d="M526.974 98.3321C527.191 98.0438 527.284 97.6814 527.233 97.3247C527.182 96.9679 526.99 96.646 526.701 96.4298C526.558 96.3228 526.395 96.2449 526.221 96.2006C526.048 96.1563 525.867 96.1465 525.69 96.1717C525.332 96.2227 525.009 96.4133 524.792 96.7016C524.4 97.2319 523.902 97.6751 523.329 98.0026C522.756 98.3302 522.121 98.535 521.464 98.6038C520.1 98.6038 519.446 96.919 519.009 95.6146C518.327 92.0309 518.217 88.3625 518.682 84.7446C518.74 84.3986 518.657 84.0439 518.453 83.7586C518.248 83.4732 517.938 83.2804 517.591 83.2228C517.244 83.1651 516.888 83.2473 516.601 83.4511C516.315 83.655 516.122 83.9638 516.064 84.3098C512.081 102.734 522.664 105.289 526.974 98.3321ZM528.828 82.3532C525.664 82.788 526.537 90.4513 529.756 90.1252C532.974 89.7991 532.047 81.9184 528.828 82.3532ZM507.99 86.8642C505.154 87.4077 505.972 93.658 508.427 94.5276C508.714 94.647 509.03 94.6849 509.338 94.6369C509.646 94.5889 509.935 94.4571 510.172 94.2558C512.245 92.5166 510.772 86.4294 507.99 86.8642ZM524.573 75.9942C525.566 75.0639 526.847 74.4979 528.205 74.3893C529.563 74.2806 530.918 74.6358 532.047 75.3964C532.319 75.5801 532.645 75.6679 532.973 75.6456C533.301 75.6234 533.612 75.4925 533.857 75.2737C534.101 75.0549 534.266 74.7609 534.323 74.4384C534.381 74.1159 534.328 73.7835 534.174 73.4941C533.471 72.5384 532.535 71.7775 531.454 71.2835C530.373 70.7894 529.183 70.5787 527.997 70.6712C526.812 70.7638 525.669 71.1565 524.679 71.8123C523.688 72.468 522.882 73.3649 522.337 74.4181C522.229 74.7098 522.221 75.0289 522.313 75.3258C522.406 75.6227 522.594 75.881 522.849 76.0605C523.103 76.2401 523.41 76.3309 523.722 76.3189C524.034 76.3069 524.333 76.1928 524.573 75.9942ZM502.753 82.5706C504.935 83.2771 504.444 79.5813 508.208 79.5813C508.515 79.5571 508.808 79.4411 509.047 79.2484C509.287 79.0557 509.462 78.7954 509.551 78.5016C509.639 78.2077 509.637 77.8941 509.543 77.6019C509.45 77.3096 509.27 77.0524 509.027 76.8638C508.264 76.4433 507.405 76.2257 506.534 76.2319C505.662 76.2382 504.806 76.4682 504.05 76.8997C503.293 77.3312 502.661 77.9497 502.214 78.6955C501.767 79.4413 501.521 80.2892 501.499 81.1575C501.484 81.3332 501.505 81.5101 501.561 81.6775C501.616 81.8449 501.705 81.9993 501.823 82.1314C501.94 82.2635 502.083 82.3705 502.243 82.446C502.403 82.5215 502.577 82.5639 502.753 82.5706ZM523.264 121.54C525.149 122.345 527.251 122.494 529.231 121.961C531.211 121.429 532.953 120.246 534.174 118.605C535.102 117.192 536.083 114.202 534.502 113.496C534.175 113.367 533.812 113.369 533.487 113.5C533.161 113.632 532.9 113.883 532.756 114.202C532.071 115.872 530.828 117.254 529.237 118.116C527.647 118.977 525.807 119.265 524.028 118.931C523.681 118.83 523.307 118.87 522.99 119.044C522.673 119.217 522.438 119.509 522.337 119.855C522.236 120.201 522.276 120.572 522.45 120.888C522.624 121.204 522.917 121.439 523.264 121.54ZM550.812 69.8527C552.012 69.8527 551.739 67.6787 550.812 67.8417C549.885 68.0048 549.666 69.9614 550.812 69.8527ZM555.831 68.657C556.976 68.657 556.703 66.5373 555.831 66.646C554.958 66.7547 554.685 68.82 555.831 68.657ZM561.395 67.57C562.54 67.57 562.267 65.4503 561.122 65.6134C559.976 65.7764 560.195 67.57 561.395 67.57ZM553.212 74.5811C554.358 74.5811 554.14 72.4615 552.939 72.5702C551.739 72.6789 552.23 74.7442 553.212 74.5811ZM558.013 73.3311C559.158 73.3311 558.885 71.1571 558.013 71.3201C557.14 71.4832 556.812 73.4941 558.013 73.3311ZM562.049 71.5375C562.049 71.6517 562.072 71.7648 562.116 71.8703C562.16 71.9758 562.224 72.0717 562.305 72.1524C562.386 72.2332 562.482 72.2972 562.588 72.3409C562.694 72.3846 562.807 72.4071 562.922 72.4071C563.037 72.4071 563.15 72.3846 563.256 72.3409C563.362 72.2972 563.458 72.2332 563.539 72.1524C563.62 72.0717 563.685 71.9758 563.728 71.8703C563.772 71.7648 563.795 71.6517 563.795 71.5375C563.795 71.4233 563.772 71.3102 563.728 71.2047C563.685 71.0992 563.62 71.0034 563.539 70.9226C563.458 70.8419 563.362 70.7778 563.256 70.7341C563.15 70.6904 563.037 70.6679 562.922 70.6679C562.807 70.6679 562.694 70.6904 562.588 70.7341C562.482 70.7778 562.386 70.8419 562.305 70.9226C562.224 71.0034 562.16 71.0992 562.116 71.2047C562.072 71.3102 562.049 71.4233 562.049 71.5375ZM553.594 78.44C552.448 78.44 552.721 80.614 553.594 80.4509C554.467 80.2879 554.794 78.44 553.594 78.44ZM558.013 77.2986C556.867 77.2986 557.14 79.4726 558.013 79.3096C558.885 79.1465 559.213 77.1899 558.013 77.2986ZM562.54 76.0486C561.395 76.0486 561.667 78.1682 562.54 78.0052C563.413 77.8421 563.686 75.8855 562.54 76.0486ZM449.676 227.685C449.991 228.724 450.509 229.69 451.199 230.529C451.889 231.369 452.738 232.064 453.698 232.576C454.658 233.089 455.71 233.408 456.793 233.515C457.877 233.622 458.971 233.516 460.014 233.202C461.056 232.888 462.026 232.372 462.868 231.685C463.711 230.997 464.409 230.151 464.923 229.194C465.437 228.238 465.757 227.19 465.865 226.111C465.972 225.031 465.866 223.941 465.55 222.902C465.235 221.864 464.718 220.897 464.028 220.058C463.338 219.219 462.488 218.523 461.528 218.011C460.569 217.499 459.517 217.18 458.433 217.073C457.35 216.965 456.255 217.072 455.213 217.386C454.171 217.7 453.201 218.215 452.358 218.903C451.516 219.59 450.818 220.437 450.304 221.393C449.79 222.349 449.47 223.397 449.362 224.477C449.254 225.556 449.361 226.647 449.676 227.685ZM459.495 230.62C458.097 230.907 456.642 230.664 455.415 229.938C454.188 229.212 453.277 228.056 452.861 226.695C452.444 225.335 452.553 223.869 453.164 222.585C453.776 221.3 454.847 220.289 456.168 219.75C457.566 219.463 459.021 219.706 460.248 220.432C461.475 221.158 462.386 222.314 462.802 223.674C463.219 225.035 463.11 226.501 462.499 227.785C461.887 229.07 460.816 230.081 459.495 230.62Z" fill="black"/>
<path d="M751.08 183.16H928.04C928.476 183.16 928.903 183.034 929.268 182.795C929.633 182.557 929.92 182.218 930.094 181.82C930.268 181.421 930.321 180.981 930.247 180.552C930.173 180.124 929.975 179.727 929.677 179.409L855.543 97.8844V72.666C855.531 68.7661 854.088 65.0052 851.486 62.092C848.883 59.1788 845.301 57.3144 841.415 56.8502V0.815309C841.415 0.708249 841.394 0.602237 841.353 0.503326C841.311 0.404415 841.251 0.314545 841.175 0.238842C841.099 0.163139 841.009 0.10309 840.91 0.0621197C840.811 0.0211496 840.704 6.10352e-05 840.597 6.10352e-05H838.524C838.307 6.10352e-05 838.099 0.0859526 837.945 0.238842C837.792 0.391731 837.706 0.599091 837.706 0.815309V56.7958C833.81 57.2612 830.22 59.1334 827.617 62.058C825.013 64.9826 823.576 68.7567 823.577 72.666V97.667L749.444 179.409C749.146 179.727 748.948 180.124 748.873 180.552C748.799 180.981 748.852 181.421 749.026 181.82C749.2 182.218 749.487 182.557 749.852 182.795C750.217 183.034 750.644 183.16 751.08 183.16Z" fill="#FFDC60"/>
</svg>
