<svg width="25" height="24" viewBox="0 0 25 24" fill="none" xmlns="http://www.w3.org/2000/svg">
<path fill-rule="evenodd" clip-rule="evenodd" d="M9.07867 23.269H13.8642V15.6322C13.8642 13.6187 14.2468 11.6689 16.7389 11.6689C19.1949 11.6689 19.2276 13.9714 19.2276 15.7616V23.269H24.014V14.8012C24.014 10.6452 23.1188 7.44767 18.2685 7.44767C15.9383 7.44767 14.3759 8.72722 13.7366 9.94094H13.6722V7.83158H9.07867V23.269ZM3.6809 0.157959C5.21208 0.157959 6.45668 1.40448 6.45668 2.93899C6.45668 4.47463 5.21208 5.72138 3.6809 5.72138C2.14567 5.72138 0.90332 4.47463 0.90332 2.93899C0.90332 1.40448 2.14567 0.157959 3.6809 0.157959V0.157959ZM1.2844 23.269H6.07418V7.83157H1.2844V23.269Z" fill="white"/>
</svg>
