<svg xmlns="http://www.w3.org/2000/svg" xmlns:xlink="http://www.w3.org/1999/xlink" version="1.1" x="0px" y="0px" viewBox="0 0 100 125" enable-background="new 0 0 100 100" xml:space="preserve"><path d="M50,53c-0.6,0-1-0.4-1-1v-8c0-0.6,0.4-1,1-1c0.6,0,1,0.4,1,1v8C51,52.6,50.6,53,50,53z M48,57c0,1.1,0.9,2,2,2  c1.1,0,2-0.9,2-2s-0.9-2-2-2C48.9,55,48,55.9,48,57z M51.3,34.1l2.4-2.4c0.399-0.4,0.399-1,0-1.4c-0.4-0.4-1-0.4-1.4,0l-4,4  c-0.4,0.4-0.4,1,0,1.4l4,4c0.389,0.388,0.999,0.401,1.4,0c0.399-0.4,0.399-1,0-1.4l-2.2-2.2C59.1,36.8,65,43.2,65,51  c0,8.3-6.7,15-15,15s-15-6.7-15-15c0-4,1.6-7.8,4.4-10.6c0.4-0.4,0.4-1,0-1.4s-1-0.4-1.4,0c-3.2,3.2-5,7.5-5,12c0,9.4,7.6,17,17,17  c9.4,0,17-7.6,17-17C67,42.1,60.1,34.8,51.3,34.1z"/><text x="0" y="115" fill="#000000" font-size="5px" font-weight="bold" font-family="'Helvetica Neue', Helvetica, Arial-Unicode, Arial, Sans-serif">Error al cargar la imagen</text><text x="0" y="120" fill="#000000" font-size="5px" font-weight="bold" font-family="'Helvetica Neue', Helvetica, Arial-Unicode, Arial, Sans-serif">from Leading</text></svg>