<svg width="108" height="109" viewBox="0 0 108 109" fill="none" xmlns="http://www.w3.org/2000/svg">
<path fill-rule="evenodd" clip-rule="evenodd" d="M93.3929 43.7113C93.479 43.8887 93.807 43.9425 94.0221 43.9801C95.7751 44.292 103.373 44.4533 104.105 43.8242C104.745 43.2865 104.39 34.4998 103.766 34.1449C102.959 33.6664 94.1619 33.5749 93.5489 34.0643C93.1025 34.4353 92.8229 42.4691 93.3929 43.7113ZM93.6833 34.1772C94.1726 33.7685 102.766 34.075 103.54 34.4515C103.954 35.5592 104.223 42.5175 103.82 43.5069C103.164 43.9586 95.1244 43.9425 93.7209 43.5069C93.1725 42.1895 93.3768 34.4353 93.6833 34.1772ZM72.0071 33.2362C71.7939 33.601 71.506 33.9165 71.1621 34.1621C70.8183 34.4077 70.4264 34.5778 70.0122 34.6612C69.9994 34.6579 69.9862 34.6576 69.9733 34.6603C69.9605 34.6629 69.9484 34.6685 69.938 34.6766C69.9277 34.6846 69.9193 34.6949 69.9135 34.7067C69.9078 34.7185 69.9048 34.7314 69.9048 34.7445C69.9048 34.7576 69.9078 34.7706 69.9135 34.7824C69.9193 34.7941 69.9277 34.8044 69.938 34.8125C69.9484 34.8205 69.9605 34.8261 69.9733 34.8288C69.9862 34.8314 69.9994 34.8311 70.0122 34.8279C70.9586 35.0752 72.19 34.2148 72.19 33.2684C72.1943 33.2442 72.1887 33.2192 72.1746 33.1991C72.1605 33.1789 72.1389 33.1652 72.1147 33.1609C72.0904 33.1566 72.0655 33.1621 72.0453 33.1763C72.0252 33.1904 72.0114 33.2119 72.0071 33.2362ZM67.6138 28.4234V28.9612C67.6138 29.0325 67.6422 29.1009 67.6926 29.1513C67.743 29.2017 67.8114 29.23 67.8827 29.23C67.9536 29.2287 68.0212 29.1999 68.0713 29.1498C68.1214 29.0996 68.1502 29.032 68.1516 28.9612V28.4234C68.1516 28.3521 68.1233 28.2837 68.0728 28.2333C68.0224 28.1829 67.954 28.1546 67.8827 28.1546C67.8114 28.1546 67.743 28.1829 67.6926 28.2333C67.6422 28.2837 67.6138 28.3521 67.6138 28.4234ZM72.9751 28.9343C72.9751 29.0056 73.0034 29.074 73.0538 29.1244C73.1043 29.1748 73.1726 29.2031 73.2439 29.2031C73.3153 29.2031 73.3836 29.1748 73.4341 29.1244C73.4845 29.074 73.5128 29.0056 73.5128 28.9343V28.2675C73.5128 28.1962 73.4845 28.1278 73.4341 28.0774C73.3836 28.0269 73.3153 27.9986 73.2439 27.9986C73.1726 27.9986 73.1043 28.0269 73.0538 28.0774C73.0034 28.1278 72.9751 28.1962 72.9751 28.2675C72.9536 28.4987 72.9751 28.7676 72.9751 28.9343Z" fill="black"/>
<path fill-rule="evenodd" clip-rule="evenodd" d="M104.153 67.8344C104.118 67.7744 104.068 67.7244 104.008 67.6892C103.545 67.4633 101.029 67.5762 100.507 67.5978C100.598 53.4929 93.1668 44.6956 82.3798 42.1736C80.4009 41.7111 80.3956 41.6789 80.3418 41.7111L79.9761 40.7056C81.0086 40.6733 81.8528 39.8774 82.7992 40.0388C83.5144 40.1571 83.8747 40.7916 84.5792 41.0605C85.7729 41.5122 87.897 40.8185 88.5476 39.6839C88.881 39.0924 88.5853 38.4793 88.795 38.0707C89.1714 37.7426 90.2415 37.2157 90.548 36.8339C91.1772 36.0488 91.2041 34.2904 90.9191 33.3386C90.4046 32.2615 89.7037 31.2839 88.8488 30.4509C87.9188 29.5548 87.0943 28.5553 86.3913 27.4719C85.5256 25.7457 85.4933 23.3582 84.7781 21.5568C83.9898 19.9303 82.7695 18.5518 81.2506 17.5721C79.767 16.5242 77.9784 15.9967 76.1636 16.0719C74.4697 16.1794 73.8083 16.9 73.0178 17.1473C72.2274 17.3947 72.0607 17.1473 70.7755 17.712C70.2652 18.0229 69.8107 18.4173 69.4311 18.8788C69.2698 19.0509 69.2806 19.0617 69.0063 19.0724C68.711 19.0502 68.4144 19.0502 68.119 19.0724C67.6155 19.1842 67.134 19.3786 66.694 19.6478C63.6989 21.4439 64.5055 25.0574 63.3762 27.7139C62.6073 29.5206 60.4671 31.2575 60.2842 33.145C60.2194 34.0128 60.4061 34.881 60.822 35.6455C62.1287 37.9416 64.0054 36.1402 64.9787 37.5437C65.2852 37.9846 65.5164 38.4148 66.0864 38.5008C66.8124 38.5976 67.8018 38.0223 68.3933 37.5974C68.5176 37.7424 68.6584 37.8723 68.8127 37.9846C69.3369 38.338 69.8998 38.6303 70.4905 38.8557L69.1246 40.7647C66.565 40.4743 62.6341 41.3024 60.1014 42.0822C60.01 41.4369 59.2141 36.1079 58.6119 35.8498C57.7784 35.4841 49.0294 36.5005 48.4971 37.0758C48.1045 37.4953 48.8089 45.4807 49.5725 46.6744C49.6854 46.8573 50.0726 46.8626 50.2877 46.868C49.0294 47.7284 47.8141 48.5995 47.3786 48.9168C47.0398 47.7445 45.2599 41.5444 44.6038 40.5281C44.4156 40.2324 44.2436 40.2377 43.3778 40.5281C42.8843 38.0659 42.2597 35.6319 41.5065 33.2364C41.7889 32.7721 42.0146 32.2757 42.1786 31.7576C42.3791 30.9371 42.4083 30.0841 42.2647 29.2518C42.9207 29.4723 46.8408 30.5477 47.4754 30.2358C47.6458 30.1142 47.7722 29.9407 47.8356 29.7411C48.5293 28.2247 49.7177 23.0463 49.8091 21.4062C49.8468 21.1962 49.8107 20.9796 49.707 20.7932C49.0778 20.1372 40.6138 17.7012 39.8986 18.0238C39.4631 18.2228 38.2854 22.0891 38.1618 22.5462C37.1347 25.9931 37.6563 25.2349 37.0863 25.4339C36.4302 25.6651 35.8656 27.0471 35.6344 27.687C35.4032 28.3269 35.1612 29.1873 35.4354 29.6927C35.3241 29.8983 35.2793 30.1334 35.3072 30.3655C35.3351 30.5976 35.4344 30.8154 35.5914 30.9887C35.4204 31.1793 35.3089 31.4158 35.2707 31.669C35.2325 31.9222 35.2692 32.1811 35.3763 32.4137C35.5322 32.903 36.5055 33.2257 36.9895 33.3655C36.6074 34.3952 36.2895 35.4476 36.0377 36.5166C35.6088 38.1755 35.2659 39.8555 35.0106 41.5498C34.8516 42.3732 34.7991 43.2136 34.8547 44.0503L33.9728 44.4482C33.9389 44.4638 33.9102 44.4888 33.8901 44.5203C33.8701 44.5517 33.8596 44.5883 33.8599 44.6257C33.8599 44.6257 34.0266 51.143 36.1721 56.558C38.764 63.113 43.0283 65.307 49.5187 62.8549C49.5773 63.3695 49.7038 63.874 49.8952 64.3552C49.992 64.5273 50.32 64.5595 50.5404 64.5811C52.4495 64.6436 54.3605 64.5843 56.262 64.4036L57.8752 74.6206C57.4396 75.8789 52.4978 90.2149 52.5677 91.5485C52.5677 91.6883 52.6215 91.7959 52.8527 91.9034C54.2777 92.5648 67.7803 94.3286 68.2911 92.8552C68.4202 92.4949 68.7321 90.1988 68.7912 89.7632L76.3894 88.9244L83.6327 89.403C83.7108 90.1282 83.8401 90.847 84.0199 91.5539C84.0844 91.7152 84.1597 91.8013 84.3479 91.7851C85.0631 91.7152 88.8757 91.0269 89.9296 90.828C93.9734 90.0644 93.882 89.9998 93.7637 89.6019C93.4787 88.6609 90.833 81.3208 89.8006 77.8954C91.3109 78.0566 92.8341 78.0566 94.3444 77.8954C94.3608 77.9536 94.3915 78.0068 94.4338 78.05C94.4761 78.0933 94.5286 78.1251 94.5864 78.1428C95.5705 78.503 104.362 78.003 105.083 77.2824C105.734 76.707 104.642 68.6517 104.153 67.8344ZM39.9094 18.2551C39.9686 18.1637 39.947 18.126 40.4202 18.1959C42.3937 18.4755 48.8466 20.5566 49.4058 21.0459C49.5134 22.2773 47.9163 29.0367 47.2871 29.854C46.8301 30.01 43.7972 29.2357 43.3294 29.112C39.7696 28.1817 39.9094 28.0365 39.0974 27.8483C38.678 27.7031 38.635 27.6977 38.6457 27.6386C38.6471 27.6253 38.6533 27.6129 38.6633 27.604C38.6732 27.595 38.6861 27.5901 38.6995 27.5902C39.1835 27.5902 40.4794 27.5525 40.7967 27.1761C40.8667 27.0996 40.919 27.0085 40.9497 26.9094C40.9805 26.8103 40.989 26.7057 40.9746 26.6029C40.9602 26.5002 40.9233 26.4019 40.8665 26.3151C40.8097 26.2282 40.7345 26.155 40.6461 26.1006C39.955 25.8238 39.2327 25.6323 38.4952 25.5306C38.2747 25.4876 38.0058 25.4123 37.7369 25.3801C38.108 23.7023 39.334 19.1477 39.9094 18.2551ZM35.2902 43.8728V43.0393C35.3386 42.0176 35.828 39.3343 35.9732 38.5976C36.2098 37.4039 36.2636 37.135 36.9519 34.5431C36.9519 34.4732 37.3659 33.3171 37.3659 33.3171C37.3733 33.297 37.3764 33.2756 37.3749 33.2542C37.3734 33.2329 37.3673 33.2121 37.3571 33.1933C37.347 33.1744 37.3329 33.158 37.3159 33.145C37.2988 33.1321 37.2792 33.1229 37.2584 33.1181C37.1992 33.1181 35.8011 32.774 35.6452 32.3276C35.4892 31.8813 35.4569 31.3436 35.8495 31.107C35.8639 31.0965 35.8757 31.0828 35.8838 31.0669C35.8919 31.051 35.8961 31.0334 35.8961 31.0156C35.8961 30.9977 35.8919 30.9801 35.8838 30.9642C35.8757 30.9484 35.8639 30.9346 35.8495 30.9241C35.6776 30.7831 35.562 30.5851 35.5235 30.3661C35.4851 30.1471 35.5263 29.9216 35.6398 29.7304C35.7635 29.4776 35.102 29.6013 35.8871 27.7891C36.0861 27.3428 36.7583 25.9716 37.2153 25.821C37.6201 25.7815 38.0286 25.8273 38.4145 25.9555C39.0885 26.0616 39.751 26.2308 40.3934 26.4609C40.4342 26.4829 40.4694 26.514 40.4963 26.5518C40.5232 26.5896 40.5409 26.6331 40.5482 26.6789C40.5555 26.7247 40.5521 26.7716 40.5383 26.8158C40.5245 26.8601 40.5007 26.9006 40.4686 26.9341C40.2324 27.068 39.9736 27.1573 39.7051 27.1976C38.0112 27.531 38.3123 27.16 38.0919 27.7354C37.4448 27.6974 36.7979 27.8135 36.2044 28.0741C35.9732 28.1225 36.07 28.2731 36.2367 28.2462C36.9571 28.0101 37.7277 27.9711 38.4683 28.1333C38.898 28.2118 39.318 28.3362 39.7212 28.5043C40.0868 28.6529 40.4114 28.8871 40.6676 29.1873C40.7134 29.301 40.7304 29.4243 40.7173 29.5462C40.7042 29.6681 40.6612 29.7849 40.5923 29.8863C40.4633 30.0853 39.8395 29.9508 39.6029 29.8863C39.2803 29.7895 38.9415 29.7089 38.6242 29.6067C38.1779 29.4669 38.2263 29.4292 38.0865 29.44C37.5933 29.5099 37.1109 29.6418 36.6507 29.8325C36.6377 29.834 36.6252 29.8385 36.6142 29.8455C36.6031 29.8526 36.5938 29.8621 36.587 29.8733C36.5802 29.8844 36.576 29.897 36.5748 29.9101C36.5736 29.9231 36.5754 29.9363 36.5801 29.9485C36.5847 29.9608 36.5921 29.9718 36.6016 29.9808C36.6112 29.9897 36.6227 29.9964 36.6352 30.0002C36.6477 30.0041 36.661 30.005 36.6739 30.003C36.6868 30.001 36.6991 29.996 36.7099 29.9885C37.1217 29.8724 37.5426 29.7914 37.9682 29.7465C38.2102 29.7465 38.0542 29.7465 38.6619 29.9885C38.9361 30.0906 39.1996 30.1713 39.49 30.2681C39.6768 30.3321 39.8695 30.3772 40.0653 30.4025C40.4095 30.7252 40.6569 31.478 40.1944 31.6124C40.0127 31.6438 39.8258 31.6213 39.6567 31.5479C38.4252 31.1446 39.2587 30.8542 36.5862 31.4027C36.5643 31.4054 36.5443 31.4164 36.5303 31.4334C36.5163 31.4504 36.5094 31.4722 36.5109 31.4941C36.5109 31.634 36.6023 31.5479 38.0811 31.4941C38.2599 31.4762 38.44 31.4762 38.6188 31.4941C39.0813 31.7307 39.7696 32.134 40.3019 31.9781C40.9526 31.7684 40.9311 31.0478 40.5117 30.5208C40.3611 30.338 40.345 30.3918 40.474 30.3703C40.5684 30.36 40.6596 30.3304 40.742 30.2832C40.8243 30.236 40.8961 30.1723 40.9526 30.096C41.0799 29.9204 41.1512 29.7103 41.1569 29.4934C41.1627 29.2765 41.1027 29.0629 40.9849 28.8807L41.8883 29.1496C42.0671 29.9825 42.0524 30.8453 41.8453 31.6716C41.7876 31.8733 41.712 32.0695 41.6194 32.2577C41.2269 33.0858 41.0817 33.1127 41.1301 33.2687C41.8773 35.6984 42.493 38.1666 42.9745 40.6625C40.9472 41.3724 37.2315 43.0071 35.2902 43.8728ZM77.8413 81.2401C80.1428 81.3369 85.09 81.5144 87.3592 81.4445C87.2033 82.122 87.1065 82.5522 87.0796 82.649C85.9988 82.649 79.0136 81.4391 77.8413 81.2401ZM88.2304 80.9659C86.7892 81.3046 68.0814 80.5733 66.479 79.8904C66.6456 78.6859 68.2158 71.9158 68.5331 70.5338C69.9445 70.9658 71.4128 71.1834 72.8888 71.1791C73.4265 71.4587 74.3138 71.9427 74.8461 72.1954C74.787 72.6525 74.6418 73.7333 74.9644 74.056C75.2871 74.3786 82.7132 77.1049 89.2252 77.8685C88.9625 78.9218 88.6302 79.9566 88.2304 80.9659ZM68.361 68.0226C68.1134 67.9474 67.8844 67.821 67.6889 67.6515C67.549 67.501 67.5974 67.0439 67.6889 66.8288C67.7389 66.7243 67.8276 66.6433 67.9362 66.6029C68.0675 66.5459 68.2075 66.5113 68.3503 66.5008C68.393 66.4998 68.4344 66.4858 68.4689 66.4606C68.5034 66.4355 68.5294 66.4004 68.5435 66.36C68.5575 66.3197 68.5589 66.276 68.5474 66.2348C68.536 66.1937 68.5122 66.157 68.4793 66.1297C68.1648 65.8647 67.9457 65.504 67.8556 65.1027C67.8556 64.8069 67.9685 64.5004 68.4417 64.2315C68.9794 64.2745 70.5926 65.6081 71.3401 64.8392C72.0875 64.0702 71.2057 62.2688 72.0391 62.1182C72.8726 61.9677 73.2921 64.4735 73.4373 64.7477C73.9212 65.6888 75.2225 66.361 75.9646 67.1353C75.5165 68.7382 75.1575 70.3646 74.8891 72.0072C73.8137 71.4318 73.0178 70.9317 72.9372 70.9317C71.8133 70.8941 68.7966 70.5822 68.0115 69.781C67.8719 69.6731 67.7763 69.5181 67.7427 69.3449C67.709 69.1717 67.7396 68.9922 67.8287 68.8399C67.8859 68.7389 67.963 68.6505 68.0555 68.5802C68.1479 68.51 68.2537 68.4593 68.3664 68.4312C68.4125 68.42 68.4534 68.3934 68.4824 68.3559C68.5115 68.3184 68.5269 68.2722 68.5263 68.2248C68.5257 68.1773 68.509 68.1315 68.479 68.0948C68.449 68.0581 68.4074 68.0326 68.361 68.0226ZM74.3514 50.1159C73.3524 50.0204 72.3489 49.9809 71.3455 49.9976C71.2164 49.9976 71.1089 50.0622 71.0712 50.1858C70.9798 50.53 69.458 61.7149 69.3827 62.2634C69.0601 56.886 68.7267 51.2237 68.4793 47.0724C70.3507 50.0568 70.512 50.3526 70.8077 50.1428C71.8049 49.3228 72.7479 48.4391 73.6308 47.4972C73.7922 48.0941 74.0503 49.0674 74.3514 50.1159ZM79.2717 48.2285C78.906 47.6908 78.5458 47.153 78.4113 46.9541L80.1482 42.5823L79.2717 48.2285ZM80.5246 42.0553C82.5585 42.4747 84.5416 43.1111 86.4397 43.9535C86.3591 44.2062 85.3212 47.3789 84.0791 51.1645C83.5091 51.0946 80.245 50.6967 79.2394 50.5892L80.5246 42.0553ZM78.3253 47.5509L79.1749 48.8308L78.906 50.5515L78.0725 50.444C78.1962 49.2771 78.2823 48.1693 78.3253 47.5509ZM93.1722 53.2241C93.1654 53.9242 93.0971 54.6224 92.9678 55.3105C91.1234 54.8373 75.0343 50.8795 73.3996 51.8098C72.5823 52.283 69.8936 63.3174 69.6355 64.3122L69.4419 64.2154C70.2915 58.2411 71.4207 50.4063 71.4207 50.3848C73.2544 50.1751 90.9191 52.1755 93.1722 53.2241ZM83.7887 64.4681C82.5842 64.3875 77.8037 64.1509 76.7981 64.8177C76.6422 64.9252 76.5776 64.9467 76.0238 66.9363C75.3086 66.1781 74.1094 65.4629 73.7061 64.6187C73.5233 64.2477 73.2275 61.5375 71.9746 61.7472C70.2861 62.0322 72.4424 65.5113 69.9473 64.4359C70.1087 63.7529 72.7543 52.3637 73.491 51.9443C75.0505 51.057 92.0591 55.3858 94.21 55.9934C94.0863 57.3055 92.5054 64.3068 92.215 65.5866C89.4302 65.0515 86.6167 64.6781 83.7887 64.4681ZM75.5075 26.8535C75.8087 27.0578 75.7979 27.5472 75.7441 27.9021C75.3677 30.3057 72.9587 31.763 71.2863 29.4615C70.9045 28.9238 70.6088 27.2138 70.8669 26.8373C71.039 26.6169 72.4263 26.6061 72.7059 26.6061C73.2222 26.6115 75.2387 26.6922 75.486 26.8535H75.5075ZM69.1031 27.2406C69.1031 28.2516 68.7643 29.9293 67.8663 30.4133C66.4198 31.1661 64.9518 29.9723 64.9141 28.4183C64.859 27.8509 64.8862 27.2786 64.9948 26.719L65.0486 26.6922C64.9625 26.5416 68.7428 26.4932 69.0816 26.832C69.0931 26.968 69.0931 27.1047 69.0816 27.2406H69.1031ZM70.9744 38.9472C71.9047 39.216 73.405 39.087 74.1256 38.3503C74.1407 38.3343 74.1491 38.3131 74.1491 38.2911C74.1491 38.2691 74.1407 38.248 74.1256 38.232C74.0019 38.0814 74.1256 38.3718 72.7274 38.5815C71.3293 38.7912 70.4851 38.5815 69.0708 37.662C68.4208 37.0648 67.934 36.3114 67.6566 35.4734C67.0776 34.0551 66.715 32.5578 66.5811 31.0317C67.0872 31.1146 67.6066 31.0296 68.0599 30.7897C68.5 30.5324 68.8408 30.1347 69.0278 29.6605C68.8464 30.2287 68.6974 30.8068 68.5815 31.392C68.5563 31.4669 68.5526 31.5473 68.5706 31.6243C68.5886 31.7012 68.6278 31.7716 68.6837 31.8275C69.0555 32.0548 69.4933 32.1496 69.9258 32.0964C69.9385 32.0997 69.9518 32.1 69.9647 32.0973C69.9775 32.0946 69.9896 32.0891 69.9999 32.081C70.0103 32.073 70.0187 32.0627 70.0245 32.0509C70.0302 32.0391 70.0332 32.0262 70.0332 32.0131C70.0332 31.9999 70.0302 31.987 70.0245 31.9752C70.0187 31.9634 70.0103 31.9531 69.9999 31.9451C69.9896 31.937 69.9775 31.9315 69.9647 31.9288C69.9518 31.9261 69.9385 31.9265 69.9258 31.9297C69.6068 31.8942 69.299 31.7916 69.0224 31.6286C68.8988 31.5425 68.9525 31.5963 68.9902 31.4189C69.0278 31.2414 69.7269 28.6764 69.7645 28.5151C69.9312 28.5151 70.5657 28.429 70.5657 28.2731C70.5657 28.1172 70.0603 28.0741 69.8721 28.0849C69.8721 28.015 69.9043 27.9558 69.9205 27.9021C69.929 27.8807 69.9287 27.8568 69.9197 27.8356C69.9106 27.8144 69.8935 27.7977 69.8721 27.7891C69.8507 27.7806 69.8268 27.7809 69.8056 27.7899C69.7844 27.799 69.7677 27.8161 69.7591 27.8375C69.5709 28.2032 69.7 28.0688 69.4473 28.1333C69.5443 27.6361 69.5443 27.1248 69.4473 26.6276C69.1407 26.1544 67.2963 26.262 66.694 26.2996C67.0006 24.4982 68.1943 23.6109 68.9257 22.1698C69.1306 21.8353 69.4035 21.5476 69.7269 21.3255C69.8882 21.2825 70.2055 21.6858 70.3991 21.7826C70.5926 21.8794 70.7755 22.4118 70.9368 22.5946C71.444 23.1722 72.0285 23.677 72.6737 24.0949C73.2114 24.4767 74.0503 24.5358 74.4159 25.0252C74.5704 25.4413 74.6452 25.8827 74.6364 26.3265C73.9427 26.2835 71.0497 26.2405 70.7056 26.7352C70.3937 27.1331 70.5281 28.9506 70.9852 29.6497C72.1359 31.392 73.9051 31.4995 75.2871 29.9293C75.4357 29.744 75.562 29.5418 75.6635 29.3271C76.6959 30.9403 77.5079 31.9028 77.5456 33.7957C77.5886 36.194 76.911 40.1678 79.5083 40.6679L79.9546 41.8993C77.8037 47.309 77.9166 46.9702 77.9166 47.024C77.9166 47.0777 77.8144 48.6372 77.6262 50.4225C76.5938 50.3149 75.6312 50.2235 74.7762 50.1536C74.7117 49.9331 73.9105 47.0831 73.9266 47.024C74.0073 46.7551 73.604 46.2281 73.2921 45.7603C72.1225 44.0669 70.8454 42.4504 69.4688 40.9207L70.9744 38.9472ZM69.0816 41.0658C69.173 41.2057 73.0447 45.4645 73.5179 47.0293C72.648 47.9937 71.708 48.8923 70.7056 49.718C70.3453 49.2448 69.372 47.6854 68.4471 46.2281C68.2804 43.4158 68.1674 41.4584 68.1406 41.0497C68.4417 41.0282 68.7805 41.0443 69.0601 41.0658H69.0816ZM49.879 46.4432C49.266 45.3677 48.4164 38.3772 48.6153 37.3017C48.6153 37.2049 48.6154 37.1726 49.067 37.049C50.9921 36.5489 57.7461 35.9735 58.4559 36.2155C58.9937 37.264 60.1713 44.1094 59.8917 45.1634C59.3432 45.6043 51.46 46.7175 49.8575 46.4432H49.879ZM50.2554 64.1347C49.6371 62.9194 49.18 55.1277 49.4865 54.8319C49.9436 54.391 58.5258 54.0145 59.3378 54.3318C59.8755 55.461 60.6391 62.3978 60.3219 63.3389C59.5906 63.8874 51.5245 64.4251 50.2339 64.1347H50.2554ZM62.532 55.1223C62.9191 55.0201 65.6186 54.3318 65.9412 54.1382C66.1724 54.0038 66.4359 54.4393 61.9136 42.0284C62.4513 41.5337 67.1511 40.8991 67.8932 41.1304C67.8932 41.4261 68.5976 53.9769 69.1515 64.0487C68.888 63.9196 68.5062 63.7207 68.2642 63.8551C67.2533 64.3928 67.1888 65.2855 67.9362 66.1566C67.7966 66.1908 67.667 66.2573 67.5577 66.3507C67.4485 66.4441 67.3626 66.5618 67.3071 66.6944C67.2209 66.8962 67.1842 67.1157 67.2001 67.3346C67.216 67.5535 67.284 67.7654 67.3985 67.9527C67.5239 68.0727 67.6672 68.1725 67.8233 68.2484C67.6626 68.3561 67.5358 68.5071 67.4576 68.684C67.3871 68.8364 67.3452 69.0004 67.334 69.1679L62.532 55.1223ZM75.9162 88.5856L68.8934 89.3653C68.9257 89.1072 69.7161 82.8748 69.9689 80.7615C71.4315 80.8906 73.1953 81.0035 75.0827 81.1057C75.3946 84.9828 75.9431 87.6607 75.8947 88.5856H75.9162ZM76.2873 88.5426C76.3625 87.3165 75.3516 81.1702 75.3462 81.1164L75.884 81.1433C77.7123 81.4821 82.4228 82.3156 82.9337 82.4016C83.1058 84.1331 83.5359 88.1662 83.6381 88.9943C75.6205 88.4781 76.4862 88.5211 76.2604 88.5426H76.2873ZM104.82 77.035C104.282 77.4652 96.3825 78.1858 94.7531 77.8309C94.124 76.6102 93.6777 68.8238 93.9842 68.528C94.4466 68.0817 103.029 67.7161 103.83 68.0279C104.336 69.1518 105.115 76.1155 104.798 77.035H104.82Z" fill="black"/>
<path fill-rule="evenodd" clip-rule="evenodd" d="M50.2657 73.0826C50.2227 72.8891 50.1635 72.6094 50.0076 72.5449C49.4698 72.2223 45.9261 72.1577 45.297 72.147C45.1572 69.582 44.9098 66.619 44.5065 65.8232C44.243 65.2855 26.8634 65.2317 26.2665 65.2263C26.3095 62.3333 26.3149 57.9239 26.2665 55.0093C27.0247 55.0093 30.8104 55.0093 31.332 54.5791C31.9988 54.0414 31.5525 46.8626 31.2513 45.4376C31.2083 45.244 31.1438 44.9644 30.9932 44.8999C30.2081 44.4321 21.4 44.3191 20.7762 44.8192C20.4482 45.0935 20.3245 48.4543 20.3084 48.8791C19.077 48.8791 11.4626 48.7232 8.74168 48.7877V44.3944C9.44611 44.3944 13.5813 44.5073 14.119 44.0556C14.7697 43.5179 14.5546 34.7313 13.9362 34.3764C13.3178 34.0215 9.45687 33.9086 8.79008 33.8924C8.79008 33.1288 8.73092 31.2037 8.72555 31.1554C11.2153 31.0639 17.7757 31.2737 20.4805 31.2737C20.4805 32.1179 20.4321 35.1238 20.787 35.8928C20.873 36.0756 21.201 36.1294 21.4161 36.167C23.1261 36.4682 30.7512 36.6456 31.4987 36.0111C32.2461 35.3766 31.7245 27.3374 31.289 26.4717C31.2601 26.4094 31.2156 26.3557 31.1599 26.3157C30.3479 25.8371 21.5506 25.778 20.9429 26.2351C20.5934 26.5308 20.4751 30.381 20.4643 30.8435C17.7165 30.8435 11.2529 30.6337 8.69328 30.7252C8.69328 29.6873 8.63951 28.6387 8.63951 27.6063C9.4031 27.6063 14.0169 27.5364 14.5923 27.0309C15.1676 26.5254 14.5923 18.3787 14.1298 17.4969C14.101 17.4344 14.0542 17.3819 13.9954 17.3463C13.178 16.8892 4.38064 17.029 3.77837 17.5345C3.3213 17.9324 3.24064 25.9716 3.85366 27.2137C3.89589 27.2831 3.96032 27.3362 4.03649 27.3643C4.64951 27.6224 7.51026 27.6278 8.18243 27.6278C8.18243 30.0315 8.28998 31.9835 8.31149 33.9032C7.77375 33.9032 4.10639 33.8225 3.69771 34.1505C3.28903 34.4786 2.79432 42.5123 3.36432 43.8298C3.44498 44.0072 3.773 44.0718 3.98809 44.1094C5.41322 44.3152 6.8502 44.4284 8.28998 44.4482V52.3852C7.77913 52.3852 4.27847 52.3206 3.88592 52.6379C3.49337 52.9552 2.97715 60.9997 3.54715 62.3172C3.62781 62.5 3.95583 62.5591 4.17092 62.6022C5.91319 62.9356 13.506 63.2259 14.2535 62.6022C15.0009 61.9784 14.6138 53.9177 14.2051 53.0627C14.176 52.9991 14.1317 52.9437 14.076 52.9014C13.4899 52.5465 9.41385 52.4282 8.69866 52.4121V49.3039C11.4841 49.234 18.7866 49.39 20.26 49.3954C20.26 50.3041 20.174 53.7295 20.5611 54.563C20.5963 54.6352 20.6579 54.6911 20.7332 54.7189C21.4269 55.0362 25.0351 55.1007 25.7718 55.1061C25.8417 58.0314 25.8363 62.4516 25.7718 65.3231C18.5446 65.2855 11.0486 65.3607 9.53753 65.6673C9.37621 65.6995 9.11272 65.7533 9.10196 65.9791C9.10196 65.9791 8.81158 70.6252 8.67715 72.2223C8.19857 72.2223 5.05281 72.2223 4.68715 72.5449C4.32149 72.8675 3.91819 80.9228 4.5097 82.2242C4.59036 82.4016 4.91837 82.4608 5.13347 82.4984C6.84885 82.7995 14.4686 82.977 15.216 82.3425C15.9635 81.7079 15.4365 73.6526 15.0063 72.803C15.0279 72.7516 15.0348 72.6953 15.0262 72.6402C15.0177 72.5852 14.994 72.5336 14.9579 72.4911C14.3395 72.1201 9.9247 72.0878 9.19338 72.0825C9.32244 70.4692 9.60206 65.9791 9.60206 65.9791C11.4411 65.4414 42.0329 65.5059 44.1731 66.049C44.5011 66.8341 44.7109 69.5282 44.8829 72.104C44.3452 72.104 40.2584 72.0717 39.8336 72.4266C39.4088 72.7815 39.0861 80.8529 39.6561 82.1059C39.6939 82.1781 39.7571 82.2337 39.8336 82.2618C40.7854 82.692 49.5881 82.8856 50.3625 82.2242C50.4956 82.063 50.5729 81.863 50.5829 81.6542C50.8357 80.0194 50.6152 74.6959 50.2657 73.0826ZM21.0558 26.2996C21.5344 25.9017 30.1167 26.1867 30.9125 26.5738C31.1123 27.4226 31.2275 28.2889 31.2567 29.1603C27.8098 28.8108 23.153 29.0797 20.7762 29.1603C20.787 28.8377 20.873 26.4286 21.0558 26.2835V26.2996ZM20.7708 29.4561C24.6856 29.5798 29.3316 29.3754 31.2728 29.397C31.332 30.3487 31.5417 34.8066 31.1922 35.6293C30.7942 35.9036 27.6592 35.952 27.1807 35.9573C26.0245 35.9573 22.212 35.9573 21.0935 35.6347C20.7063 34.6937 20.744 30.5154 20.7708 29.44V29.4561ZM3.91819 17.5775C4.39677 17.1581 12.9952 17.2387 13.7803 17.5775C13.9567 18.1769 14.0685 18.7934 14.1137 19.4166C10.64 19.3141 7.16377 19.494 3.71922 19.9543C3.7246 19.7607 3.76224 17.7173 3.91819 17.5775ZM4.20319 26.9072C3.76762 25.9339 3.70847 21.4062 3.71922 20.1371C4.17092 20.0834 13.9362 19.5994 14.1352 19.5994C14.2535 20.6749 14.6729 25.692 14.2965 26.633C13.5759 27.1546 5.483 27.2568 4.20319 26.9072ZM3.83215 34.1828C4.32149 33.7903 12.8984 34.2151 13.6889 34.613C13.8647 35.4154 13.962 36.233 13.9792 37.0543C14.033 37.0543 6.37564 36.7532 3.52026 36.8446C3.53639 36.5273 3.66545 34.3119 3.83215 34.1828ZM13.9685 62.1451C13.377 62.5323 5.44536 62.4839 3.87517 61.9838C3.488 61.0212 3.6063 56.6064 3.66007 55.4825C3.71385 55.4825 11.0647 56.0525 14.1406 55.6923C14.1943 56.6763 14.3395 61.3062 13.9685 62.1397V62.1451ZM13.8394 53.0789C14.0145 53.8833 14.1135 54.7025 14.1352 55.5256C14.1889 55.5256 6.54772 55.2244 3.67083 55.3105C3.69479 54.446 3.78649 53.5848 3.94507 52.7347C3.98271 52.6272 3.94507 52.6056 4.42903 52.5519C6.35413 52.3368 13.1511 52.7293 13.8394 53.0735V53.0789ZM3.71922 43.5125C3.33743 42.55 3.45573 38.1674 3.50951 37.0167C3.57403 37.0167 10.9034 37.5867 13.99 37.2264C14.0438 38.2158 14.1943 42.8188 13.8179 43.6792C13.092 44.1524 5.01517 43.9266 3.71922 43.5125ZM15.0762 75.5885C15.1407 76.5887 15.3451 81.0358 14.9956 81.88C14.4256 82.2779 6.46168 82.3586 4.89687 81.88C4.5097 80.9443 4.54734 76.7339 4.57422 75.61C8.04262 75.7444 11.1938 75.5885 15.0762 75.5885ZM14.7159 72.8245C14.9149 73.6717 15.0319 74.5361 15.0655 75.4057C11.6455 75.0615 6.82734 75.3358 4.5796 75.4379C4.5796 75.0991 4.68177 72.6955 4.85922 72.5503C5.34319 72.1524 13.9201 72.4374 14.7159 72.8245ZM20.873 44.8891C21.3677 44.4751 29.95 44.787 30.7297 45.1634C30.9342 46.0461 31.0531 46.9465 31.0846 47.8521C28.7508 47.7284 22.9433 47.3573 20.5988 47.6477C20.6257 47.3412 20.7171 45.0343 20.873 44.8891ZM20.9268 54.2081C20.5342 53.2671 20.5773 48.9652 20.6095 47.8413C21.3677 47.766 26.8526 48.1102 29.4015 48.0887C30.0522 48.0887 30.6383 48.0618 31.1115 48.0456C31.1707 49.0028 31.3696 53.3746 31.0255 54.2027C30.321 54.7028 22.2335 54.6222 20.9268 54.2081ZM39.925 72.5503C40.409 72.1524 48.9859 72.4374 49.7871 72.8245C49.9842 73.6737 50.0994 74.5398 50.1312 75.411C46.7435 75.0669 41.8393 75.3411 39.6508 75.411C39.6561 75.126 39.7476 72.7116 39.925 72.5664V72.5503ZM50.0667 81.88C49.4806 82.2779 41.5167 82.3586 39.968 81.88C39.5755 80.9497 39.6131 76.7231 39.6454 75.6046C43.2644 75.7444 45.9799 75.6046 50.142 75.6046C50.2065 76.5941 50.4109 81.0573 50.0667 81.8961V81.88Z" fill="black"/>
</svg>
