<svg width="95" height="77" viewBox="0 0 95 77" fill="none" xmlns="http://www.w3.org/2000/svg">
<path d="M14.1006 58.9317V51.6296V43.2259C14.1006 41.185 14.3895 39.4042 11.9327 39.2642C9.47599 39.1241 8.30611 41.9053 4.09453 40.9449C1.8718 40.438 2.2871e-06 38.1837 0 35.5425C-3.95037e-06 30.9805 4.95124 28.228 9.70993 31.2206C14.1006 33.9818 14.1006 28.8195 14.1006 27.1388V15.875C14.1006 15.7307 14.2176 15.6137 14.3619 15.6137H30.7128C33.9885 15.8538 31.9997 19.5755 31.0638 21.8565C29.192 26.4185 31.7267 28.9796 33.5205 29.6599C39.8379 31.2206 41.3587 24.4976 39.2529 21.8565C36.3737 18.2452 37.1472 15.9739 38.551 15.9739H54.2973C54.449 15.9739 54.5691 16.1006 54.5619 16.2522C54.4732 18.1138 54.5783 23.0259 54.5783 27.8591C54.5783 34.1019 60.1937 32.061 60.1937 32.181C60.1937 32.3011 68.6081 29.9393 69.3187 36.5029C69.7867 40.8249 65.2242 43.586 60.1937 42.0253C56.1693 40.7767 55.5142 42.2655 55.5142 43.586V58.9317C55.5142 59.076 55.3972 59.1929 55.2529 59.1929H37.6449C37.5538 59.1929 37.4676 59.1432 37.4212 59.0647C35.2047 55.313 37.2472 53.6124 38.434 50.6692C39.8379 47.1877 38.3036 44.2882 35.9773 43.586C32.9356 42.6679 27.5542 44.3064 29.7769 50.6692C31.491 55.5757 31.4148 59.1929 28.6071 59.1929H14.3619C14.2176 59.1929 14.1006 59.076 14.1006 58.9317Z" fill="black"/>
<path d="M54.3018 16.5508H67.7738C69.4139 16.5508 72.4053 15.0561 71.4054 9.05649C70.3511 2.73007 75.3816 2.78273 77.4971 3.54992C78.5905 3.94083 80.4493 5.58941 79.1372 9.05649C77.4971 13.3904 78.5515 16.7889 81.9488 16.7889H93.871C94.0153 16.7889 94.1322 16.9059 94.1322 17.0502V58.3433C94.1322 58.4886 94.0189 58.606 93.8736 58.6047C92.112 58.5885 81.8929 58.5002 80.0744 58.6071C78.0829 58.7243 78.4285 60.8974 79.6058 63.6445C81.363 67.7447 79.5472 72.7477 73.6313 71.7278C70.2339 71.142 68.8282 67.5104 70.2339 63.6445C71.6397 59.7786 69.9996 58.6071 68.4767 58.6071C65.3826 58.6071 58.1445 58.5681 55.0596 58.6071" stroke="black" stroke-width="0.653162" stroke-linecap="round"/>
<path d="M57.6328 67.3031C58.3748 68.5917 59.9055 71.3799 60.0929 72.2233" stroke="black" stroke-width="0.653162" stroke-linecap="round"/>
<path d="M54.7045 68.006C54.314 69.0603 54.1187 72.1999 56.4617 76.3235" stroke="black" stroke-width="0.653162" stroke-linecap="round"/>
<path d="M50.2523 67.3031C48.7293 68.7089 45.6132 71.989 45.332 73.8634" stroke="black" stroke-width="0.653162" stroke-linecap="round"/>
<path d="M55.778 10.0204C57.3009 8.61467 60.4171 5.33451 60.6982 3.46013" stroke="black" stroke-width="0.653162" stroke-linecap="round"/>
<path d="M51.3268 9.31757C51.7173 8.26323 51.9125 5.12365 49.5696 1.00003" stroke="black" stroke-width="0.653162" stroke-linecap="round"/>
<path d="M48.3975 10.0204C47.6555 8.73181 46.1248 5.94368 45.9373 5.10021" stroke="black" stroke-width="0.653162" stroke-linecap="round"/>
</svg>
