<svg width="83" height="88" viewBox="0 0 83 88" fill="none" xmlns="http://www.w3.org/2000/svg">
<path d="M4.999 70.5166C5.83515 68.1557 5.48189 66.0616 4.99898 63.2005C4.39534 59.6241 3.38927 51.594 8.48668 46.4656C12.5646 42.3628 17.2059 40.2575 19.0169 39.7176" stroke="black" stroke-width="0.738001" stroke-linecap="round"/>
<path d="M15.2793 70.4183C15.5709 69.3967 18.4378 64.9549 18.0733 61.9584C17.9421 61.1058 18.0339 59.1449 19.844 58.1219" stroke="black" stroke-width="0.738001" stroke-linecap="round"/>
<path d="M13.6465 50.3506C15.0237 48.088 18.7618 45.137 21.7129 44.6451C24.664 44.1532 24.925 46.1595 24.5445 47.0113C23.9737 48.2889 22.7315 49.7011 20.2469 52.3908C17.7856 55.0556 16.4418 59.9895 16.2852 62.343" stroke="black" stroke-width="0.738001" stroke-linecap="round"/>
<path d="M62.4177 42.3883C60.5051 40.747 55.7486 37.842 52.0225 39.3529C51.685 39.4879 50.983 40.1219 50.875 41.5789" stroke="black" stroke-width="0.738001" stroke-linecap="round"/>
<path d="M58.4044 56.548C54.6663 52.318 52.5021 48.9734 52.994 44.7434C53.2681 42.3858 54.626 41.4135 55.8691 42.5907C57.5191 44.1532 58.7979 46.1206 60.5942 46.9077C60.9463 47.0716 62.0638 47.3994 63.7164 47.3994" stroke="black" stroke-width="0.738001" stroke-linecap="round"/>
<path d="M72.1379 65.9968C71.9579 65.2773 71.5844 62.9749 71.8004 61.1402C72.0704 58.8468 71.826 50.1903 68.0459 47.6945" stroke="black" stroke-width="0.738001" stroke-linecap="round"/>
<path d="M71.5869 43.1694L48.2888 41.4918C48.2559 41.4895 48.2213 41.493 48.1895 41.5017C44.6152 42.4813 46.166 44.4573 47.4177 45.4755C47.4623 45.5118 47.5164 45.5331 47.5736 45.5383L52.8964 46.0222" stroke="black" stroke-width="0.738001" stroke-linecap="round"/>
<path d="M71.4883 47.8913L63.7139 47.3817" stroke="black" stroke-width="0.738001" stroke-linecap="round"/>
<ellipse cx="71.4486" cy="45.5215" rx="2.06579" ry="2.85276" fill="black"/>
<path d="M68.8588 47.4563C67.3893 45.4431 68.5089 43.8419 69.3322 43.2271C69.3837 43.1886 69.4474 43.171 69.5116 43.174L71.9808 43.2888C72.1435 43.2963 72.2693 43.4341 72.262 43.5968L72.0846 47.5777C72.0771 47.7477 71.9278 47.8761 71.7586 47.8581L69.0614 47.5721C68.9811 47.5635 68.9065 47.5215 68.8588 47.4563Z" fill="black"/>
<path d="M44.3813 42.7963L45.8722 42.3233C46.0759 42.2586 46.2787 42.4252 46.2548 42.6377L46.1128 43.8992C46.089 44.1113 45.8548 44.2287 45.6705 44.121L44.3217 43.3326C44.1008 43.2035 44.1375 42.8737 44.3813 42.7963Z" fill="black"/>
<path d="M19.7624 45.0385L18.8203 19.0561C18.8202 15.2214 19.5336 8.72278 27.5011 8.83042C35.4686 8.93806 39.7933 8.87527 40.9597 8.83042" stroke="black" stroke-width="0.738001" stroke-linecap="round"/>
<path d="M50.1123 8.83047H63.5036C67.2047 8.89775 70.3675 10.5123 70.3675 16.7016C70.3675 22.8908 70.1844 35.8294 69.9152 42.5793" stroke="black" stroke-width="0.738001" stroke-linecap="round"/>
<path d="M58.7005 74.6481C53.1824 75.0517 38.4253 76.1271 29.5202 76.5083C25.7518 76.5083 20.7586 76.0239 20.1665 69.2427L19.7627 53.0296" stroke="black" stroke-width="0.738001" stroke-linecap="round"/>
<circle cx="45.4792" cy="5.77964" r="2.6805" stroke="black" stroke-width="0.738001"/>
<path d="M41.3065 7.44468C41.7892 8.84117 41.1053 9.86166 39.5632 10.1974C38.8256 10.3579 37.7931 10.3719 35.8084 11.0702C33.3275 11.943 32.8582 14.4271 32.7911 16.5756C32.7375 18.2943 33.7299 18.8583 35.4731 18.9254C40.5466 18.9031 51.4131 19.0597 54.3142 19.0597C57.3314 19.0597 57.7702 17.9183 57.8678 17.1798C58.3506 13.5275 57.0632 12.0633 55.9234 11.5401C55.387 11.294 53.818 10.6808 51.8333 10.1974C49.8486 9.71399 49.4912 9.05599 49.6877 8.11605C50.1705 5.80646 49.8889 3.93106 49.6877 3.28205C49.4642 2.38687 48.159 0.677059 44.726 0.999326C40.4348 1.40216 40.703 5.69906 41.3065 7.44468Z" stroke="black" stroke-width="0.738001" stroke-linecap="round"/>
<path d="M64.7997 42.0873L65.0553 17.1995C65.0553 16.6623 64.7509 15.722 63.5103 15.722C62.234 15.722 59.368 15.7668 58.0693 15.722" stroke="black" stroke-width="0.738001" stroke-linecap="round"/>
<path d="M32.4766 15.7221H26.2967C25.625 15.6549 24.3353 16.0445 24.5502 18.1398C24.7652 20.2352 25.8041 52.727 26.2967 68.711C26.2743 69.5169 26.6326 71.1019 28.2447 70.9945C29.4712 70.9127 48.5566 69.8379 59.9795 69.3362" stroke="black" stroke-width="0.738001" stroke-linecap="round"/>
<path d="M66.6688 42.3826L67.0227 17.6615C67.0227 16.9213 66.7003 15.8446 64.873 16.1137" stroke="black" stroke-width="0.738001" stroke-linecap="round"/>
<path d="M25.104 15.9118C24.4322 15.9118 22.8872 15.9118 22.9543 17.6614C23.0187 19.3429 23.626 36.5612 23.8276 44.5466" stroke="black" stroke-width="0.738001" stroke-linecap="round"/>
<path d="M23.8271 48.4142L24.4317 69.4096C24.4989 70.1498 24.7676 71.2265 27.9921 70.9573" stroke="black" stroke-width="0.738001" stroke-linecap="round"/>
<path d="M31.6084 27.3228H44.1999" stroke="black" stroke-width="0.738001" stroke-linecap="round"/>
<path d="M31.6934 31.7899L58.8776 31.6553" stroke="black" stroke-width="0.738001" stroke-linecap="round"/>
<path d="M31.7607 36.2981L53.091 36.0962" stroke="black" stroke-width="0.738001" stroke-linecap="round"/>
<path d="M31.9657 43.3003L42.4595 42.8253" stroke="black" stroke-width="0.738001" stroke-linecap="round"/>
<path d="M67.4549 42.8743C66.963 43.7924 65.8809 45.0385 67.0613 47.3994" stroke="black" stroke-width="0.738001" stroke-linecap="round"/>
<path d="M51.8148 53.8125C51.159 54.5931 50.7918 56.8233 54.5692 59.499C56.4383 60.7122 60.3141 64.3978 60.865 69.4344" stroke="black" stroke-width="0.738001" stroke-linecap="round"/>
<path d="M50.8308 45.9238C50.4793 46.5829 50.325 47.8512 51.4211 49.0663C51.961 49.6649 52.8044 50.2505 54.077 50.744" stroke="black" stroke-width="0.738001" stroke-linecap="round"/>
<path d="M51.4202 49.0664C50.717 50.0836 50.0758 52.1694 51.8137 53.8127C52.2637 54.2382 53.7587 55.0276 54.5681 55.3675" stroke="black" stroke-width="0.738001" stroke-linecap="round"/>
<path d="M65.0817 86.6509C62.9832 81.7651 60.0451 71.187 65.0817 67.9604C71.3775 63.9272 79.5423 73.0757 82.395 80.9454" stroke="black" stroke-width="0.738001" stroke-linecap="round"/>
<path d="M0.916992 82.813C1.40885 78.2223 4.83216 68.8528 10.6557 70.0333C16.4793 71.2137 18.0663 81.7394 18.1319 86.8547" stroke="black" stroke-width="0.738001" stroke-linecap="round"/>
</svg>
