<svg width="123" height="105" viewBox="0 0 123 105" fill="none" xmlns="http://www.w3.org/2000/svg">
<path d="M27.7847 65.84L22.7822 46.2604L87.8691 29.6311L88.8233 33.3659" stroke="black" stroke-width="0.435997"/>
<path d="M30.1582 75.1288L33.9668 90.0354L35.3722 89.6763" stroke="black" stroke-width="0.435997"/>
<path d="M58.4609 87.2087L61.2104 86.5399" stroke="black" stroke-width="0.435997" stroke-linecap="round"/>
<path d="M65.2455 85.4995L87.9477 80.0305" stroke="black" stroke-width="0.435997" stroke-linecap="round"/>
<path d="M56.4761 87.5803L35.9924 92.3928L31.3589 72.9409" stroke="black" stroke-width="0.435997" stroke-linecap="round"/>
<path d="M29.7215 66.1043L25.5088 48.4445L90.8529 32.8569L97.0967 59.031" stroke="black" stroke-width="0.435997" stroke-linecap="round"/>
<path d="M9.5183 40.4349C8.86649 40.5748 8.24438 40.7797 7.65611 41.0366L7.97193 42.509C7.18789 42.886 6.48441 43.3718 5.87089 43.9553L4.60652 43.1375C4.14872 43.6056 3.74999 44.1252 3.39575 44.6729C3.04149 45.2206 2.7312 45.7973 2.49204 46.4068L3.75641 47.2246C3.4759 48.0234 3.3213 48.8643 3.29905 49.734L1.82669 50.0498C1.83363 50.6917 1.90187 51.3431 2.04169 51.9949C2.1815 52.6467 2.38643 53.2688 2.64336 53.8571L4.11573 53.5413C4.49271 54.3253 4.97856 55.0288 5.56203 55.6423L4.74427 56.9067C5.21237 57.3645 5.7319 57.7632 6.27963 58.1175C6.82735 58.4717 7.40407 58.782 8.01358 59.0212L8.83133 57.7568C9.63018 58.0373 10.471 58.1919 11.3407 58.2142L11.6565 59.6865C12.2984 59.6796 12.9499 59.6113 13.6017 59.4715C14.2535 59.3317 14.8756 59.1268 15.4639 58.8699L15.148 57.3975C15.9321 57.0205 16.6355 56.5346 17.2491 55.9512L18.5134 56.7689C18.9712 56.3008 19.37 55.7813 19.7242 55.2336C20.0785 54.6859 20.3888 54.1091 20.6279 53.4996L19.3636 52.6819C19.6441 51.883 19.7987 51.0422 19.8209 50.1725L21.2933 49.8567C21.2863 49.2148 21.2181 48.5634 21.0783 47.9115C20.9385 47.2597 20.7335 46.6376 20.4766 46.0494L19.0042 46.3652C18.6273 45.5811 18.1414 44.8777 17.5579 44.2641L18.3757 42.9998C17.9076 42.542 17.3881 42.1432 16.8403 41.789C16.2926 41.4347 15.7159 41.1245 15.1064 40.8853L14.2886 42.1497C13.4898 41.8692 12.6489 41.7146 11.7792 41.6923L11.4634 40.2199C10.8215 40.2269 10.1701 40.2951 9.5183 40.4349ZM10.5391 45.1941C13.1662 44.6306 15.7556 46.3053 16.3191 48.9324C16.8826 51.5594 15.2079 54.1489 12.5808 54.7124C9.95377 55.2759 7.36434 53.6011 6.80084 50.9741C6.23733 48.347 7.91209 45.7576 10.5391 45.1941Z" fill="black"/>
<path d="M47.4232 52.9138C46.7748 53.0685 46.1575 53.2876 45.5753 53.5579L45.9247 55.0227C45.1495 55.4175 44.4573 55.9193 43.8573 56.5167L42.5745 55.728C42.1276 56.2065 41.7408 56.735 41.3992 57.2907C41.0576 57.8464 40.7605 58.43 40.5354 59.0449L41.8181 59.8335C41.5559 60.6385 41.4206 61.4827 41.4183 62.3527L39.9535 62.7021C39.9751 63.3436 40.0582 63.9933 40.2129 64.6418C40.3676 65.2902 40.5867 65.9075 40.857 66.4897L42.3218 66.1403C42.7166 66.9155 43.2184 67.6077 43.8158 68.2077L43.0271 69.4905C43.5056 69.9374 44.0341 70.3242 44.5898 70.6658C45.1455 71.0074 45.7291 71.3045 46.344 71.5296L47.1326 70.2469C47.9376 70.509 48.7818 70.6444 49.6518 70.6467L50.0012 72.1115C50.6427 72.0899 51.2924 72.0068 51.9409 71.8521C52.5893 71.6974 53.2066 71.4783 53.7888 71.208L53.4394 69.7432C54.2146 69.3484 54.9068 68.8466 55.5068 68.2492L56.7896 69.0379C57.2365 68.5594 57.6233 68.0309 57.9649 67.4752C58.3065 66.9195 58.6036 66.3359 58.8287 65.721L57.546 64.9324C57.8081 64.1274 57.9435 63.2832 57.9458 62.4132L59.4106 62.0638C59.389 61.4223 59.3058 60.7726 59.1512 60.1241C58.9965 59.4757 58.7774 58.8584 58.5071 58.2762L57.0423 58.6256C56.6475 57.8504 56.1457 57.1582 55.5483 56.5582L56.337 55.2754C55.8585 54.8285 55.33 54.4417 54.7743 54.1001C54.2186 53.7585 53.635 53.4614 53.0201 53.2363L52.2315 54.519C51.4265 54.2569 50.5823 54.1215 49.7123 54.1192L49.3629 52.6544C48.7213 52.676 48.0716 52.7592 47.4232 52.9138V52.9138ZM48.5526 57.6484C51.1661 57.025 53.7932 58.6401 54.4166 61.2535C55.04 63.867 53.4249 66.4941 50.8115 67.1175C48.198 67.7409 45.5709 66.1258 44.9475 63.5124C44.3241 60.8989 45.9392 58.2718 48.5526 57.6484Z" stroke="black" stroke-width="0.726662" stroke-linecap="round" stroke-linejoin="round"/>
<path d="M52.6261 74.5601C52.3143 74.6344 52.0174 74.7398 51.7374 74.8698L51.9054 75.5742C51.5326 75.7641 51.1998 76.0054 50.9112 76.2927L50.2943 75.9135C50.0793 76.1435 49.8934 76.3977 49.7291 76.665C49.5648 76.9322 49.4219 77.2129 49.3136 77.5086L49.9305 77.8878C49.8045 78.275 49.7394 78.681 49.7382 79.0993L49.0338 79.2674C49.0442 79.5759 49.0842 79.8884 49.1586 80.2002C49.233 80.5121 49.3383 80.8089 49.4683 81.0889L50.1728 80.9209C50.3626 81.2937 50.604 81.6266 50.8912 81.9151L50.512 82.532C50.7421 82.747 50.9962 82.933 51.2635 83.0973C51.5307 83.2616 51.8114 83.4044 52.1071 83.5127L52.4863 82.8958C52.8735 83.0219 53.2795 83.087 53.6979 83.0881L53.8659 83.7925C54.1744 83.7821 54.4869 83.7421 54.7987 83.6678C55.1106 83.5934 55.4074 83.488 55.6874 83.358L55.5194 82.6536C55.8922 82.4637 56.2251 82.2224 56.5136 81.9351L57.1305 82.3144C57.3455 82.0843 57.5315 81.8301 57.6958 81.5629C57.8601 81.2956 58.0029 81.0149 58.1112 80.7192L57.4943 80.34C57.6204 79.9528 57.6855 79.5469 57.6866 79.1285L58.391 78.9604C58.3806 78.6519 58.3407 78.3394 58.2663 78.0276C58.1919 77.7158 58.0865 77.4189 57.9565 77.1389L57.2521 77.3069C57.0622 76.9341 56.8209 76.6012 56.5336 76.3127L56.9129 75.6958C56.6828 75.4808 56.4286 75.2948 56.1614 75.1305C55.8941 74.9662 55.6134 74.8234 55.3178 74.7151L54.9385 75.332C54.5513 75.2059 54.1454 75.1409 53.727 75.1397L53.5589 74.4353C53.2504 74.4457 52.938 74.4857 52.6261 74.5601V74.5601ZM53.1693 76.837C54.4261 76.5372 55.6895 77.3139 55.9893 78.5707C56.2892 79.8276 55.5124 81.091 54.2556 81.3908C52.9987 81.6906 51.7353 80.9139 51.4355 79.6571C51.1357 78.4002 51.9124 77.1368 53.1693 76.837Z" stroke="black" stroke-opacity="0.7" stroke-width="0.435997" stroke-linecap="round" stroke-linejoin="round"/>
<path d="M88.5014 72.5775L91.7408 65.0482C94.7561 58.0396 103.288 55.3381 109.788 59.3341C116.299 63.337 117.731 72.1909 112.814 78.0426L107.541 84.318C103.938 88.6066 97.7372 89.6097 92.9653 86.6759C88.1838 83.7363 86.2832 77.7335 88.5014 72.5775Z" stroke="black" stroke-width="0.726662"/>
<path d="M90.4889 68.6996L91.7799 65.4783C94.6159 58.4021 103.141 55.5846 109.635 59.5772C116.142 63.5779 117.466 72.481 112.404 78.2018L110.104 80.8008C106.339 85.0562 100.06 85.9897 95.2197 83.0139C90.3677 80.0309 88.3701 73.9865 90.4889 68.6996Z" fill="black"/>
<circle cx="49.6741" cy="62.3139" r="2.30695" transform="rotate(-13.417 49.6741 62.3139)" stroke="black" stroke-width="0.290665"/>
<circle cx="49.6745" cy="62.3139" r="3.34731" transform="rotate(-13.417 49.6745 62.3139)" stroke="black" stroke-width="0.290665"/>
<path d="M46.1768 47.3341L55.2121 85.2106" stroke="black" stroke-width="0.290665" stroke-linecap="round" stroke-dasharray="1.74 1.74"/>
<path d="M62.4502 42.5352L68.8646 69.4245" stroke="black" stroke-width="0.290665" stroke-linecap="round" stroke-dasharray="1.74 1.74"/>
<path d="M72.3047 40.9131L79.6157 71.5613" stroke="black" stroke-width="0.290665" stroke-linecap="round" stroke-dasharray="1.74 1.74"/>
<path d="M83.0088 41.6039L88.8369 66.0357" stroke="black" stroke-width="0.290665" stroke-linecap="round" stroke-dasharray="1.74 1.74"/>
<path d="M44.5459 81.4904L62.3276 77.2486" stroke="black" stroke-width="0.290665" stroke-linecap="round" stroke-dasharray="1.74 1.74"/>
<path d="M35.3066 65.8176L89.9528 52.7819" stroke="black" stroke-width="0.290665" stroke-linecap="round" stroke-dasharray="1.74 1.74"/>
<path d="M44.9941 83.3698L46.8735 82.9214" stroke="black" stroke-width="0.435997" stroke-linecap="round"/>
<path d="M65.2539 76.7032L77.6866 73.7375" stroke="black" stroke-width="0.435997" stroke-linecap="round"/>
<path d="M65.667 78.4382L77.0878 75.7138" stroke="black" stroke-width="0.435997" stroke-linecap="round"/>
<path d="M65.9092 79.4502L72.1255 77.9673" stroke="black" stroke-width="0.435997" stroke-linecap="round"/>
<path d="M45.2363 84.3816L49.1396 83.4505" stroke="black" stroke-width="0.435997" stroke-linecap="round"/>
<path d="M67.5059 53.4153L69.5974 50.0133" stroke="black" stroke-opacity="0.6" stroke-width="0.435997" stroke-linecap="round"/>
<path d="M66.417 59.1603L74.2327 46.4475" stroke="black" stroke-opacity="0.6" stroke-width="0.435997" stroke-linecap="round"/>
<path d="M68.3173 60.0411L70.856 55.9098M75.8348 47.8842L73.2315 52.0477" stroke="black" stroke-opacity="0.6" stroke-width="0.435997" stroke-linecap="round"/>
<path d="M69.7412 61.698L71.6906 58.5272M78.1073 48.09L76.2039 51.186" stroke="black" stroke-opacity="0.6" stroke-width="0.435997" stroke-linecap="round"/>
<path d="M70.5413 64.3693L73.1713 60.0914M80.665 47.81L78.2127 51.8971" stroke="black" stroke-opacity="0.6" stroke-width="0.435997" stroke-linecap="round"/>
<path d="M73.0854 64.2057L75.0493 61.0113M81.7063 50.2623L79.8485 53.1605" stroke="black" stroke-opacity="0.6" stroke-width="0.435997" stroke-linecap="round"/>
<path d="M75.4072 64.4002L77.4528 61.032M82.8199 52.1945L80.6649 55.8357" stroke="black" stroke-opacity="0.6" stroke-width="0.435997" stroke-linecap="round"/>
<path d="M77.0703 65.669L84.9013 52.789" stroke="black" stroke-opacity="0.6" stroke-width="0.435997" stroke-linecap="round"/>
<path d="M81.4844 62.4614L83.8605 58.5851" stroke="black" stroke-opacity="0.6" stroke-width="0.435997" stroke-linecap="round"/>
<path d="M73.4945 46.7139C72.8461 46.8686 72.2288 47.0877 71.6466 47.358L71.996 48.8227C71.2208 49.2176 70.5286 49.7194 69.9286 50.3167L68.6458 49.5281C68.1988 50.0065 67.8121 50.5351 67.4705 51.0907C67.1288 51.6464 66.8318 52.2301 66.6067 52.8449L67.8894 53.6335C67.6272 54.4386 67.4919 55.2827 67.4896 56.1527L66.0248 56.5021C66.0464 57.1437 66.1295 57.7934 66.2842 58.4418C66.4389 59.0903 66.658 59.7075 66.9283 60.2898L68.3931 59.9404C68.7879 60.7156 69.2897 61.4078 69.8871 62.0078L69.0984 63.2905C69.5769 63.7375 70.1054 64.1242 70.6611 64.4659C71.2168 64.8075 71.8004 65.1045 72.4152 65.3297L73.2039 64.0469C74.0089 64.3091 74.8531 64.4444 75.723 64.4468L76.0725 65.9115C76.714 65.8899 77.3637 65.8068 78.0122 65.6521C78.6606 65.4974 79.2779 65.2783 79.8601 65.008L79.5107 63.5433C80.2859 63.1484 80.9781 62.6466 81.5781 62.0493L82.8609 62.8379C83.3078 62.3595 83.6946 61.8309 84.0362 61.2753C84.3778 60.7196 84.6749 60.1359 84.9 59.5211L83.6173 58.7325C83.8794 57.9274 84.0148 57.0833 84.0171 56.2133L85.4819 55.8639C85.4603 55.2223 85.3771 54.5726 85.2224 53.9242C85.0678 53.2757 84.8487 52.6585 84.5783 52.0762L83.1136 52.4256C82.7188 51.6504 82.217 50.9582 81.6196 50.3582L82.4082 49.0755C81.9298 48.6285 81.4013 48.2418 80.8456 47.9001C80.2899 47.5585 79.7063 47.2615 79.0914 47.0363L78.3028 48.3191C77.4978 48.0569 76.6536 47.9216 75.7836 47.9192L75.4342 46.4545C74.7926 46.4761 74.1429 46.5592 73.4945 46.7139V46.7139ZM74.6239 51.4484C77.2374 50.825 79.8645 52.4401 80.4879 55.0536C81.1113 57.6671 79.4962 60.2941 76.8828 60.9176C74.2693 61.541 71.6422 59.9259 71.0188 57.3124C70.3953 54.6989 72.0104 52.0719 74.6239 51.4484Z" stroke="black" stroke-width="0.726662" stroke-linecap="round" stroke-linejoin="round"/>
<path d="M32.4355 56.3417L54.1928 51.1516" stroke="black" stroke-width="0.435997" stroke-linecap="round"/>
<path d="M45.1377 73.4039L58.5824 70.1967" stroke="black" stroke-width="0.435997" stroke-linecap="round"/>
<path d="M62.7031 69.2139L84.605 63.9892" stroke="black" stroke-width="0.435997" stroke-linecap="round"/>
<path d="M67.1484 48.1376L80.4486 44.9649" stroke="black" stroke-width="0.435997" stroke-linecap="round"/>
<path d="M68.1685 89.5247C67.5715 88.8709 66.8998 87.9264 66.7506 86.9094C66.6478 86.2094 65.8799 85.7227 65.4072 85.747" stroke="black" stroke-width="0.726662" stroke-linecap="round"/>
<path d="M65.5529 86.9087C65.5529 86.3513 65.5991 85.2517 64.2451 85.3125" stroke="black" stroke-width="0.726662" stroke-linecap="round"/>
<path d="M64.535 86.3274C64.3398 85.8014 63.7868 84.8043 62.791 85.2983" stroke="black" stroke-width="0.726662" stroke-linecap="round"/>
<path d="M63.3142 87.0182C62.9957 86.8211 62.5792 86.0129 62.2851 84.9486C61.9911 83.8842 60.4475 82.9775 59.7125 82.6573C59.3205 82.4848 58.5364 82.3912 58.5364 83.3964C58.5364 84.2834 60.6974 85.0521 60.8151 86.353C60.9327 87.6538 60.8641 88.2254 60.8151 88.3486C60.6925 88.595 60.2564 88.8956 59.492 88.1269C58.7275 87.3582 57.7279 87.166 57.2133 87.3138C56.7723 87.4617 56.1549 87.9643 57.2133 88.7921C57.9997 89.4072 60.5798 90.5513 62.8732 93.4487" stroke="black" stroke-width="0.726662" stroke-linecap="round"/>
<path d="M88.6602 101.099C82.5975 95.3384 74.0979 90.106 70.4437 90.106C63.7642 90.106 63.9283 93.3852 64.856 95.0519C64.8663 95.0704 64.8779 95.0865 64.8921 95.1022C66.7625 97.1673 71.2882 101.783 74.6044 103.913" stroke="black" stroke-width="0.726662" stroke-linecap="round"/>
<path d="M6.8363 99.5957C8.26308 97.5744 11.9886 91.9792 13.5986 89.2664C14.7013 87.4086 15.5281 85.3431 15.828 83.9389C16.4225 81.1559 18.1317 76.1363 23.3334 83.0472C24.5639 84.6821 25.7611 86.175 20.7822 95.8356" stroke="black" stroke-width="0.726662" stroke-linecap="round"/>
<path d="M25.3541 81.501C26.4415 80.1626 28.4073 78.0713 29.202 76.6074L30.4986 74.3907C31.3769 72.9796 31.7528 71.8292 32.0885 71.2054C32.2377 70.9282 32.3305 70.7177 32.5371 70.3056C32.7246 69.9316 32.8896 69.5539 32.7587 69.2441C32.6585 69.0068 32.2404 68.5916 31.3697 68.8286C30.4989 69.0657 29.9051 69.801 29.7171 70.1391C29.5287 70.4192 28.7109 71.4341 28.4869 71.6568C27.9665 72.1744 25.4025 74.3206 23.8034 73.0632" stroke="black" stroke-width="0.726662" stroke-linecap="round"/>
<path d="M23.4926 70.9849C24.8199 70.2831 27.3984 69.0179 28.2966 68.1493C29.2191 67.9707 31.4972 68.2692 31.2673 67.0459C31.2194 66.7911 30.4173 66.159 29.225 65.9445C28.3669 65.7901 27.7448 65.7298 27.032 66.1129C26.6279 66.33 26.4676 66.4071 25.9458 66.7537C25.5408 66.9321 25.2941 67.1385 24.9634 67.3658C24.6236 67.5993 24.1316 67.9706 23.4432 68.62" stroke="black" stroke-width="0.726662" stroke-linecap="round"/>
<path d="M25.946 66.7537C25.7295 66.6359 24.794 66.6435 23.6911 67.1898C22.4863 67.7865 22.2805 68.0124 21.8139 68.3203C21.3474 68.6281 20.4144 69.2437 20.0491 69.5407C19.4028 70.0662 18.8138 70.6585 18.5813 70.9573C18.1719 71.5895 18.4001 72.0678 19.0154 73.2451" stroke="black" stroke-width="0.726662" stroke-linecap="round"/>
<path d="M19.3845 75.4307C19.3845 76.2145 19.2065 78.0714 18.6627 79.6189" stroke="black" stroke-width="0.726662" stroke-linecap="round"/>
<path d="M30.1706 69.5412L19.677 75.2747C18.4092 75.7706 17.5273 74.0328 18.8576 73.4461L23.4858 70.9785M31.6302 68.7238L33.5708 67.6745L32.6518 66.205L31.3381 66.8686" stroke="black" stroke-width="0.726662" stroke-linecap="round"/>
<path d="M33.8326 67.532L34.9268 65.9128" stroke="black" stroke-width="0.726662" stroke-linecap="round"/>
<path d="M32.9125 66.0682L34.9268 65.9128" stroke="black" stroke-width="0.726662" stroke-linecap="round"/>
<path d="M37.919 35.101C38.1337 37.3398 34.9539 37.773 34.8167 35.2111L34.5055 15.0724L34.3946 9.6471C34.3913 9.48428 34.5224 9.3505 34.6852 9.3505L37.3611 9.3505M37.919 35.101L37.5523 15.0726L37.3611 9.3505M37.919 35.101L42.0032 35.101C42.1693 35.101 42.3016 34.9622 42.2936 34.7964L41.3422 15.0726L41.0895 9.62769C41.0823 9.47257 40.9544 9.3505 40.7991 9.3505L37.3611 9.3505" stroke="black" stroke-width="0.726662" stroke-linecap="round"/>
<path d="M41.9866 18.3915C41.6856 17.8701 41.8643 17.2035 42.3856 16.9025L69.8581 1.04125C70.3794 0.740262 71.0461 0.918884 71.347 1.44022L80.8175 17.8435C81.1185 18.3649 80.9399 19.0315 80.4185 19.3325L52.9461 35.1938C52.4247 35.4947 51.7581 35.3161 51.4571 34.7948L41.9866 18.3915Z" stroke="black" stroke-width="0.726662"/>
<ellipse cx="45.8823" cy="18.583" rx="0.817426" ry="0.891738" transform="rotate(-30 45.8823 18.583)" fill="black"/>
<path d="M72.6992 19.4038L77.3328 16.7286M75.0577 19.7583L78.0759 18.0157" stroke="black" stroke-width="0.726662" stroke-linecap="round"/>
<path d="M51.4199 27.1121C52.3946 26.4244 55.1683 25.6385 58.6058 27.8435C58.707 27.9084 58.8421 27.8332 58.836 27.7132C58.6219 23.5108 58.776 19.0576 67.4534 19.2865C67.6041 19.2905 67.6769 19.0806 67.5542 18.9931C65.2176 17.3271 62.2471 13.3918 65.833 8.49137C65.9145 8.37993 65.8149 8.22025 65.6808 8.25297L64.3163 8.58577C64.1648 8.62271 64.0767 8.43792 64.2047 8.34889C65.4383 7.49072 67.2581 6.55439 67.0722 7.66969C66.8518 8.99226 66.9975 9.66384 67.7178 10.4959" stroke="black" stroke-width="0.726662" stroke-linecap="round"/>
</svg>
