<svg width="911" height="855" viewBox="0 0 911 855" fill="none" xmlns="http://www.w3.org/2000/svg">
<path d="M386.929 671.268C376.364 616.729 415.542 492.16 436.451 436.693C443.421 439.992 501.748 428.63 520.457 401.507C535.424 379.809 560.843 371.287 573.281 367.421C589.789 362.289 617.302 363.022 622.437 375.484L627.94 388.313C645.915 439.992 630.263 518.55 619.136 553.614L578.051 560.944C546.942 510.511 562.888 449.033 574.749 424.598C562.129 441.605 526.694 459.539 510.553 466.381C509.819 511.464 440.854 666.869 425.814 676.765C413.782 684.682 394.877 676.399 386.929 671.268Z" fill="black"/>
<path d="M413.278 680.251L408.141 689.585M391.997 674.335L382.197 700.214L381.356 702.432C380.424 704.673 379.777 708.431 381.356 711.632C382.47 713.89 384.689 715.871 388.695 716.85C398.381 719.215 434.804 721.779 451.804 722.765C454.739 723.135 460.317 721.73 459.142 713.153C457.968 704.576 451.804 696.727 444.833 693.56C439.178 690.99 424.596 687.002 408.141 689.585L391.997 674.335ZM403.004 690.601C404.731 690.188 406.446 689.851 408.141 689.585L403.004 690.601Z" stroke="black" stroke-width="5.53314" stroke-linecap="round"/>
<path d="M583.909 558.955C583.542 569.83 584.532 591.241 587.219 594.515C590.529 598.548 594.575 598.914 619.215 591.216C638.928 585.057 646.798 584.983 651.579 584.25C654.889 583.743 658.935 583.297 658.935 575.085C658.935 564.821 654.889 557.855 642.385 556.388C632.381 555.215 618.112 561.277 612.228 564.454V554.556" stroke="black" stroke-width="5.53314" stroke-linecap="round"/>
<path d="M536.833 189.958C499.054 193.775 424.818 209.867 430.1 243.688C430.909 246.56 433.236 251.142 437.572 255.452C441.75 259.604 447.792 263.503 456.141 265.379" stroke="black" stroke-width="5.53314" stroke-linecap="round"/>
<path d="M437.573 255.452C449.387 273.833 484.017 313.758 528.031 326.404" stroke="black" stroke-width="5.53314" stroke-linecap="round"/>
<path d="M527.748 326.404C530.438 322.79 537.509 316.257 545.81 315.948" stroke="black" stroke-width="5.53314" stroke-linecap="round"/>
<path d="M545.81 315.948C545.565 305.626 536.857 279.006 503.982 255.107" stroke="black" stroke-width="5.53314" stroke-linecap="round"/>
<path d="M494.476 263.663C497.887 258.139 508.369 246.412 522.994 243.7" stroke="black" stroke-width="5.53314" stroke-linecap="round"/>
<path d="M576.23 253.206C577.814 255.079 580.984 260.172 580.984 265.564" stroke="black" stroke-width="5.53314" stroke-linecap="round"/>
<path d="M575.857 332.119C583.348 331.753 598.994 330.654 601.647 329.188C604.963 327.357 605.7 327.357 605.7 323.693C605.7 320.03 575.857 326.258 575.857 314.536C578.559 311.849 582.931 305.818 578.804 303.18C574.678 300.543 566.032 308.187 562.225 312.338C558.296 316.489 549.477 323.034 545.646 316.001" stroke="black" stroke-width="5.53314" stroke-linecap="round"/>
<path d="M528.699 326.258C532.015 335.904 543.952 353.218 565.173 345.306C586.395 337.394 587.279 333.218 585.068 332.119" stroke="black" stroke-width="5.53314" stroke-linecap="round"/>
<path d="M711.467 330.363C716.624 328.953 727.896 322.396 731.727 307.443C735.558 292.491 730.376 292.417 727.306 294.249" stroke="black" stroke-width="5.53314" stroke-linecap="round"/>
<path d="M692.312 319.538C693.908 311.23 699.532 295.203 709.257 297.548" stroke="black" stroke-width="5.53314" stroke-linecap="round"/>
<path d="M696.364 305.977C689.586 300.406 685.436 313.185 684.207 320.271C676.546 322.616 673.648 333.709 673.157 338.962C690.887 340.781 703.487 336.019 711.467 330.363C716.352 326.899 719.505 323.101 721.044 320.271C724.851 310.131 730.4 288.972 722.149 285.454C713.897 281.936 711.589 289.852 711.467 294.249C712.351 304.218 707.169 315.262 704.468 319.538" stroke="black" stroke-width="5.53314" stroke-linecap="round"/>
<path d="M589.539 331.999C605.501 346.903 644.572 369.161 673.157 338.962" stroke="black" stroke-width="5.53314" stroke-linecap="round"/>
<path d="M586.688 334.01C586.688 340.929 584.976 356.7 578.132 364.43" stroke="black" stroke-width="5.53314" stroke-linecap="round"/>
<path d="M437.439 350.17C422.374 370.504 401.283 416.462 437.439 437.628" stroke="black" stroke-width="5.53314" stroke-linecap="round"/>
<path d="M888.037 262.713L896.593 248.453" stroke="black" stroke-width="5.53314" stroke-linecap="round"/>
<path d="M892.219 270.166L908 269.432" stroke="black" stroke-width="5.53314" stroke-linecap="round"/>
<path d="M888.987 278.873L898.494 291.231" stroke="black" stroke-width="5.53314" stroke-linecap="round"/>
<path d="M578.244 726.626H321.461V852.103" stroke="black" stroke-width="5.53314" stroke-linecap="round"/>
<path d="M756.781 601.518H546.651V754.51" stroke="black" stroke-width="5.53314" stroke-linecap="round"/>
<path d="M895.641 426.144H725.187V630.501" stroke="black" stroke-width="5.53314" stroke-linecap="round"/>
<path d="M865.519 292.657V454.761" stroke="black" stroke-width="5.53314" stroke-linecap="round"/>
<path d="M865.519 236.095V249.879" stroke="black" stroke-width="5.53314" stroke-linecap="round"/>
<path d="M532.54 335.47L322.096 359.677C297.752 340.174 303.643 311.059 309.631 298.94L455.915 281.406" stroke="black" stroke-width="5.53314" stroke-linecap="round"/>
<path d="M604.765 329.625L676.991 322.685" stroke="black" stroke-width="5.53314" stroke-linecap="round"/>
<path d="M729.784 315.013L777.079 311.725L840.506 282.976C832.88 274.88 837.062 267.669 840.239 265.089L777.079 250.354L527.04 271.177" stroke="black" stroke-width="5.53314" stroke-linecap="round"/>
<path d="M286.969 299.242L308.407 296.935C293.539 330.243 310.582 352.903 321.461 361.72L296.44 365.38C275.528 339.911 280.919 311.408 286.969 299.242Z" fill="black"/>
<path d="M842.787 284.577C834.83 276.272 839.301 266.382 842.616 263.188L872.827 270.643L842.787 284.577Z" fill="black"/>
<path d="M777.765 250.354C769.873 260.372 758.826 286.565 777.765 311.194" stroke="black" stroke-width="5.53314"/>
<path d="M596.019 196.372C602.306 192.502 649.608 196.232 658.805 136.731C674.549 136.915 683.11 124.018 671.097 118.499C658.29 111.895 659.252 99.7704 661.572 92.6266C665.26 83.2579 665.484 73.4216 664.688 71.3643" stroke="black" stroke-width="5.53314" stroke-linecap="round"/>
<path d="M644.925 115.245C646.712 115.266 648.185 113.11 648.217 110.431C648.248 107.751 646.825 105.561 645.039 105.54C643.252 105.519 641.778 107.675 641.747 110.355C641.715 113.035 643.138 115.224 644.925 115.245Z" fill="black"/>
<path d="M636.143 95.6059C638.769 92.7977 645.562 88.6903 651.717 94.7238" stroke="black" stroke-width="5.53314" stroke-linecap="round"/>
<path d="M618.298 150.282C623.126 157.711 628.426 159.821 638.722 155.027" stroke="black" stroke-width="5.53314" stroke-linecap="round"/>
<path d="M578.776 98.2095C577.657 100.666 576.72 106.242 581.919 108.896" stroke="black" stroke-width="5.53314" stroke-linecap="round"/>
<path d="M523.36 72.9852C517.234 106.5 536.4 131.729 550.296 151.123C565.136 143.106 589.459 124.04 580.13 121.982C570.325 119.819 559.985 93.0748 569.506 84.8935C580.677 75.295 590.747 89.8181 592.666 100.83L601.664 85.2703C599.119 74.387 598.122 55.296 614.485 65.9985C630.848 76.7009 654.851 73.8974 664.807 71.1579C684.437 57.107 714.935 24.3326 679.887 5.64239C650.736 -9.90272 612.803 9.75051 589.648 27.41C573.97 23.271 531.712 27.2891 523.36 72.9852Z" fill="black"/>
<path d="M551.386 148.878C558.472 157.409 561.992 164.493 561.554 179.168" stroke="black" stroke-width="5.53314" stroke-linecap="round"/>
<path d="M543.502 198.815C541.021 190.16 539.568 173.654 553.6 176.862C571.14 180.872 606.891 198.217 604.272 207.832" stroke="black" stroke-width="5.53314" stroke-linecap="round"/>
<path d="M604.273 221.36C617.107 233.243 619.959 240.848 621.86 255.107" stroke="black" stroke-width="5.53314" stroke-linecap="round"/>
<path d="M3 606.795C20.4333 605.208 61.5124 615.603 88.9534 669.067C89.6711 670.466 91.695 670.503 92.4099 669.104C120.557 614.001 155.103 558.105 264.296 625.406C265.975 626.44 268.178 624.567 267.346 622.778C249.63 584.676 240.056 512.013 322.61 475.964C324.266 475.242 324.192 472.78 322.459 472.273L301.104 466.032C299.147 465.46 299.36 462.774 301.392 462.591C323.389 460.608 354.422 461.9 343.738 474.879C331.264 490.032 328.196 499.614 331.238 515.434" stroke="black" stroke-width="5.53314" stroke-linecap="round"/>
</svg>
