<svg width="188" height="173" viewBox="0 0 188 173" fill="none" xmlns="http://www.w3.org/2000/svg">
<path d="M160.727 162.785C157.65 163.026 158.754 162.958 157.484 162.896C156.944 162.869 156.175 161.789 159.119 161.378C161.141 161.096 161.425 161.277 161.259 160.995C160.84 160.278 160.968 160.371 159.24 157.712C158.79 157.021 159.074 156.531 159.498 156.68C161.12 157.252 162.386 160.566 162.635 160.092C165.914 153.889 165.87 153.232 166.747 153.692C167.897 154.295 164.719 159.185 164 160.942C164.066 160.946 168.174 161.106 168.063 161.752C168.014 162.032 166.38 162.134 164.006 162.519C163.556 162.591 163.967 162.513 165.918 166.787C166.219 167.445 165.54 167.806 164.365 166.09C162.473 163.326 162.676 163.186 162.404 163.617C160.042 167.361 161.021 165.867 159.647 167.796C159.388 168.159 159.051 167.885 159.164 167.54C160.63 163.135 161.726 162.759 160.727 162.784V162.785Z" fill="black"/>
<path d="M21.358 20.6704C21.1065 21.2772 20.5283 20.8317 20.362 20.2447C19.4472 17.0073 20.5907 16.9024 18.2236 18.528C17.6395 18.9289 17.2197 19.1309 16.9257 18.8141C16.2366 18.0745 17.8573 16.9667 18.6691 16.2589C19.3146 15.6965 15.6614 15.1867 15.9307 14.2175C16.1545 13.4116 17.7019 13.9254 18.4741 14.2452C19.1027 14.5056 19.4561 14.8679 19.4274 14.4244C19.269 11.9573 18.974 10.8049 19.8284 10.6574C21.1946 10.4218 20.665 14.7531 21.2778 14.3472C22.1242 13.7868 25.1715 11.6811 24.5953 12.681C23.8478 13.9789 23.0994 14.7145 21.9955 15.7163C21.6688 16.0124 21.8985 15.8738 23.6884 16.9578C25.6437 18.1429 24.4765 18.3933 23.3716 17.9973C21.3827 17.2845 21.35 17.0925 21.3421 17.431C21.3302 17.9607 21.5807 20.1328 21.358 20.6704Z" fill="black"/>
<path d="M21.6796 170.429C21.734 169.42 22.534 168.689 23.3884 168.621C24.7001 168.516 25.9297 169.862 25.2832 171.337C24.4348 173.272 21.5568 172.687 21.6796 170.429ZM24.3922 170.601C24.4487 170.182 24.1338 169.657 23.5963 169.674C22.4845 169.708 22.4597 171.431 23.5517 171.334C23.8705 171.306 24.3358 171.02 24.3922 170.601Z" fill="black"/>
<path d="M178.541 29.6411C177.15 29.647 176.003 28.3937 176.447 26.8799C176.801 25.6791 178.691 24.4554 179.996 25.4731C182.137 27.1413 180.734 29.6322 178.541 29.6411ZM177.801 26.6602C176.968 27.6195 177.873 28.8144 178.913 28.5283C179.822 28.2778 179.917 27.6759 179.748 27.0572C179.53 26.2632 178.596 25.7454 177.802 26.6602H177.801Z" fill="black"/>
<path d="M54.87 25.241C53.7137 25.1341 40.1486 14.9766 42.3365 15.5478C43.4394 15.8359 58.7568 25.6004 54.87 25.241Z" fill="black"/>
<path d="M87.9548 14.7902C87.7578 15.7822 88.8379 16.5316 89.4379 14.313C96.563 -12.0203 90.1022 4.00898 87.9548 14.7902Z" fill="black"/>
<path d="M66.5701 3.65912C66.2979 4.28184 69.5718 13.7721 72.33 17.8687C72.7508 18.4934 73.5309 18.6103 73.5368 17.8024C73.4061 17.2302 66.9691 3.87296 66.5701 3.65912Z" fill="black"/>
<path d="M117.612 6.30802C114.8 8.97015 112.023 12.351 109.921 14.9399C109.571 15.3716 109.601 15.7022 109.82 15.8567C110.258 16.1656 110.632 15.7844 110.953 15.4755C112.681 13.8113 117.248 8.73453 119.661 5.73579C121.735 3.1578 122.07 2.08661 117.612 6.30802Z" fill="black"/>
<path d="M79.0764 150.073C77.428 150.984 63.1095 174.632 72.8898 161.073C79.412 152.03 80.4347 150.104 79.0764 150.073Z" fill="black"/>
<path d="M98.7552 152.291C97.8394 155.355 99.8937 185.231 99.8937 161.871C99.9907 161.871 99.7432 152.589 99.6739 152.336C99.4977 151.693 98.8769 151.882 98.7552 152.291Z" fill="black"/>
<path d="M116.448 148.24C111.793 144.305 128.63 181.426 117.402 150.15C117.28 149.812 116.785 148.524 116.448 148.24Z" fill="black"/>
<path d="M129.05 138.924C127.231 137.977 126.82 139.264 128.173 139.986C131.524 141.772 135.994 144.102 139.856 145.192C140.185 145.01 141.32 145.307 129.05 138.924Z" fill="black"/>
<path d="M31.4865 57.9791C30.736 57.5405 30.3321 59.1671 29.0758 59.2146C28.9194 59.2206 28.7788 59.4384 28.7738 59.571C28.76 59.9453 29.1035 59.9799 29.4886 60.0205C30.145 60.0898 30.643 59.6205 31.0776 59.2364C31.1568 60.2393 30.7766 60.2828 30.3707 61.0461C30.1005 61.554 30.3014 61.8114 30.5895 61.8114C31.1726 61.8114 31.7726 61.0402 31.9696 60.4106C32.1617 59.7958 32.0607 58.3147 31.4855 57.9781L31.4865 57.9791Z" fill="black"/>
<path d="M28.8543 57.6359C29.7453 57.627 30.5185 57.0706 30.669 56.6409C30.7244 56.4825 30.6967 56.338 30.5937 56.242C30.2146 55.8885 29.2067 56.4905 28.9553 56.5499C28.9186 56.3885 28.9295 55.7697 28.6979 54.8599C28.585 54.4184 27.9663 54.4223 27.9465 54.9589C27.9128 55.8044 27.995 57.6458 28.8543 57.6369V57.6359Z" fill="black"/>
<path d="M30.7365 52.0021C31.0543 51.8853 31.2345 51.6615 31.1761 51.4586C31.087 51.1556 30.5731 51.1051 29.6445 51.3071C29.0743 51.4308 28.5019 51.9377 28.8504 52.3931C29.0613 52.6693 29.1871 52.5733 30.7365 52.0021Z" fill="black"/>
<path d="M30.4837 53.6341C30.3342 53.6509 30.0807 53.7687 30.0688 54.3835C30.0688 54.3994 30.0708 54.4152 30.0758 54.4311C30.1659 54.7291 30.2233 54.935 30.4144 55.031C30.5193 55.0825 30.6341 55.0775 30.7421 55.0369C31.6044 54.7093 31.0331 53.5757 30.4837 53.6341Z" fill="black"/>
<path d="M25.8817 55.1506C24.9639 54.7635 25.1184 56.6346 25.9708 56.4723C26.5361 56.3614 26.446 55.3892 25.8817 55.1506Z" fill="black"/>
<path d="M57.1606 78.4761C57.1101 78.4415 57.0448 78.4405 56.9953 78.4742C56.4102 78.8573 54.7143 79.3612 53.651 79.2483C49.1593 78.7652 50.3602 79.9364 46.0566 80.871C44.5855 81.1898 43.943 80.5562 42.2352 80.9274C40.8809 81.2244 38.1514 83.15 36.9664 83.1777C36.8406 83.1807 36.7753 83.3302 36.8584 83.4242C37.0485 83.64 37.5663 84.0261 37.7257 84.2311C37.7594 84.2736 37.8138 84.2974 37.8732 84.2855C39.9928 83.841 41.5481 82.0758 43.3559 82.1095C48.0466 82.6876 48.4089 81.0472 50.8225 80.5116C51.9373 80.2631 52.7758 80.7957 54.7509 80.3829C55.9419 80.1344 56.6844 79.9364 56.8715 79.8701C56.92 79.8523 56.9557 79.8117 56.9675 79.7632C57.2388 78.589 57.2764 78.5544 57.1626 78.4761H57.1606Z" fill="black"/>
<path d="M56.5595 74.0298C56.2803 72.6883 56.311 72.6844 56.211 72.6349C55.6041 72.3309 52.8875 69.6322 47.4771 67.367C45.4842 66.5324 42.2647 65.481 40.1461 65.5355C37.1493 65.585 37.0256 65.4702 36.3048 65.6167C35.8999 65.6988 36.1692 65.5573 34.5416 62.4288C34.3825 62.1239 34.3228 61.9405 34.3624 61.8784C35.5485 60.035 34.9386 58.147 35.2663 57.9946C37.277 57.059 36.4306 53.093 34.7079 53.7078C34.7079 53.6682 34.7079 53.6158 34.7109 53.5702C34.7535 52.4119 34.3288 53.2158 35.5792 52.6257C37.2602 51.8318 37.9077 50.9417 37.5027 49.9795C36.9275 48.6093 39.8976 47.9658 37.2721 45.6986C36.6206 45.1363 38.5046 42.7692 35.0168 42.5762C34.1773 42.5267 34.9891 39.8368 31.929 41.102C31.3775 41.3297 31.4746 41.2842 30.9489 40.7813C29.2015 39.1121 27.7185 41.8208 27.0631 41.6059C26.8086 41.5208 26.5136 41.5119 26.2859 41.4357C25.8464 41.2832 25.487 41.4564 25.2553 41.601C24.1614 42.2851 24.0109 43.0959 23.9386 43.485C23.904 43.6652 23.9891 43.5196 23.2892 43.1751C22.1338 42.6098 20.826 43.3454 20.5052 44.5017C20.3072 45.2116 20.533 45.4789 19.8657 45.4492C18.8618 45.4135 18.5114 45.2304 18.1045 45.7679C17.5916 46.4412 17.7896 47.2351 17.9629 47.9351C18.1916 48.8588 15.9245 49.0132 16.8709 51.3387C17.3966 52.6297 15.97 52.7208 16.5799 54.4969C16.9095 55.4522 17.3907 55.4958 18.7608 56.5284C19.6637 57.2085 21.0022 56.9729 21.5537 55.9918C21.623 55.9126 21.5992 55.9116 21.6358 55.9977C21.8061 56.4155 22.119 57.1392 22.1417 57.2174C21.6269 57.458 21.0181 58.0649 21.1101 59.0163C21.2428 60.3706 22.6853 61.5755 23.997 61.0903C24.1544 61.0329 24.1554 61.0339 24.1851 61.0814C24.9583 62.2477 25.7761 62.708 26.3176 63.0129C26.7661 63.2654 26.9185 63.3634 26.875 63.5891C26.8265 63.8406 26.7661 65.8919 26.7611 66.1226C26.7473 67.071 26.969 67.4046 26.7364 67.4502C25.9622 67.5987 22.913 68.6184 19.1915 71.2597C13.394 75.3772 12.2802 84.1408 11.9466 90.3738C11.9387 90.5233 12.0773 90.5342 12.797 90.9044C12.9168 90.9658 13.0524 90.845 13.0029 90.7183C12.9138 90.4916 13.0307 89.9758 13.0554 89.2947C13.0653 88.9977 13.0524 89.0957 13.6158 88.7799C16.9353 86.9117 17.7441 88.766 20.5508 87.4958C22.4773 86.6236 23.2822 86.0317 24.7465 86.0842C25.8731 86.1257 26.968 85.901 27.6096 85.804C27.7155 85.7901 27.6789 85.8079 28.3897 84.4774C28.463 84.3408 28.3026 84.1992 28.1768 84.2833C27.0344 85.0446 24.3138 84.2368 21.5962 85.5416C16.9699 87.7631 18.3985 85.9624 14.9731 86.8394C14.09 87.0661 13.5663 87.478 13.194 87.6968C13.2564 86.7117 13.793 83.0676 14.0504 82.7934C21.9299 78.372 21.6695 83.8141 27.5512 79.8669C30.0054 78.2215 31.4201 79.9421 33.5407 79.6125C37.3127 79.0303 38.9482 76.7276 41.9657 78.0344C43.8735 78.86 45.6555 77.9393 47.2247 77.1255C49.3512 76.0247 49.5848 76.1583 50.6441 76.3434C51.1005 76.4236 51.2718 76.4533 51.9262 76.2375C53.0429 75.8663 53.7845 75.4782 54.5022 75.103C56.4872 74.0674 56.604 74.2555 56.5565 74.0288L56.5595 74.0298ZM22.2457 58.5223C22.4269 57.9827 22.9892 58.3648 23.2426 57.9213C23.5584 57.3659 22.6575 56.1601 22.5655 55.7275C23.604 55.9126 24.4722 55.1572 24.7088 54.3157C24.7633 54.1217 24.7672 54.1167 25.1335 53.8722C25.6226 53.5445 26.3245 53.1643 26.0968 52.7535C25.982 52.5475 25.6622 52.4872 25.3513 52.6168C24.99 52.7653 24.7653 52.9188 24.6197 53C24.6079 52.9178 24.5722 52.8267 24.5356 52.7317C24.3762 52.3228 24.4009 52.3584 24.7851 52.0713C25.1187 51.8209 25.5751 51.4763 25.9038 50.9368C26.4275 50.0765 26.0582 49.5834 25.5494 48.9003C25.1593 48.3766 25.4117 48.7162 25.6731 47.6222C25.8305 47.5995 26.0513 47.743 27.0769 47.3381C27.2512 47.2698 27.4502 47.1916 27.4957 47.2064C27.5056 47.2173 27.5403 47.2728 27.5452 47.5599C27.5541 48.1014 27.7719 48.5736 28.1432 48.8578C28.9698 49.4864 29.9727 48.8469 30.2371 48.7885C30.3004 48.8875 30.1301 50.8972 32.426 50.4923C32.9536 50.3992 32.8903 50.1537 33.1259 50.6913C33.6575 51.9011 33.4417 52.3941 34.0021 54.3315C34.1456 54.8265 34.4476 54.8869 34.903 54.6444C34.9406 54.6236 34.9941 54.5959 35.0247 54.584C35.3307 54.7701 35.497 55.479 35.5138 55.8096C35.5544 56.6214 34.9723 56.9283 34.7277 57.1095C33.6229 57.9253 34.701 58.9688 33.5229 61.2804C33.2883 61.7418 33.2497 62.118 33.3962 62.4971C33.6872 63.2555 34.5664 65.3919 35.0158 66.18C35.4049 66.8591 33.7209 68.8768 30.7232 68.6402C30.5638 68.6174 28.4125 67.9848 28.3125 67.9561C27.9056 67.8363 27.8323 67.8145 27.8412 67.5066C27.867 66.6364 27.8412 63.7881 27.8699 63.6525C27.9689 63.6169 28.5976 63.7258 28.6669 63.2595C28.7352 62.7932 28.1293 62.5566 27.6977 62.3685C24.8336 61.1171 24.8177 59.4638 23.999 59.8716C22.8783 60.4379 22.018 59.2123 22.2487 58.5232L22.2457 58.5223ZM48.3721 69.5292C45.9713 69.6648 45.5535 69.9381 44.5942 70.4113C42.6082 71.3904 42.2023 71.6379 38.8482 71.436C36.7404 71.3102 35.6861 71.3587 33.1289 72.3933C30.6875 73.3843 30.0886 73.2873 28.3541 73.114C26.1721 72.8923 25.282 72.9111 23.3921 73.9456C22.3477 74.5169 21.0458 75.2277 19.2648 74.9426C18.2292 74.7782 17.3897 75.0465 17.0204 75.1039C17.5827 73.6625 21.1636 71.1498 22.3665 70.4291C23.9574 69.4747 26.0186 68.858 26.7869 68.5342C27.3413 68.3036 27.4462 68.8392 30.2648 69.5846C32.0626 70.0608 35.1445 69.2164 36.0761 66.7631C36.187 66.4701 36.1732 66.5542 38.8858 66.6374C43.2993 66.773 48.1077 68.7768 49.1849 69.4648C48.977 69.4955 48.6711 69.5124 48.3721 69.5292ZM23.7574 75.2109C26.1592 73.7694 27.4423 74.4644 29.5183 74.5862C32.7378 74.7842 34.8178 72.716 37.0741 72.716C38.7709 72.716 41.444 73.415 44.2556 72.024C46.3119 71.0053 46.5019 70.936 47.6791 70.8588C48.7681 70.7875 49.9492 70.6657 50.4382 70.2856C50.8837 70.1786 54.1953 72.6705 55.0279 73.3407C52.7172 73.9823 52.341 75.4287 50.1937 74.9644C47.4989 74.3812 45.8367 77.7374 42.43 76.7523C38.1601 75.5168 37.2988 77.4958 33.4853 78.2928C31.2667 78.7551 30.6271 76.5127 26.279 79.1511C21.7923 81.8707 22.1002 77.4849 14.2801 81.347C14.3365 80.6728 15.5255 77.6908 16.0423 76.7484C16.2304 76.4058 16.1363 76.584 16.7709 76.392C19.5449 75.5504 20.2587 77.3077 23.7574 75.2109Z" fill="black"/>
<path d="M58.8988 55.1618C57.3455 52.3641 54.8784 53.1689 54.2072 52.3462C53.1815 51.0909 52.641 43.7995 50.6966 38.8177C49.5957 36.0002 47.7424 32.8361 40.5757 33.6865C31.7666 34.733 13.2544 38.3099 7.4658 40.3919C-3.66883 44.3965 -0.378032 50.485 4.68686 74.1522C8.23998 90.754 9.32603 92.5925 16.1779 92.2925C18.4797 92.1895 21.027 91.7579 22.9773 91.2906C29.445 89.7402 28.0214 89.3096 27.961 87.3464C27.8382 83.4425 34.3337 82.8861 35.8494 83.6999C38.5294 85.1413 37.0285 87.9117 41.2885 87.0217C46.7762 85.874 53.6201 84.677 56.4694 81.7228C60.7719 77.2609 53.7934 65.9252 56.7555 65.1936C61.2075 64.0937 61.1353 59.1902 58.8988 55.1618ZM56.2733 64.0838C54.5378 64.5432 54.7537 66.25 55.1546 68.4517C55.316 69.3388 56.2416 74.4868 56.5634 75.8877C56.9624 77.6341 57.1683 79.4656 55.8704 80.8704C53.6498 83.2752 43.8279 85.6195 40.3866 86.0729C39.6768 86.166 39.0749 85.9621 38.6898 85.1453C37.278 82.1565 34.3485 81.608 31.5666 82.4218C28.4461 83.3336 26.2869 85.3829 27.0393 88.5463C27.1522 89.0205 25.8681 89.4551 23.9841 89.8887C21.519 90.457 17.154 91.4084 14.0187 91.1827C10.6972 90.9401 9.14287 87.7592 8.37759 84.5701C7.77963 82.0753 2.63556 59.7901 1.53566 53.5026C0.217955 45.9795 -0.626525 42.0036 20.4676 38.1138C48.7344 32.9024 48.0691 31.0125 51.9648 48.2347C52.7083 51.5216 52.735 53.4709 54.8814 53.6907C58.0573 54.0154 59.0751 57.4834 59.1256 60.6752C59.1543 62.4493 57.7851 63.6868 56.2743 64.0848L56.2733 64.0838Z" fill="black"/>
<path d="M69.2753 123.106C67.8665 121.156 67.1527 119.831 66.4033 119.061C65.4945 118.128 64.3352 119.076 62.7254 118.785C59.1139 118.134 55.6656 111.74 58.3684 109.668C60.8632 107.755 60.8335 107.856 59.1257 104.68C56.7655 100.29 52.7273 92.973 48.2208 93.0958C43.5073 93.2225 34.2646 101.656 33.6726 101.129C30.458 98.2626 24.0982 101.339 21.6231 105.165C20.7103 106.578 20.5589 107.973 21.041 109.343C21.3509 110.222 21.2222 109.569 17.2116 112.834C13.8486 115.571 8.73121 118.814 8.8015 123.127C8.88862 128.443 15.686 136.277 20.352 143.168C23.0527 147.155 25.2872 151.094 30.6639 157.11C34.0458 160.893 35.3813 161.311 37.5722 160.806C40.1621 160.209 46.2358 156.68 48.4524 155.217C77.0093 136.366 77.5944 134.626 69.2743 123.105L69.2753 123.106ZM70.8168 136.809C64.948 143.086 38.5325 161.74 34.9606 159.483C31.5104 157.297 24.5615 147.163 22.2458 143.769C7.61546 122.317 6.4819 123.134 17.9413 113.889C24.3823 108.693 21.6835 110.731 22.23 107.293C22.631 104.768 28.7492 100.129 31.7519 101.744C34.2695 103.099 33.0904 103.115 41.5303 97.8062C46.5625 94.6422 48.7267 92.5117 51.8927 96.442C52.6521 97.3855 59.994 106.921 59.0634 107.464C58.3664 107.869 57.2229 108.334 56.3933 109.805C55.4686 111.444 55.6132 114.853 59.1861 118.297C61.977 120.988 65.5242 119.617 65.544 119.628C65.7261 119.708 67.3933 122.413 68.3794 123.852C70.202 126.509 71.2158 128.031 71.7989 129.078C73.3334 131.831 72.9691 134.507 70.8158 136.81L70.8168 136.809Z" fill="black"/>
<path d="M68.3694 123.096C67.8843 122.46 67.8724 122.407 67.7684 122.406C63.3193 122.333 56.5902 124.623 53.2806 126.816C53.1856 126.88 53.0935 126.94 53.0252 126.982C53.0341 125.779 53.1598 124.699 52.2827 123.742C49.6106 120.828 47.3514 122.864 46.3862 123.733C46.2783 123.831 46.1595 123.938 46.0753 124.003C45.912 121.795 45.0615 120.862 44.9091 120.514C44.9516 120.5 45.2605 120.36 45.2863 120.36C45.313 120.381 45.3496 120.488 45.3714 120.553C45.5971 121.22 46.3228 122.2 47.0287 122.085C47.8979 121.942 48.1543 120.325 46.9129 119.694C46.7653 119.619 46.3159 119.39 46.2822 119.316C46.2911 119.208 46.6129 118.927 46.2139 118.016C45.4595 116.292 44.6249 115.733 43.2102 116.873C43.1627 116.752 43.1082 116.603 43.0449 116.432C42.4538 114.817 41.2243 111.456 38.2404 110.852C36.3425 110.469 35.4238 111.328 35.1802 111.072C31.9132 107.703 23.1407 112.599 23.603 119.357C23.5427 122.134 25.0801 125.355 25.9543 125.071C26.4662 124.906 26.5325 123.633 26.7889 122.083C27.1651 122.826 28.4373 125.608 29.2827 125.334C29.7461 125.181 29.4738 124.167 29.6035 123.642C29.6283 123.666 29.657 123.696 29.6976 123.737C30.4965 124.553 31.7795 125.733 31.9043 125.853C31.6726 126.131 31.4756 126.331 31.5865 126.996C31.7469 127.962 32.3033 128.494 32.7418 128.77C33.3774 129.17 34.1229 129.259 34.5239 129.142C34.5239 129.142 34.7209 129.8 34.8179 130.077C35.5495 132.144 38.2522 130.345 35.5723 128.578C35.5723 128.578 35.5475 128.543 35.5436 128.491C35.5129 128.133 36.2544 129.224 38.6146 130.04C37.5038 130.649 36.686 131.309 36.1099 132.745C35.4297 134.439 36.2792 136.112 37.5008 136.953C37.3236 137.149 37.1088 137.376 36.8662 137.634C34.8268 139.796 31.0321 143.822 29.7352 149.147C29.2501 151.137 29.0293 152.078 28.8867 153.527C28.8768 153.626 28.9085 153.619 29.7104 154.624C29.7936 154.728 29.9609 154.677 29.9748 154.546C30.6549 147.763 31.338 145.549 36.5167 139.345C37.0464 138.71 38.278 137.235 38.7571 137.235C40.0412 137.308 39.6383 136.993 40.5085 136.96C38.7502 141.125 34.3872 142.459 33.2962 149.295C32.925 151.621 32.8191 153.281 32.9666 154.372C33.1834 155.977 33.2101 156.336 34.012 156.336C34.4179 156.336 40.1739 155.463 40.3956 155.403C41.0569 155.223 41.1401 154.957 41.0708 154.465C40.459 150.156 40.7352 147.328 43.0152 143.27C42.9152 144.215 41.9955 146.136 43.9953 152.902C44.2468 153.753 44.7111 153.695 45.1289 153.575C46.4099 153.203 48.6701 151.893 49.5958 151.339C50.471 150.814 50.4422 150.713 49.971 149.03C49.867 148.659 49.5364 147.438 49.5106 147.35C53.0588 151.293 52.85 151.459 53.0678 151.304C61.2433 145.496 61.0235 145.694 60.8631 145.514C59.7662 144.305 55.1894 136.475 54.229 134.426C53.0519 131.916 52.6104 128.232 53.0004 128.026C60.0889 124.295 62.9976 123.948 66.3646 123.548C66.7487 123.503 67.9862 123.349 68.2595 123.336C68.3783 123.331 68.4446 123.194 68.3704 123.098L68.3694 123.096ZM44.1052 141.782C45.012 140.421 46.6456 138.577 47.1703 136.441C47.2 136.318 47.2237 136.223 47.2544 136.141C48.6384 139.479 47.9702 141.823 48.3335 145.636C48.5731 148.158 49.2958 149.918 49.3404 150.391C48.9483 150.627 48.0335 151.14 44.9655 152.713C44.2151 152.047 42.9875 143.26 44.1052 141.782ZM39.959 151.933C40.0501 153.899 40.3016 154.505 40.0392 154.597C39.76 154.648 34.3991 155.366 34.212 155.374C33.7457 155.08 33.7715 148.528 35.5347 145.447C36.4247 143.892 38.5671 141.267 39.7234 139.898C40.4956 138.985 40.4649 138.987 41.4074 137.109C41.449 137.027 41.4341 137.032 41.5054 137.049C43.2855 137.49 44.9101 136.718 46.4149 135.991C45.4288 140.838 39.5165 142.406 39.958 151.934L39.959 151.933ZM47.6069 134.033C41.6074 138.119 42.5162 135.277 39.5897 136.175C39.0413 136.343 38.5205 136.504 37.8671 135.945C35.6406 134.048 37.1692 132.011 39.6749 130.502C40.6184 129.934 41.5777 132.249 45.4833 128.502C46.7574 127.28 47.0188 127.09 47.6356 125.826C47.7583 125.575 47.4237 125.354 47.2455 125.497C46.5852 126.01 46.4723 126.128 46.3248 126.303C46.2387 126.089 46.1941 125.952 46.1644 125.113C46.2397 124.926 47.4999 123.667 48.9117 123.31C49.6987 123.11 50.3759 123.235 50.9165 123.686C52.4629 124.969 52.1975 129.396 51.5511 130.47C50.6977 131.889 48.9711 133.101 47.6049 134.033H47.6069ZM30.152 119.542L30.1599 119.561C29.954 119.535 30.0005 119.544 30.152 119.542ZM41.6123 118.676C39.1403 120.624 39.0264 119.998 37.9146 118.638C37.3692 117.97 39.3987 116.878 40.2432 116.579C40.6817 116.422 40.8075 116.457 41.0708 116.805C41.3252 117.143 42.1182 118.277 41.6123 118.675V118.676ZM34.2209 121.698C34.6298 121.184 34.9565 121.123 35.102 121.12C35.3248 121.116 35.4337 121.233 35.6505 121.451C36.4692 122.277 36.6534 122.489 36.4088 122.936L36.4019 122.952C35.697 124.238 34.7159 124.869 34.5674 124.9C34.1774 124.987 33.321 124.088 33.0497 123.509C32.9557 123.307 32.9497 123.295 34.2209 121.697V121.698ZM36.7385 112.527C36.2989 112.47 35.8802 112.763 35.8049 112.408C35.796 112.367 35.6762 111.878 35.6861 111.84C35.7119 111.814 35.8584 111.777 36.001 111.74C37.3741 111.387 38.5879 111.483 39.9333 112.728C41.1233 113.83 41.842 115.401 42.0351 116.084C40.3659 114.068 39.4917 112.862 36.7385 112.527ZM35.8891 113.358C37.7582 113.372 39.3521 114.153 40.3778 115.558C39.6561 115.714 39.0502 115.896 37.9879 116.627C37.1117 117.229 36.5059 118.358 37.1375 119.202C37.183 119.264 37.2187 119.312 37.2424 119.348C36.791 119.513 36.1891 119.806 35.993 120.452C35.9485 120.437 35.8772 120.401 35.8208 120.374C35.4386 120.186 34.7268 119.837 33.8804 120.723C32.7181 121.942 32.1637 122.837 32.234 123.384C32.2023 123.63 32.5082 123.929 30.0678 120.978C29.9827 120.875 30.0005 120.872 30.1658 119.577C30.3945 120.104 30.6193 120.713 31.2915 121.957C31.3657 122.095 31.541 122.415 31.8865 122.309C32.8438 122.014 31.5004 119.501 34.7179 115.453C35.6584 114.271 35.6832 113.343 35.8891 113.358ZM29.755 122.586C29.7857 122.393 29.8441 121.998 29.8876 121.808C32.3676 125.174 32.7428 124.686 32.5884 125.061C32.5676 125.112 32.5488 125.143 32.5488 125.143C32.5399 125.139 32.5221 125.128 32.4953 125.105C30.7955 123.603 29.7243 122.723 29.755 122.586ZM32.7408 126.308C33.3457 125.893 33.4081 125.656 33.5309 125.494C33.6299 125.573 33.6764 125.626 33.82 125.712C35.4258 126.674 38.2968 123.087 36.9068 121.407C36.4861 120.898 36.9989 120.005 37.9572 120.291C38.2641 120.382 38.4423 120.934 39.1304 120.992C40.5708 121.116 43.1944 119.365 42.6489 117.722C42.9409 117.921 43.3617 117.889 43.5736 117.656C43.9953 117.192 44.5873 117.138 44.9398 117.706C45.8347 119.153 45.409 119.382 44.7012 119.62C43.2142 120.117 44.2616 120.724 44.9368 122.589C45.4338 123.955 44.9328 125.398 45.5239 126.784C45.5853 126.925 45.6427 127.059 45.61 127.093C44.6843 128.058 42.3588 130.243 40.7708 129.671C38.7997 128.961 38.8769 129.337 36.7702 128.14C35.2446 127.274 35.1951 127.226 34.8832 127.64C34.6902 127.93 34.5486 128.205 34.1566 128.159C33.3527 128.068 32.7894 127.844 32.4666 127.003C32.3122 126.601 32.429 126.521 32.7399 126.306L32.7408 126.308Z" fill="black"/>
<path d="M65.2516 133.206C64.5526 133.304 64.31 133.344 63.8595 133.553C63.4695 133.732 63.4824 134.437 64.124 134.472C63.823 134.793 63.526 135.097 63.0151 135.679C62.8221 135.638 62.2806 134.691 60.5649 135.108C60.256 135.218 60.2054 135.04 59.844 134.896C59.5718 134.786 59.6144 134.774 59.6252 134.614C59.7579 132.58 59.5777 132.633 59.7886 132.8C60.0539 133.003 60.5451 133.38 60.8817 132.965C61.2005 132.575 60.5708 131.95 60.0154 131.399C59.7461 131.132 59.5342 130.853 59.1857 130.888C58.6125 130.937 58.1363 131.835 57.573 132.656C57.2027 133.198 57.8077 133.833 58.6017 133.131C58.5809 133.427 58.5591 133.898 58.571 134.614C58.574 134.877 57.5928 134.611 56.9869 135.65C56.1483 137.087 57.2959 139.369 59.2868 139.133C59.6392 139.095 59.7292 139.468 60.5341 139.868C61.33 140.263 62.3369 140.103 63.0348 139.473C64.2605 138.369 63.6813 136.749 63.5546 136.479C63.5873 136.38 64.2555 135.789 65.0376 135.052C65.0673 135.168 65.0783 135.279 65.1198 135.416C65.2436 135.833 65.5228 135.871 65.7337 135.829C66.1347 135.751 66.1425 135.314 66.1415 135.104C66.1375 134.099 66.2951 133.057 65.2516 133.208V133.206ZM61.1261 135.953C61.6775 136.008 62.5865 136.273 62.7647 137.364C62.9528 138.513 61.5013 139.475 60.5153 138.606C60.5262 138.566 60.64 138.474 60.6677 138.445C61.8072 137.256 60.8192 136.14 61.1261 135.953ZM58.9916 138.021C58.8808 138.075 58.263 137.866 57.9452 137.503C57.2621 136.719 57.9076 135.646 58.8847 135.619C59.3282 135.703 59.452 135.757 59.4708 135.767C59.4678 135.809 59.3381 136.005 59.3183 136.047C58.8313 136.854 58.8422 137.28 58.9916 138.021Z" fill="black"/>
<path d="M42.2419 124.27C42.4349 124.015 42.2775 123.727 41.9696 123.629C40.2589 123.079 40.1955 123.411 40.2351 124.738C40.246 125.094 39.9391 124.987 39.3946 124.841C38.86 124.699 38.5501 124.961 38.6581 125.574C38.7303 125.985 38.8026 126.607 39.1501 126.607C39.5204 126.607 41.6657 125.035 42.2419 124.27Z" fill="black"/>
<path d="M43.0682 125.396C43.0553 124.873 42.9445 124.603 42.7306 124.568C42.5425 124.536 42.3762 124.703 42.2683 125.005C41.7832 126.359 41.9871 126.416 40.0645 126.567C39.7735 126.621 39.6883 126.728 39.6586 126.869C39.5497 127.382 40.3833 127.609 40.907 127.609C42.0356 127.609 43.1009 126.737 43.0682 125.396Z" fill="black"/>
<path d="M39.6074 121.883C39.3876 121.566 39.0381 121.904 38.7708 122.144C38.3273 122.546 38.3461 122.609 38.0689 121.927C37.9174 121.556 37.56 120.728 37.2531 120.983C36.8839 121.292 36.8878 121.46 37.7561 123.074C38.3045 124.093 40.0865 122.695 39.6074 121.883Z" fill="black"/>
<path d="M50.5823 125.942C49.325 127.032 49.4626 127.299 48.137 128.608C44.5888 132.119 44.3581 132.207 41.7979 133.699C41.3079 133.985 41.3207 134.202 41.3712 134.305C41.8227 135.226 47.6796 131.353 50.8338 126.769C50.9486 126.602 51.105 126.096 50.9229 125.922C50.8902 125.891 50.7704 125.798 50.5823 125.942Z" fill="black"/>
<path d="M37.8103 114.794C37.3836 114.139 35.6808 115.449 35.7214 116.314C35.7333 116.571 35.8313 116.804 36.0867 116.804C36.5471 116.804 37.2658 115.969 37.6717 115.445C37.938 115.102 37.8727 114.89 37.8103 114.794Z" fill="black"/>
<path d="M32.0517 121.067C32.2101 121.163 32.4299 121.146 32.6329 120.92C33.0952 120.403 33.61 119.711 33.4368 119.349C33.0576 118.562 31.1904 120.56 32.0517 121.067Z" fill="black"/>
<path d="M39.7054 119.222C40.5192 119.232 40.3093 118.007 39.6242 118.004C38.7451 118 38.9926 119.214 39.7054 119.222Z" fill="black"/>
<path d="M34.9307 122.131C34.313 122.205 34.0853 123.109 35.2406 123.312C35.3466 123.332 35.4555 123.26 35.5248 123.176C35.8346 122.798 35.4515 122.069 34.9307 122.131Z" fill="black"/>
<path d="M72.1354 135.332C71.5276 134.867 69.0109 132.019 63.5976 129.552L63.5837 129.544C62.1997 128.913 61.9353 128.905 61.7502 129.214C61.5463 129.554 61.972 129.828 62.3383 129.979C64.9499 131.072 66.527 132.517 70.5138 135.545C71.0187 135.927 71.3513 136.18 71.4474 136.275C71.4751 136.301 71.5127 136.317 71.5513 136.317C71.6741 136.308 71.6464 136.291 72.1671 135.533C72.2117 135.468 72.1978 135.38 72.1354 135.331V135.332Z" fill="black"/>
<path d="M37.7835 153.471C36.9122 153.303 36.7746 154.123 36.7746 154.123C36.4568 152.536 34.4016 153.702 36.0658 155.428L37.4825 155.316C37.731 155.037 37.9765 154.632 38.0805 154.282C38.1844 153.931 38.1012 153.532 37.7835 153.471Z" fill="black"/>
<path d="M38.0513 148.663C38.0513 148.663 37.0939 148.268 36.5464 147.873C35.999 147.478 36.1514 146.825 36.4861 146.567C36.8207 146.308 37.383 146.703 37.383 146.703C37.383 146.703 37.5503 145.989 38.1582 146.019C38.8928 146.056 39.271 146.554 38.0513 148.663Z" fill="black"/>
<path d="M52.4725 131C52.4725 131 51.4687 131.254 50.7935 131.264C50.1183 131.274 49.85 130.659 49.9638 130.252C50.0777 129.846 50.7648 129.827 50.7648 129.827C50.7648 129.827 50.4727 129.154 50.9776 128.815C51.5884 128.406 52.1904 128.579 52.4725 131Z" fill="black"/>
<path d="M39.5679 139.477C39.5679 139.477 39.7619 140.373 40.1955 140.851C40.6292 141.33 41.4499 140.732 41.1667 139.926C42.0924 139.866 42.2419 138.716 41.4509 138.656C40.6599 138.597 40.0767 138.716 40.0767 138.716L39.5679 139.477Z" fill="black"/>
<path d="M46.2263 144.599C46.2263 144.599 45.4571 144.081 44.9937 143.654C44.4492 143.152 44.8215 142.178 45.8105 142.795C46.2976 142.02 47.3292 141.821 47.2143 142.666C47.0995 143.511 46.2253 144.6 46.2253 144.6L46.2263 144.599Z" fill="black"/>
<path d="M49.6822 150.478L48.3763 151.193C47.4695 151.193 46.9329 150.712 47.2359 150.19C47.5388 149.668 48.1437 149.769 48.1437 149.769C47.6843 148.796 48.9506 148.035 49.3931 148.967L49.6822 150.478Z" fill="black"/>
<path d="M45.5584 135.74C45.5584 135.74 45.1129 136.017 44.3051 135.595C43.4972 135.174 43.9675 134.295 44.7991 134.656C44.5942 133.933 45.606 133.656 45.7505 134.415C45.895 135.175 45.5574 135.741 45.5574 135.741L45.5584 135.74Z" fill="black"/>
<path d="M50.6759 123.302C50.6759 123.302 50.7986 123.813 50.1442 124.445C49.4898 125.078 48.8028 124.355 49.4076 123.68C48.6572 123.646 48.7127 122.599 49.4789 122.701C50.2452 122.803 50.6759 123.302 50.6759 123.302Z" fill="black"/>
<path d="M44.314 132.743C44.314 132.743 43.7903 132.78 43.2745 132.029C42.7587 131.279 43.5844 130.722 44.1507 131.429C44.3081 130.695 45.3318 130.923 45.105 131.661C44.8783 132.4 44.315 132.742 44.315 132.742L44.314 132.743Z" fill="black"/>
<path d="M39.7214 134.14C39.7214 134.14 39.2363 134.341 38.5086 133.794C37.781 133.246 38.3869 132.455 39.1492 132.946C39.065 132.2 40.1085 132.091 40.1273 132.863C40.1461 133.635 39.7214 134.14 39.7214 134.14Z" fill="black"/>
<path d="M188.051 93.2999C187.372 89.819 186.62 88.0766 181.411 86.3836C175.145 84.3458 176.069 84.5537 174.378 84.1468C173.378 83.9043 175.986 80.3897 166.431 77.1999C163.563 76.2426 159.486 76.0089 157.933 78.6027C157.695 78.9978 147.022 73.82 141.996 75.8495C139.301 76.9376 138.803 78.8285 136.617 87.5707C135.803 90.8278 134.974 92.3772 136.742 93.681C137.771 94.4413 138.324 94.5512 138.6 95.5393C139.238 97.8143 138.741 103.018 136.691 104.191C133.942 105.765 133.513 104.568 132.26 106.825C131.345 108.475 129.245 118.446 128.936 120.306C128.072 125.538 132.348 127.67 148.567 132.259C149.105 132.41 167.034 136.836 172.726 137.12C174.26 137.196 177.795 135.941 178.569 134.086C181.797 126.364 188.762 96.9391 188.051 93.2999ZM186.292 99.0776C186.077 100.373 180.467 127.529 177.348 133.996C176.879 134.967 174.95 135.693 173.825 135.856C169.718 136.449 142.058 130.453 132.005 124.79C130.303 123.831 129.82 122.021 130.166 120.312C132.419 109.127 132.536 108.563 133.476 106.901C133.906 106.14 137.936 106.146 139.04 102.956C142.696 92.3881 136.273 93.2969 136.59 91.9465C140.431 75.5515 140.852 76.7623 144.129 76.4307C150.753 76.6663 158.099 80.8501 158.922 79.4116C159.663 78.1117 161.044 77.7503 162.539 77.6741C164.686 77.5632 166.386 78.2691 169.278 79.5017C174.03 81.5292 171.631 84.4755 174.421 85.4328C185.421 89.2072 188.06 88.431 186.292 99.0776Z" fill="black"/>
<path d="M153.676 116.227C151.56 116.235 150.357 117.579 150.146 117.693C149.265 117.862 150.133 116.837 141.523 116.822C141.056 116.821 139.883 116.855 139.931 117.318C139.964 117.642 140.618 117.825 140.881 117.813C147.246 117.511 147.632 118.274 149.703 118.448C149.67 118.612 149.336 119.49 149.652 119.782C149.859 119.975 150.234 119.78 150.266 119.271C150.389 117.395 154.508 116.511 154.707 117.7C155.02 119.541 155.026 119.047 155.002 120.106C154.542 118.988 154.497 118.035 153.864 117.768C153.786 117.735 153.701 117.772 153.669 117.848C153.455 118.348 153.75 119.349 153.485 119.617C153.286 119.321 153.294 118.329 152.697 118.451C152.184 118.554 152.504 119.266 152.663 119.714C152.165 119.701 152.35 119.763 151.604 118.979C151.243 118.605 150.695 118.991 150.955 119.453C151.583 120.578 152.459 120.558 152.98 120.546C153.452 120.537 153.747 120.607 154.161 120.202C154.981 121.919 156.665 121.314 155.537 117.593C155.272 116.722 154.593 116.226 153.675 116.229L153.676 116.227Z" fill="black"/>
<path d="M147.884 116.32C148.103 116.406 148.382 116.197 148.491 115.984C149.171 114.643 150.155 111.47 150.124 109.844C150.219 107.988 149.274 107.541 149.241 108.181C149.208 108.773 149.249 108.94 149.286 109.086C149.331 109.266 149.369 109.422 149.189 110.7C148.934 112.527 148.073 114.699 147.751 115.785C147.64 116.161 147.786 116.282 147.884 116.32Z" fill="black"/>
<path d="M146.842 123.637C146.842 123.637 143.228 126.081 142.949 126.294C142.816 126.396 142.396 126.746 142.547 126.992C142.668 127.189 142.975 127.07 143.182 126.971C144.386 126.396 145.725 125.538 147.395 124.271C147.799 123.964 147.325 123.31 146.842 123.638V123.637Z" fill="black"/>
<path d="M168.297 88.7763C170.95 95.7213 167.841 99.3724 168.584 99.8387C168.677 99.8962 168.781 99.8872 168.877 99.8368C169.417 99.5497 170.231 97.5983 170.345 94.1432C169.743 87.023 167.965 87.9042 168.297 88.7763Z" fill="black"/>
<path d="M161.193 86.6103C160.648 86.8766 160.312 87.2934 160.429 87.5597C160.707 88.1963 161.755 86.9271 165.666 86.3657C166.543 86.2399 166.693 86.0558 166.728 85.929C166.934 85.2103 163.978 85.2449 161.194 86.6103H161.193Z" fill="black"/>
<path d="M163.408 94.6283C163.458 95.4371 163.532 96.1598 163.491 96.2262C163.323 96.2816 162.315 96.1113 162.123 96.4786C162.057 96.6043 162.086 96.7578 162.211 96.933C162.473 97.3023 163.413 97.2251 163.856 97.1508C164.02 97.1231 164.254 97.0597 164.399 96.833C164.628 96.4747 164.578 95.7767 164.231 94.4996C164.034 93.7769 163.366 93.9541 163.408 94.6283Z" fill="black"/>
<path d="M165.564 93.6442C165.64 93.359 165.324 93.1888 165.22 93.1323C164.971 92.9967 164.551 92.77 164.244 93.1581C163.814 93.7046 165.35 94.4451 165.564 93.6442Z" fill="black"/>
<path d="M162.42 93.1195C162.481 93.0522 162.466 92.9472 162.393 92.8967C162.07 92.6779 161.835 92.5027 161.258 92.8185C160.464 93.2512 161.351 94.3016 162.421 93.1185L162.42 93.1195Z" fill="black"/>
<path d="M165.629 94.9589C165.047 94.9569 164.893 95.8558 165.315 96.0954C165.484 96.1914 165.697 96.1647 165.863 96.0637C166.36 95.7608 166.22 94.9608 165.629 94.9589Z" fill="black"/>
<path d="M161.847 94.4194C161.126 93.9778 160.693 95.5025 161.53 95.5203C162.1 95.5331 162.28 94.6857 161.847 94.4194Z" fill="black"/>
<path d="M177.475 115.932C176.696 115.44 172.552 114.303 172.348 113.898C171.334 110.475 167.509 106.136 163.432 105.134C163.126 105.059 163.168 105.005 163.23 104.848C163.379 104.467 163.05 104.426 164.918 104.03C167.869 103.403 174.01 102.101 173.695 92.9781C173.584 89.7516 169.722 83.5215 164.511 83.1354C159.24 82.7453 154.302 85.6371 152.565 88.6577C149.716 93.6186 152.595 97.5509 153.202 98.2885C153.385 98.5122 154.006 99.233 154.306 99.132C154.386 99.1072 154.493 99.3122 154.611 99.529C155.082 100.4 155.371 100.718 156.653 101.282C156.895 101.39 156.768 101.158 155.964 102.692C155.902 102.812 155.842 102.924 155.825 102.94C155.615 102.93 155.081 102.596 152.777 102.903C141.872 104.361 137.727 113.195 136.452 116.924C135.054 121.012 135.006 124.662 135.839 125.506C136.858 126.54 134.835 115.316 143.231 108.135C145.73 105.997 150.913 103.724 154.955 103.806C155.139 103.81 155.326 103.813 155.347 103.806C155.352 103.849 155.291 104.015 155.23 104.174C154.673 105.641 156.367 106.925 156.47 107.004C158.171 108.31 159.844 108.154 161.787 107.678C162.981 107.385 162.769 105.774 162.991 105.9C163.327 106.096 165.171 106.464 167.496 108.48C169.057 109.834 171.064 113.006 171.162 113.649C167.491 112.479 163.097 111.724 160.587 111.678C158.814 111.646 155.967 123.009 155.945 123.125C155.918 123.254 156.621 123.625 146.862 120.382C146.607 120.296 146.39 120.215 146.101 120.395C145.927 120.503 145.853 120.739 145.798 120.952C145.614 121.654 145.73 121.904 146.383 122.227C150.312 124.165 160.924 127.392 162.229 127.584C162.247 127.603 162.27 127.631 162.301 127.666C163.536 129.103 165.263 129.535 167.438 128.951C167.848 128.841 167.771 128.869 170.011 129.095C170.11 129.105 170.246 129.118 170.27 129.138C170.295 129.179 170.272 129.396 170.247 129.623C170.161 130.408 170.163 130.755 169.964 133.026C169.854 134.278 169.828 134.575 169.981 134.737C170.053 134.813 170.146 134.827 170.217 134.826C171.03 134.818 171.217 130.307 171.266 129.381C171.293 128.835 174.051 130.418 174.982 128.023C175.961 125.504 179.728 117.428 177.475 115.934V115.932ZM165.96 98.9211C164.714 97.9331 163.135 97.744 161.553 97.9123C159.57 97.9598 159.827 98.3598 159.018 95.959C158.691 94.9848 162.057 92.3841 163.51 91.5901C163.523 91.5831 163.964 91.3247 163.979 91.3218C164.015 91.3376 164.104 91.4633 164.199 91.597C165.423 93.3176 166.292 94.7571 166.243 96.8965C166.287 97.3113 166.129 98.6607 165.959 98.9201L165.96 98.9211ZM156.656 100.337C155.316 99.6517 154.662 97.5272 154.565 96.3322C154.369 93.9394 155.164 92.5316 156.511 91.0347C157.015 90.4684 159.089 88.5943 158.841 88.1785C158.474 87.5627 154.455 90.6535 153.743 94.3968C153.492 95.7214 153.706 96.5975 153.88 97.5014C153.29 96.7886 152.38 94.9125 152.424 92.8414C152.566 86.1668 163.176 81.1722 169.072 86.3559C170.192 87.3419 171.066 88.8448 171.796 90.1753C174.676 95.4175 170.409 102.573 165.731 102.77C166.099 101.479 168.385 97.348 166.563 93.7275C165.541 91.694 165.176 91.4059 164.843 90.907C164.843 90.907 165.459 90.5971 165.641 90.4981C166.191 90.2001 166.124 89.9288 165.914 89.8417C165.376 89.62 162.925 90.4258 159.711 93.3097C156.841 95.8847 156.929 99.6785 156.656 100.337ZM162.012 106.176C161.826 108.685 154.931 106.222 155.93 104.564C157.596 101.805 157.371 102.017 157.466 102.176C159.067 104.836 161.925 104.332 162.256 104.604C162.29 104.709 162.089 105.115 162.012 106.176ZM161.729 100.187C161.715 100.169 161.705 100.159 161.698 100.152C161.694 100.167 161.666 100.204 161.632 100.289C161.389 100.892 161.411 101.127 161.746 101.48C162.252 102.019 161.836 102.345 161.271 102.064C160.375 101.615 160.484 99.9804 161.4 99.3399C161.779 99.0736 161.941 99.3607 162.19 99.6052C163.115 100.506 163.972 100.328 163.915 100.748C163.829 101.421 162.155 100.78 161.73 100.188L161.729 100.187ZM168.96 126.729C168.06 127.945 167.493 127.908 166.32 128.07C165.409 128.012 164.603 127.92 163.863 127.532C163.11 127.139 163.445 127.038 163.554 126.865C164.691 125.063 164.816 124.75 165.039 124.853C165.528 125.077 164.526 126.581 164.699 126.722C164.88 126.87 166.368 124.855 166.702 125.087C167.058 125.334 166.153 126.509 166.266 126.704C166.34 126.832 167.628 125.499 167.937 125.446C168.638 125.323 167.453 126.955 167.393 127.113C167.868 127.076 168.961 125.785 169.15 126.007C169.319 126.202 169.253 126.33 168.959 126.729H168.96ZM168.336 121.956C166.055 122.018 165.682 118.384 168.24 118.384C170.591 118.384 170.707 121.891 168.336 121.956Z" fill="black"/>
<path d="M98.9383 100.581C98.5878 100.57 98.47 100.652 97.2711 101.238C97.0662 100.801 97.1236 98.3767 96.987 98.2272C96.8504 98.0757 96.6494 97.8817 96.4375 97.9619C96.1574 98.0688 96.1435 98.548 96.1435 99.3202C96.097 99.6776 96.1287 101.187 96.5524 101.844C96.7444 102.141 96.9731 102.211 97.1474 102.211C97.877 102.211 99.3957 101.545 99.3848 100.914C99.3828 100.819 99.3363 100.596 98.9383 100.581Z" fill="black"/>
<path d="M101.577 102.9C101.623 102.079 100.913 101.241 100.485 101.739C99.3638 103.035 99.0055 102.994 99.2054 103.359C99.3767 103.671 99.7796 103.546 100.084 103.34C100.278 103.207 100.446 103.003 100.579 102.859C100.562 103.374 100.278 104.335 100.796 104.335C101.198 104.335 101.634 103.531 101.577 102.9Z" fill="black"/>
<path d="M94.9877 97.0749C95.5361 96.5472 93.7244 96.0918 93.0334 97.6887C93.0265 97.7055 93.0225 97.7223 93.0215 97.7402C93.0067 98.0273 93.1007 98.3154 93.373 98.3154C93.6819 98.3154 93.6779 98.0342 94.3214 97.6095C94.4857 97.5006 94.6729 97.3778 94.9877 97.0749Z" fill="black"/>
<path d="M98.1082 96.4739C98.3696 96.463 99.6705 96.0244 99.7259 95.6749C99.7853 95.3126 98.6448 95.0334 97.9261 95.6918C97.534 96.0531 97.6162 96.463 98.1082 96.4739Z" fill="black"/>
<path d="M99.1781 97.657C98.7682 97.9272 98.9503 98.6915 99.5137 98.6806C99.9552 98.6727 99.973 98.246 99.9691 98.1441C99.9532 97.6392 99.4919 97.4471 99.1781 97.657Z" fill="black"/>
<path d="M94.782 98.9568C94.3266 98.8628 94.0128 99.3776 94.3246 99.7865C94.4722 99.9805 94.7315 100.103 94.9474 100.026C95.3929 99.8647 95.2899 99.0657 94.782 98.9568Z" fill="black"/>
<path d="M125.984 97.6262C125.413 94.1741 125.079 91.6406 121.689 90.8526C120.296 90.5279 120.35 90.315 119.948 87.0945C119.173 80.9321 118.786 78.0699 117.881 76.6701C116.439 74.4396 114.488 75.1207 110.901 75.6682C102.143 77.0037 100.058 76.6374 98.9336 77.6858C97.4505 79.0689 97.8129 81.8468 90.9145 81.6825C85.6585 81.5578 87.3267 78.5234 85.7872 78.0828C84.6388 77.7522 76.3316 79.0303 72.0558 79.7965C64.696 81.1162 65.2346 82.3656 67.9363 95.6987C68.4303 98.1391 68.4185 98.3529 68.1175 98.5479C65.8177 100.058 65.9147 103.878 66.479 106.557C66.6265 107.258 66.8354 108.003 67.1235 108.852C68.9214 114.149 71.3152 112.659 71.6152 113.828C76.8514 134.141 75.0921 133.451 88.0702 130.958C92.3767 130.13 92.5321 129.251 92.9658 127.879C93.3885 126.537 93.441 125.657 94.3825 124.925C95.5814 123.992 97.0931 123.508 98.6752 123.317C102.319 122.873 104.145 123.164 105.441 125.139C106.027 126.034 106.489 126.974 107.891 127.03C110.336 127.124 119.939 124.973 121.244 124.539C124.687 123.389 125.063 121.334 125.105 119.049C125.15 116.708 123.979 108.35 123.543 105.77C123.424 105.067 123.886 105.072 125.345 103.182C126.482 101.711 126.314 99.6409 125.982 97.6282L125.984 97.6262ZM122.493 106.36C123.226 110.346 123.922 118.029 123.924 119.018C123.933 122.686 122.274 123.316 115.087 124.667C114.979 124.688 111.112 125.446 110.601 125.495C107.914 125.757 107.628 125.923 107.069 125.133C105.79 123.323 104.98 121.86 101.622 121.832C99.6355 121.815 96.2724 122.159 94.0785 123.746C90.8066 126.113 93.4816 128.89 89.4512 129.448C87.3554 129.732 83.821 130.893 79.562 130.843C75.697 130.801 74.2961 119.064 72.823 114.059C71.9865 111.224 70.8073 113.263 69.2501 110.718C67.6799 108.155 66.2691 103.094 68.0373 100.031C68.7125 98.8618 69.5184 99.2251 69.5164 98.4667C69.5164 97.9331 67.8037 89.8051 67.378 86.7886C67.1443 85.1268 66.7047 83.2665 67.9363 82.126C68.666 81.4508 70.05 80.8321 72.6805 80.4994C84.4012 79.0105 85.6328 78.6333 85.7476 79.2322C86.4772 83.0289 91.5827 83.1566 95.3755 82.4072C97.1793 82.0508 98.4712 80.7083 99.1316 79.1708C99.8454 77.5126 102.519 78.0571 108.287 77.2037C114.372 76.3028 116.231 74.9178 117.387 78.4759C117.867 79.949 118.88 87.7093 119.51 90.3942C120.167 93.193 124.338 88.6449 124.988 100.513C125.114 102.833 122.031 103.848 122.493 106.36Z" fill="black"/>
<path d="M123.412 110.983C123.357 110.406 123.384 110.223 123.226 110.194C122.566 110.069 121.886 109.785 118.085 108.883C117.074 108.642 109.359 107.496 105.338 108.234C105.362 108.366 105.392 108.483 105.325 108.236C105.282 108.244 105.226 108.257 105.226 108.257C105.169 108.199 105.075 107.753 104.901 107.068C104.89 107.025 104.774 106.626 104.772 106.61C104.874 106.577 105.153 106.548 105.257 106.536C109.371 106.074 110.437 105.54 111.997 105.183C113.378 104.868 113.272 104.661 112.278 102.274C110.815 98.7607 109.6 96.9015 106.469 94.8799C106.802 93.9562 107.002 93.4176 106.579 92.5672C105.696 90.7891 104.786 91.0079 104.791 90.406C104.843 84.7156 97.8345 82.5742 93.9665 86.3588C91.2024 89.0626 89.6531 89.1378 89.3442 91.4475C89.161 92.8345 89.364 92.5573 89.1214 92.9137C88.665 93.5879 87.8819 94.3829 87.8839 95.6758C87.8839 96.6827 88.962 98.2815 89.8273 98.9221C90.0471 99.0834 90.1134 99.132 90.0926 99.3567C89.4937 106.072 90.0867 101.978 88.7165 107.106C88.5027 107.915 90.0837 107.934 94.2665 108.165C96.1743 107.997 96.8564 107.898 97.5821 107.798C97.5514 108.782 97.5969 108.762 96.7158 109.163C93.43 110.659 88.866 113.654 85.9554 116.778C85.9217 116.753 85.8534 116.613 85.7881 116.476C85.6307 116.154 85.6891 116.27 85.1812 115.31C83.6586 112.429 83.7219 112.532 82.6854 112.667C82.6547 112.671 82.5824 112.68 82.5418 112.68C82.5349 112.64 82.5309 112.566 82.5299 112.532C82.4705 111.224 82.9883 111.449 82.9398 110.165C82.9151 109.528 82.9844 109.436 83.6655 108.016C83.9051 107.517 83.9862 107.349 84.0991 106.996C84.2278 106.594 84.0932 106.111 83.7991 105.919C82.9388 105.359 81.9062 107.768 81.733 108.028C81.5389 107.486 81.5231 106.145 80.9202 104.371C80.6153 103.474 79.9757 103.447 79.7747 103.897C79.5738 104.346 79.6104 104.494 79.6569 105.943C79.6668 106.261 79.7807 106.415 79.1312 104.89C78.7926 104.094 78.6639 103.797 78.4501 103.611C77.961 103.193 77.2997 103.47 77.5561 104.857C77.5908 105.041 77.668 105.308 77.7432 105.565C77.77 105.652 77.7719 105.637 77.7165 105.565C77.3799 105.093 77.3096 104.995 76.9403 104.799C76.4869 104.56 75.9345 105.127 76.4572 106.133C77.4957 108.13 77.7502 108.334 77.266 107.837C76.8215 107.382 75.9117 106.419 75.4335 106.839C75.1603 107.074 75.2504 107.633 75.6573 108.229C76.6899 109.739 77.168 109.548 77.3522 110.035C77.8769 111.429 78.2026 111.785 78.464 112.071C78.5976 112.218 78.7036 112.335 78.8115 112.58C79.0708 113.173 79.2174 113.515 79.253 113.608C79.2312 113.622 79.2015 113.639 79.1758 113.653C78.861 113.837 78.1244 114.266 78.3541 115.365C79.2401 119.594 79.7282 126.943 81.3261 130.92C81.3112 131.011 81.3825 131.091 81.4726 131.091L82.2131 131.018C82.3201 131.008 82.3824 130.889 82.325 130.793C81.6449 129.673 80.5707 122.893 79.9133 119.358C78.9421 114.135 77.9551 114.472 82.9012 113.574C83.1863 113.523 83.1814 113.368 83.417 113.819C87.0682 120.796 88.1562 123.013 88.9155 123.306C89.0175 123.347 89.1224 123.265 89.1175 123.161C89.0531 121.845 86.0663 117.826 86.5217 117.397C89.3947 114.699 91.9608 112.945 92.7092 112.499C93.421 117.726 94.125 121.354 94.8011 123.286C94.8506 123.427 94.8526 123.499 94.9348 123.538C94.9744 123.557 95.0189 123.556 95.0585 123.538C95.503 123.336 95.6575 123.306 95.5961 123.141C95.5733 123.077 95.5159 122.807 95.4605 122.545C94.2626 116.889 94.5021 118.953 93.5092 112.263C93.4686 111.996 93.4656 111.974 94.5358 111.4C94.813 111.252 96.4158 110.36 96.4911 110.319C97.3237 114.076 103.939 115.363 106.258 111.223C106.975 109.941 107.063 109.342 107.106 109.054C107.113 109.005 107.12 108.949 107.106 108.954C107.106 108.954 107.139 108.947 107.209 108.947C109.929 108.94 109.325 108.932 110.096 108.975C111.046 114.22 111.457 120.827 111.684 125.353C111.686 125.406 111.725 125.464 111.772 125.488C111.913 125.559 112.406 125.43 112.49 125.376C112.534 125.347 112.572 125.283 112.57 125.231C112.408 121.855 111.703 112.119 111.019 109.041C111.284 108.967 112.762 109.165 113.487 109.262C117.395 109.783 117.903 109.909 119.796 110.376C123.064 111.178 122.937 111.027 123.207 111.139C123.307 111.18 123.421 111.1 123.41 110.986L123.412 110.983ZM98.3256 110.414C98.5424 109.89 98.479 107.556 98.4582 107.403C98.4473 107.111 98.4216 106.723 97.9216 106.729C94.3289 106.777 91.9608 102.586 91.1193 99.0567C90.9035 98.1479 93.6141 96.2312 95.0447 95.4531C97.985 93.8542 101.83 94.7076 101.997 95.1541C102.18 96.449 102.691 97.5955 103.654 98.8726C104.825 100.427 105.876 97.9746 106.584 99.0963C106.851 99.5121 106.911 100.337 106.334 100.805C106.07 101.02 105.842 101.055 105.641 101.086C104.755 101.224 105.104 101.461 103.991 104.988C103.531 106.443 103.665 106.113 104.31 108.309C104.585 109.249 104.76 109.167 106.135 109.013C105.537 112.547 101.093 114.267 97.6375 111.091C97.8939 110.919 98.1721 110.778 98.3246 110.415L98.3256 110.414ZM90.3421 98.1677C87.0325 94.7135 90.3659 92.2296 94.8793 90.601C96.3287 90.0793 95.5624 89.4615 94.9239 89.6833C92.5152 90.2397 91.4074 91.0594 90.2926 91.7692C90.9341 89.1358 91.7123 89.8506 94.3447 87.2162C97.4247 84.1345 103.416 85.3364 103.689 90.1654C103.462 90.1189 102.772 89.907 101.566 89.5774C100.252 89.22 98.7532 89.2685 98.5503 89.3388C98.0909 89.4982 98.179 90.0506 98.6028 90.1021C101.11 90.411 104.358 90.7198 105.605 92.9325C105.854 93.375 105.77 93.6641 105.498 94.2809C105.477 94.3284 105.453 94.3839 105.47 94.3839C105.319 94.3839 104.953 94.1255 103.304 93.7671C94.6566 91.891 91.0678 97.5885 90.3421 98.1657V98.1677ZM79.9945 113.299C79.944 113.175 79.847 112.77 79.7302 112.302C79.5055 111.404 79.0411 111.661 78.3254 110.292C77.9165 109.512 77.1136 108.768 76.5265 108.123C76.6968 108.283 76.9255 108.481 77.2413 108.727C77.7314 109.112 78.5739 108.369 78.1699 107.693C77.8373 107.134 77.3363 106.353 77.1225 105.864C77.6621 106.562 78.3462 107.951 78.8738 107.584C79.0619 107.455 78.9768 107.113 78.561 105.823C78.3887 105.29 78.1373 104.51 78.1284 104.245C78.4155 104.558 78.8946 106.31 79.456 107.397C79.7124 107.891 80.6024 107.546 80.4885 106.694C80.4133 106.13 80.2985 105.262 80.3143 104.664C80.7905 105.687 80.7143 107.021 81.0291 108.172C81.1113 108.473 79.6084 108.938 80.1589 110.974C80.247 111.305 80.6519 111.436 80.7608 111.379C81.0033 111.254 80.7638 110.394 80.844 110.022C81.132 108.705 81.9508 109.257 82.4973 108.19C82.7438 107.709 83.0348 107.138 83.3031 106.786C83.2487 107.071 83.0834 107.409 82.9002 107.785C81.833 109.974 82.523 109.441 81.928 111.139C81.1528 113.339 82.8596 112.442 79.9945 113.299Z" fill="black"/>
<path d="M165.566 39.5463C163.295 23.4002 160.963 16.1543 155.618 16.0316C148.436 15.8662 131.286 18.3086 124.269 19.6897C116.81 21.1569 113.953 21.5697 111.679 23.2527C110.369 24.2219 109.912 24.9159 109.764 26.1445C109.558 27.8573 110.013 30.0561 110.111 30.5758C111.092 35.6783 111.512 42.5312 111.516 42.55C111.96 45.3111 109.119 43.7993 108.052 47.504C107.44 49.6295 107.775 52.6303 108.495 54.7242C108.729 55.4073 109.412 55.9983 110.39 56.8963C111.228 57.6685 112.692 57.4695 113.79 57.1883C114.203 57.0814 114.24 57.0734 114.351 57.4981C114.603 58.4614 115.785 65.6163 116.142 68.4239C116.441 70.7415 116.48 72.9532 118.113 74.3452C119.348 75.3986 120.584 75.2382 122.597 75.151C125.216 75.0382 131.498 74.0353 135.16 72.1929C138.08 70.7236 134.825 66.8538 141.994 66.0123C146.989 65.4232 146.701 68.816 148.912 69.6555C152.166 70.893 164.715 68.6011 166.356 64.3213C168.103 59.7703 166.245 44.3726 165.566 39.5463ZM165.877 62.3778C165.552 66.1656 160.262 67.3735 154.797 68.4586C150.496 69.311 149.319 68.9763 148.696 68.1823C147.719 66.9368 147.096 65.9855 146.024 65.4232C143.642 64.1738 139.102 65.143 137.493 66.3301C136.109 67.3518 135.815 68.7051 135.552 69.7407C135.256 70.9009 134.586 71.3405 133.465 71.7623C131.307 72.5731 124.756 73.954 121.526 74.1184C119.237 74.2352 117.757 73.3482 117.38 70.2753C117.317 69.7585 117.146 66.7409 115.538 59.1603C114.937 56.3269 114.567 55.9379 113.535 56.1676C109.972 56.9576 108.606 53.9351 108.664 50.2869C108.386 45.0508 112.693 46.6942 112.616 42.1946C112.482 34.3448 110.939 30.0412 111.014 27.0029C111.095 23.718 111.877 21.4469 151.535 17.3414C158.06 16.6662 159.795 16.4444 162.635 29.8571C165.213 42.0331 166.08 60.0434 165.879 62.3798L165.877 62.3778Z" fill="black"/>
<path d="M140.63 44.8035C140.432 44.845 140.216 45.0034 140.047 45.1292C139.042 45.8786 138.747 45.5697 138.657 45.9439C138.622 46.0915 138.683 46.2637 138.81 46.3716C139.187 46.6884 139.739 46.5607 140.451 45.9895C140.454 46.6706 139.698 47.5299 140.125 47.5775C141.489 47.727 141.852 44.549 140.63 44.8035Z" fill="black"/>
<path d="M139.312 43.8073C139.942 43.5876 140.059 42.9401 139.842 42.7589C139.605 42.5589 139.129 42.848 138.89 42.856C138.913 42.6401 139.363 41.9729 139.121 41.6521C139.06 41.5699 138.965 41.5323 138.853 41.5511C138.557 41.6006 138.213 42.056 138.017 42.6579C137.719 43.5707 138.55 44.0727 139.313 43.8064L139.312 43.8073Z" fill="black"/>
<path d="M140.544 41.3914C140.718 41.4875 140.934 41.4835 141.098 41.3835C141.539 41.1112 141.332 40.3618 140.742 40.3816C140.205 40.3945 140.116 41.1528 140.544 41.3914Z" fill="black"/>
<path d="M136.129 41.8863C136.15 42.5258 137.076 42.5734 137.107 41.8962C137.138 41.223 136.107 41.2042 136.129 41.8863Z" fill="black"/>
<path d="M160.48 67.1601C160.128 66.6592 159.623 64.0099 155.803 58.2164C155.637 57.9639 155.281 57.659 155.052 57.8065C154.873 57.9214 154.78 58.2312 155.648 59.6212C156.396 60.8211 159.423 66.3889 159.523 67.468C159.529 67.5294 159.577 67.5858 159.637 67.6017C159.774 67.6225 160.398 67.4552 160.479 67.3383C160.516 67.2869 160.517 67.2096 160.479 67.1582L160.48 67.1601Z" fill="black"/>
<path d="M127.038 63.3669C126.693 63.448 126.334 64.5994 125.968 66.7874C125.842 67.5417 125.604 70.9216 125.732 73.7669C125.736 73.86 125.824 73.9283 125.92 73.9035C126.704 73.6956 126.804 73.6966 126.794 73.5372C126.672 71.5899 126.916 64.4816 127.252 63.9223C127.401 63.6748 127.292 63.3045 127.036 63.3669H127.038Z" fill="black"/>
<path d="M166.087 58.6503C166.085 58.5612 166.02 58.5265 165.832 58.3266C161.507 53.7438 156.09 50.9599 149.732 50.052C146.408 49.5778 145.432 50.0431 145.272 49.9065C145.227 49.8689 145.21 49.6521 145.189 49.3699C145.128 48.5413 144.825 48.2007 144.523 47.7988C145.005 47.5958 145.383 47.1563 145.577 46.8088C146.003 46.0504 146.685 46.5435 147.551 46.4979C148.396 46.4553 149.021 45.8287 149.104 44.9377C149.144 44.507 149.128 44.1704 149.108 43.9516C149.135 43.9348 149.252 43.9199 149.377 43.9041C149.548 43.8823 149.783 43.8516 150.119 43.7863C151.852 43.4467 152.647 41.236 151.194 40.3589C150.964 40.2203 150.665 40.0421 150.528 39.9361C151.174 39.7084 151.654 39.4451 152.027 38.7036C152.44 37.8848 151.81 37.5066 151.141 37.1057L151.107 37.0849C151.072 37.0641 151.066 37.0374 151.138 36.8344C151.403 36.086 151.03 35.8147 150.239 35.589C153.962 34.0782 153.277 31.1795 149.682 30.7934C149.573 30.7815 149.467 30.7696 149.351 30.7508C150.345 30.2508 151.959 29.5182 151.37 28.4916C150.937 27.7382 149.531 27.46 147.594 27.7392C148.465 26.9818 150.337 25.6938 149.547 24.6632C149.205 24.2157 148.405 24.0395 147.509 24.2108C144.673 24.7592 143.883 26.3759 145.285 24.392C146.671 22.4337 145.281 20.5695 142.482 22.9703C141.592 23.7356 141.076 24.5622 140.579 25.1503C140.66 24.4632 141.558 22.1288 140.339 21.7793C139.814 21.6288 139.11 21.9724 138.663 22.5951C138.233 23.194 137.928 24.0405 137.576 25.0206C137.416 25.4661 137.453 25.4186 137.422 25.3156C137.227 24.6355 136.822 23.2228 135.543 22.6535C134.221 22.0644 133.599 23.5039 133.823 24.9573C133.486 24.5672 132.931 23.9346 132.301 23.6069C131.059 22.9614 130.109 23.5287 130.092 24.3939C130.08 24.9929 130.358 25.6859 130.559 26.2037C129.439 25.2364 128.924 24.6721 127.472 24.583C125.562 24.4682 124.714 26.0284 125.764 26.8205C126.572 27.4313 127.692 27.8273 128.28 28.6965C127.473 28.4639 126.5 27.6699 124.756 27.5976C122.281 27.4996 120.98 29.742 122.356 30.6201C123.084 31.0854 124.108 31.1181 125.031 31.1904C123.944 31.7398 122.305 32.4467 121.476 33.7654C120.601 35.1573 121.522 36.2384 122.529 35.979C123.207 35.8028 123.793 35.5028 124.372 35.2088C123.438 36.0206 122.352 37.0096 122.165 38.0769C122.054 38.7095 122.133 39.1154 122.408 39.3184C122.985 39.7431 124.255 39.0204 124.947 38.6689C124.1 39.7094 122.451 41.3419 123.244 42.5488C123.977 43.6586 125.14 42.5765 126.205 42.0389C125.406 43.2992 124.53 44.5654 124.64 46.2108C124.665 46.5732 124.869 46.9197 125.163 47.0949C125.805 47.477 126.433 46.9949 126.963 46.4939C127.313 46.1633 127.452 46.0425 127.879 45.6029C128.093 45.3851 127.8 45.5921 127.955 47.2117C128.027 47.977 128.58 48.5393 129.271 48.2383C129.768 48.0215 130.195 47.6008 130.558 47.2642C130.701 47.6117 130.745 48.6878 131.383 48.9076C131.945 49.1026 132.584 48.5304 132.997 48.1918C133.603 48.9007 134.583 48.6839 135.139 48.0611C135.247 48.17 135.367 48.3443 135.716 48.6947C135.549 49.0343 134.555 49.7818 135.358 51.6826C134.629 52.4112 118.088 57.0811 118.607 73.5183C118.61 73.6193 118.6 73.5935 119.426 74.1618C119.523 74.2291 119.653 74.1618 119.66 74.0499C119.631 71.4907 119.792 69.3503 120.652 66.7407C122.284 61.7886 125.714 57.8197 130.847 54.9437C133.06 53.7042 134.375 53.029 134.764 52.933C134.729 53.0458 134.33 56.1119 134.286 57.6336C134.192 60.9194 133.634 65.0329 134.37 70.9244C134.444 71.5155 134.426 71.6214 134.545 71.662C134.596 71.6799 134.658 71.667 134.698 71.6264C135.336 70.9848 135.351 71.0046 135.338 70.9047C134.649 65.916 135.178 54.6655 135.482 53.4042C135.889 53.8062 137.003 55.6822 140.106 57.8028C140.489 58.0642 140.709 58.183 140.844 58.2701L140.827 58.285C139.971 59.0522 140.082 60.1452 140.634 60.8293C141.864 62.35 144.198 61.0521 143.835 59.3166C143.688 58.6067 143.152 58.0325 142.504 57.889C142.427 57.8721 142.377 57.8573 142.342 57.8454C143.023 56.9108 144.434 53.0835 144.619 52.4766C144.742 52.6587 144.964 53.1221 145.281 53.8626C147.113 58.1474 147.689 61.5302 148.071 63.7696C148.153 64.2458 148.47 66.4377 148.887 66.4189C149.808 66.3892 148.112 59.0453 147.806 58.0038C145.777 51.0757 144.437 52.1944 145.154 50.7936C145.503 50.4599 150.033 51.0411 151.16 51.2589C158.022 52.5805 161.99 55.7456 165.837 60.0908C165.879 60.1373 165.945 60.1531 166.003 60.1314C166.078 60.1017 166.104 59.6093 166.083 58.6543L166.087 58.6503ZM142.054 58.6038C142.641 58.6038 143.116 58.977 143.075 59.6462C143.026 60.4343 142.508 60.6669 142.078 60.666C140.68 60.665 140.573 58.6038 142.054 58.6038ZM139.276 53.0944C138.756 53.2498 138.898 53.8091 139.354 53.8517C141.05 54.0101 142.568 53.5597 143.851 52.5518C143.057 55.0288 141.854 57.3207 141.802 57.4326C141.604 57.8494 141.518 58.0434 141.274 57.8474C137.59 54.8972 137.818 55.0397 135.81 52.4914C135.926 52.4489 135.931 52.5469 136.076 52.6479C137.123 53.3844 138.003 52.6924 137.414 52.3707C136.019 51.6044 135.762 50.0065 136.222 49.4719C136.707 48.9076 136.787 50.1907 140.148 50.1263C142.09 50.0926 142.931 49.2333 143.545 48.6056C143.609 48.5393 143.673 48.475 143.734 48.4146C143.798 48.3512 143.825 48.3661 143.84 48.374C144.105 48.5175 144.364 49.7006 144.22 50.4154C143.716 52.9231 140.412 52.7518 139.276 53.0963V53.0944ZM143.302 40.5123C143.223 40.8449 143.232 41.4766 143.531 41.7577C143.796 42.0062 144.095 41.8676 144.317 41.7944C144.936 41.5894 144.896 41.636 144.993 41.8785C145.166 42.3112 145.345 42.7586 144.959 43.1477C142.186 45.9475 145.308 46.9761 141.635 48.9413C141.355 49.0898 141.09 49.1363 139.595 49.3412C135.421 49.165 134.675 45.4307 133.624 41.331C133.828 41.1855 134.753 41.0509 134.811 39.6777C134.825 39.3698 134.858 39.3619 134.999 39.3273C135.772 39.1392 135.97 38.265 136.173 37.9046C137.024 38.2976 137.508 37.8096 137.738 37.4888C137.863 37.3146 137.926 37.2116 137.993 37.1057C138.066 37.1621 138.183 37.2453 138.384 37.3363C139.033 37.6334 139.463 37.3987 139.843 37.1918C140.062 37.073 140.046 37.074 140.191 37.2373C140.624 37.7304 141.22 38.0759 141.892 37.8719C142.241 37.766 141.987 37.8947 142.618 38.4075C142.736 38.5036 142.87 38.6115 142.855 38.6679C142.61 39.5896 143.416 40.0331 143.302 40.5103V40.5123Z" fill="black"/>
<path d="M88.451 53.4251C88.8163 53.4251 88.9222 53.1123 88.7015 52.9281C88.3223 52.6113 87.7837 52.4143 87.4719 52.0767C87.3263 51.9163 87.7877 52.0866 89.3044 48.683C90.4864 46.0287 90.825 43.3894 90.2845 41.052C89.5242 37.7631 87.3055 35.9692 84.2068 34.2961C84.2801 33.9229 85.2513 33.016 85.0444 32.6032C84.9602 32.4359 84.7157 32.4062 84.6335 32.4666C84.3622 32.6715 84.3058 32.7527 84.1821 32.9299C83.8405 33.4209 83.2287 34.1565 82.5594 34.7367C80.9625 36.1227 77.2223 39.3699 79.6567 45.7713C80.326 47.5306 81.3863 48.6948 82.3347 49.6027C83.8702 51.0718 87.2729 52.9954 87.5907 53.1548C87.9976 53.3588 88.2698 53.4251 88.451 53.4251ZM89.148 40.1273C91.0913 45.0754 87.2461 51.2293 86.6789 51.6391C86.3046 51.5104 85.3087 50.8748 84.5444 50.3511C82.5307 48.976 81.0516 47.2158 80.3794 45.3922C79.5478 43.133 79.5726 40.6975 80.4487 38.7116C81.3001 36.784 82.4367 35.9405 83.6019 34.8565C85.4631 35.7386 88.0144 37.2414 89.148 40.1273Z" fill="black"/>
<path d="M97.7416 53.9095C97.5654 53.4363 96.7021 53.9788 96.1814 54.2699C93.738 55.6351 91.5857 56.5123 88.9751 57.5211C87.2643 58.1814 87.0782 58.2616 87.1356 58.4784C87.1584 58.5685 87.1752 58.6309 87.4673 58.6309C87.7405 58.6309 88.2573 58.5764 89.2473 58.4378C90.3928 58.2765 90.6799 57.7379 93.3885 56.6697C96.3249 55.5114 97.9525 54.4798 97.7416 53.9095Z" fill="black"/>
<path d="M89.4915 56.2445C89.6232 56.2682 89.7054 56.1831 89.842 56.1178C89.94 56.0722 89.9578 55.9396 89.8747 55.8703C88.6174 54.8129 87.2967 54.711 85.8483 54.2754C83.9 53.6893 83.7544 53.4556 83.4762 53.6744C83.1515 53.9279 83.6396 54.1724 83.9148 54.3417C84.687 54.8149 85.0494 55.0159 86.5789 55.3862C88.3847 55.8227 88.4421 56.0613 89.4896 56.2455L89.4915 56.2445Z" fill="black"/>
<path d="M76.9885 56.2809C76.8657 56.3057 76.538 56.371 76.5271 56.6116C76.5093 56.9858 77.3973 57.3799 80.0446 58.1738C80.701 58.3728 80.3822 58.2897 80.7178 58.2946C80.8376 58.2966 81.0356 58.2996 81.0901 58.0729C81.102 58.0234 81.099 57.9461 81.0188 57.862C80.6465 57.4719 77.2092 56.2809 76.9885 56.2809Z" fill="black"/>
<path d="M85.9255 46.4614C85.5642 46.8851 85.3474 47.0148 84.793 47.0673C84.6078 47.0851 84.3999 47.1049 84.3712 47.3118C84.3376 47.5514 84.5435 47.8583 84.9949 47.9177C85.8661 48.0345 86.2027 47.5969 86.5928 47.2485C86.6453 47.392 86.6453 47.8177 86.4839 48.1098L86.4106 48.2414C86.2037 48.6097 86.0394 48.9008 86.1701 49.0998C86.2443 49.2126 86.376 49.2344 86.471 49.2344C87.3581 49.2344 88.2352 47.8078 87.1967 46.2129C86.8136 45.6248 86.3473 45.9021 85.9245 46.4624L85.9255 46.4614Z" fill="black"/>
<path d="M86.2139 44.2343C86.2733 44.1323 86.303 43.8274 86.1644 43.67C85.8229 43.2879 84.9101 44.2511 84.7151 44.4165C84.6477 44.0927 84.6467 43.1572 84.6467 42.5117C84.6467 41.9751 83.9438 41.8731 83.8557 42.4721C83.3201 46.0945 85.0705 46.1975 86.2139 44.2343Z" fill="black"/>
<path d="M81.873 40.1014C81.2998 40.3578 80.8999 41.0736 81.4087 41.3874C81.584 41.4953 81.7879 41.4686 81.9305 41.324C82.2126 41.0359 82.7937 40.8686 83.066 40.6983C83.5848 40.3716 82.8244 39.6757 81.873 40.1014Z" fill="black"/>
<path d="M85.7722 40.4696C85.8435 40.5112 85.8485 40.4914 86.4781 40.3865C87.0959 40.2845 87.877 40.2122 87.4612 39.6796C86.685 38.6836 84.5703 39.736 85.7722 40.4696Z" fill="black"/>
<path d="M86.9841 41.6584C86.1288 41.6485 86.2287 42.9949 86.9703 43.0593C87.6415 43.1108 87.8949 41.6921 86.9841 41.6584Z" fill="black"/>
<path d="M82.4189 42.5619C82.2793 42.4699 82.0645 42.4095 81.8764 42.5491C81.4794 42.8381 81.5358 43.7994 82.1457 43.7994C82.6763 43.7994 82.8605 42.853 82.4189 42.5619Z" fill="black"/>
<path d="M117.183 68.4427C116.968 66.3954 115.566 59.099 115.233 57.8645C114.783 56.2062 114.382 55.9755 113.534 56.1656C112.419 56.4121 111.601 56.4418 110.874 56.0755C108.512 54.8845 108.04 48.5821 109.572 46.608C110.749 45.0903 112.668 45.2883 112.615 42.1936C112.526 36.9901 111.446 29.3333 110.251 26.5118C108.73 22.924 104.556 22.7369 100.66 23.0755C97.8808 23.318 93.1347 23.5754 84.2691 24.7139C49.7267 29.1492 55.5162 32.9924 58.0081 46.5635C59.6723 55.63 63.4373 48.9979 65.5252 56.0616C67.1538 61.5681 64.7679 63.158 63.0908 64.155C61.7187 64.9717 62.4542 66.9359 63.4472 72.5384C64.1848 76.6915 65.2005 78.7438 66.1034 79.7734C67.0083 80.805 67.7379 80.906 69.0942 80.8594C72.4623 80.7466 81.0595 79.1467 84.3968 79.024C85.2027 78.9943 85.5235 78.9497 85.9809 79.9714C87.5045 83.3751 91.8199 83.1107 95.377 82.4078C97.1808 82.0514 98.4728 80.709 99.1332 79.1715C99.847 77.5132 102.527 78.0993 108.289 77.2043C112.192 76.5974 114.297 75.6292 115.583 74.8313C117.8 73.4591 117.494 71.4048 117.183 68.4447V68.4427ZM116.352 72.1889C116.28 74.4164 112.701 75.2589 110.502 75.6213C109.839 75.7302 102.169 76.8499 100.154 77.1578C97.369 77.5845 98.8074 81.0456 93.3297 81.6039C85.7482 82.3821 87.4629 78.5626 85.7878 78.0805C85.5136 78.0023 85.1255 77.9171 84.6582 77.9706C82.0169 78.2735 71.0119 79.8575 70.4921 79.9001C68.8527 80.0318 67.2053 80.802 65.7391 77.2023C64.5026 74.166 63.7056 69.3882 63.2997 66.8706C63.0463 65.2925 63.0057 65.2014 64.8035 64.2084C66.3796 63.3382 67.8409 61.473 66.6618 56.5042C65.6747 52.3402 64.3056 51.8462 61.2672 50.9918C60.096 50.6631 59.4882 49.5949 58.1031 42.4549C57.126 37.4148 55.6608 34.0755 59.8119 31.5015C66.6984 27.2325 92.5803 24.7624 101.438 24.1793C105.612 23.9051 108.328 24.1873 109.391 27.5869C110.888 32.3816 111.515 42.5252 111.517 42.547C111.961 45.3081 109.119 43.7964 108.053 47.501C107.685 48.7821 107.655 50.3819 107.851 51.9076C108.345 55.7706 110.018 58.1525 113.791 57.1853C114.204 57.0784 114.241 57.0705 114.352 57.4952C114.659 58.6733 116.454 68.9456 116.354 72.1879L116.352 72.1889Z" fill="black"/>
<path d="M116.633 69.4333C113.183 62.9437 109.923 58.4144 103.3 54.9266C102.308 54.4049 101.673 54.2247 101.332 54.1267C101.219 54.095 101.103 54.0623 101.074 54.0623C100.991 54.1613 101.283 53.804 101.011 53.2931C100.757 52.8149 100.183 52.4843 99.7569 52.3793C99.4698 52.308 99.4302 52.214 99.3253 51.9635C99.0738 51.3616 98.7372 50.8498 98.0917 50.7567C97.7294 50.7032 97.3284 50.8062 97.0136 51.0309C96.9404 50.4726 96.8404 50.0082 96.38 49.3895C95.685 48.4559 94.9257 48.3411 94.4218 48.2648C94.008 48.2015 93.9377 48.1985 94.0426 47.8599C97.3334 37.2124 90.7815 33.3454 87.262 31.2683C86.5947 30.8743 86.0176 30.5337 85.6542 30.2318C84.5464 29.3101 83.7346 29.9189 81.6081 30.8199C80.3656 31.3455 79.34 32.2276 77.7668 33.777C72.9574 38.5112 73.7216 46.1927 77.9302 50.229C77.9104 50.2518 77.8708 50.2874 77.8381 50.3171C76.6214 51.419 77.3055 53.1713 77.0996 53.5822C76.3115 53.9762 75.7462 54.6316 75.2967 55.389C74.7017 56.3908 74.3929 56.5492 73.9672 57.0512C73.2603 57.8848 73.9721 58.2382 73.6711 58.5471C66.5589 65.886 67.3618 76.1247 67.6261 79.4888C67.6568 79.8818 67.6816 80.1917 67.6875 80.4075C67.6895 80.4838 67.7519 80.5521 67.836 80.5521C73.5702 79.9947 73.6167 80.0798 73.5583 79.8264C73.491 79.5423 73.4316 77.5216 73.3831 76.2237C73.5919 76.1534 74.5226 76.1663 76.6976 75.7931C77.1728 75.7109 77.5163 75.6525 77.5936 75.7198C77.6579 75.7772 77.647 76.0505 77.6322 76.398C77.5728 77.8295 77.6738 78.8106 77.6272 79.1502C77.6144 79.2433 77.6906 79.3274 77.7906 79.3185C83.6455 78.6701 83.6742 78.5166 83.6891 78.4344C84.1187 76.0851 83.0594 61.7201 83.6534 60.8241C88.8866 61.3864 87.465 60.7835 95.1821 58.5055C95.196 58.5016 95.2138 58.4976 95.2138 58.4976C95.2356 58.5709 95.2465 58.7659 95.2583 58.9718C95.6118 65.3217 98.1313 67.7007 99.6659 77.5919C99.6797 77.683 99.7708 77.7375 99.855 77.7117L100.406 77.5464C100.485 77.5226 100.529 77.4415 100.506 77.3623C100.463 77.2118 99.9401 73.5883 99.9302 73.4557C100.567 73.5418 104.011 73.0121 104.657 72.9151C105.555 72.7805 105.569 72.6449 105.732 73.2983C105.844 73.7428 106.467 76.596 106.467 76.596C106.484 76.6752 106.562 76.7267 106.641 76.7098C113.753 75.209 113.728 75.3802 113.683 75.1496C113.098 72.1459 112.588 71.7113 112.658 71.4994C112.786 71.3351 113.952 71.5459 116.49 70.6836C116.865 70.5559 116.684 69.5352 116.632 69.4352L116.633 69.4333ZM91.9903 58.4649C86.9858 60.4746 84.7909 60.3964 82.0239 59.4876C80.2527 58.9065 76.2254 59.0847 74.9681 58.1877C74.3018 57.7115 75.168 57.5907 75.9175 56.272C76.366 55.484 76.6748 54.9276 77.5282 54.4415C77.6124 54.394 77.5748 54.3791 77.6847 54.4722C78.7044 55.3256 79.1043 55.0623 80.9745 56.5799C81.1774 56.7453 81.3517 56.8868 81.4922 56.9819C83.0584 58.0471 86.2027 58.16 86.0205 57.4967C85.9918 57.3927 85.9245 57.1472 84.0118 56.9829C82.0031 56.8106 81.5398 55.9147 80.9715 55.5088C78.0737 53.4416 77.9648 54.1406 78.1955 51.4774C78.2173 51.2329 78.3757 51.0072 78.544 50.828C79.1251 51.3398 81.1051 53.7059 82.0783 53.3248C82.6406 53.106 81.1309 52.3902 78.049 49.0014C75.7759 46.5026 74.483 41.509 76.358 37.7984C78.8489 32.8721 83.996 30.4803 85.0266 31.0347C90.1142 33.7731 94 36.359 93.9287 42.5485C93.8426 49.9211 90.0509 51.7932 90.5805 52.6427C90.6795 52.8011 90.9825 52.8209 91.5705 52.316C92.4556 51.5556 92.9655 50.4656 93.6763 49.0757C94.1159 49.2222 94.4564 49.2806 94.794 49.4063C96.0939 49.8904 96.7463 51.8427 95.2296 52.5922C94.3703 53.0159 93.6001 53.1159 92.9318 53.6109C91.6953 54.5247 90.9419 54.3732 91.032 54.9326C91.1082 55.4137 92.022 55.2741 92.4309 55.0821C92.9358 54.8464 93.7604 54.2386 94.2911 54.0515C94.899 53.8366 96.1761 53.2129 96.5216 52.6753C96.7552 52.311 97.4413 51.7873 97.869 51.8309C98.0284 51.8487 98.1343 51.9427 98.2016 52.1279C98.5679 53.1258 99.1847 53.3971 99.5936 53.5762C100.005 53.7574 100.182 53.797 99.7272 54.6375C98.0601 56.2176 97.8947 56.6839 95.6821 57.3947C94.4742 57.7838 93.1961 57.9788 91.9913 58.4629L91.9903 58.4649ZM74.7374 59.2253C75.3552 59.447 75.5264 59.4797 75.6373 59.5213C75.5512 59.8103 74.8334 61.033 74.0721 63.8882C74.0246 64.0664 73.987 64.206 73.9761 64.2258C73.9632 64.2288 71.703 64.4545 71.6476 64.4575C71.6228 64.4377 71.5901 64.4258 71.5555 64.4258C71.5139 64.4258 70.7229 64.4337 70.6813 64.4287C70.6813 64.4287 70.6813 64.3842 70.7447 64.2555C72.005 61.7211 72.7148 61.1092 74.3246 59.2025C74.3787 59.1384 74.5169 59.146 74.7374 59.2253ZM74.582 65.196C74.5971 65.0943 74.9678 64.9914 75.6937 64.8871C77.9539 64.5594 77.8124 64.5347 77.7936 64.6337C77.3787 69.066 77.9727 68.9551 76.9946 69.1382C76.5758 69.2164 74.3087 69.6382 73.8939 69.6728C73.8751 69.4422 74.1869 67.773 74.582 65.196ZM72.8692 70.7826C72.8544 72.1142 72.5643 72.9587 72.5653 74.9021C72.5653 75.1318 72.5653 75.3496 72.5366 75.3862C72.4376 75.4565 72.4138 75.3397 71.1971 75.501C70.7803 75.5565 70.3497 75.6139 68.7142 75.6406C68.2944 75.6456 68.3795 75.5594 68.7587 71.3192C68.7825 71.0539 68.8043 71.0777 69.3557 71.0836C71.9287 71.1252 72.5435 70.8163 72.8692 70.7826ZM79.8498 69.4333C82.8287 68.8551 82.5397 68.7996 82.5456 68.9452C82.7684 73.8705 82.9149 73.8398 81.6378 74.0279C80.6735 74.1695 78.9103 74.6021 78.5024 74.6397L78.4083 70.0302C78.4024 69.8191 78.8829 69.6201 79.8498 69.4333ZM82.6743 60.8004C82.3486 62.7853 82.6832 62.715 81.5784 62.913C79.3647 63.3001 78.8093 63.5496 78.8251 63.3605C78.8281 63.3249 79.0825 62.1775 79.0905 62.1438C79.3961 60.7525 79.6501 60.0754 79.8528 60.1123C81.9031 60.4826 82.6208 60.5697 82.6911 60.6548C82.6961 60.6717 82.6862 60.734 82.6743 60.8004ZM102.073 61.0597C100.059 61.53 101.696 61.1845 98.4066 58.0669C98.1412 57.8165 97.9076 57.5937 97.8254 57.4917C97.866 57.462 99.1511 56.4988 99.1996 56.4829C100.718 57.3868 103.276 59.4856 104.268 60.5261C103.694 60.6905 102.335 60.9984 102.073 61.0597ZM100.353 62.2923C100.584 62.2316 101.017 62.7596 101.654 63.8763C101.802 64.1397 103.083 66.4117 103.185 66.6394C103.026 66.6889 99.554 67.2226 98.3749 67.5265C98.0017 66.7434 97.1245 63.6447 96.9146 62.9091C97.7838 62.8091 98.7402 62.719 100.353 62.2923ZM105.776 60.9201C106.212 60.741 107.811 60.3954 108.477 60.0935C108.611 60.0321 108.647 60.0192 108.687 60.0321C109.134 60.1668 111.492 62.9616 112.352 64.3555C111.45 64.6386 109.699 65.1049 109.333 65.2267C108.718 64.6743 109.413 64.9327 105.776 60.9201ZM109.056 66.3177C111.41 70.5173 110.389 68.6502 111.382 70.7114C110.906 71.049 106.474 71.7875 106.113 71.8053C106.08 71.7766 106.031 71.6182 105.983 71.4648C105.931 71.2965 105.862 71.0767 105.756 70.8005C104.248 66.8889 104.299 67.3334 104.578 67.2661C109.021 66.2038 108.952 66.1316 109.056 66.3177Z" fill="black"/>
</svg>
