<svg width="22" height="22" viewBox="0 0 22 22" fill="none" xmlns="http://www.w3.org/2000/svg">
<path d="M21.2369 11.2291C21.2369 17.0714 16.5008 21.8075 10.6585 21.8075C4.8162 21.8075 0.0800781 17.0714 0.0800781 11.2291C0.0800781 5.38675 4.8162 0.650635 10.6585 0.650635C16.5008 0.650635 21.2369 5.38675 21.2369 11.2291Z" fill="black"/>
<path d="M14.0798 11.4786C14.2175 11.3409 14.2175 11.1176 14.0798 10.9799L11.8358 8.73589C11.6981 8.59819 11.4748 8.59819 11.3371 8.73589C11.1994 8.8736 11.1994 9.09686 11.3371 9.23456L13.3318 11.2292L11.3371 13.2239C11.1994 13.3616 11.1994 13.5849 11.3371 13.7226C11.4748 13.8603 11.6981 13.8603 11.8358 13.7226L14.0798 11.4786ZM7.4834 11.5819L13.8305 11.5819L13.8305 10.8766L7.4834 10.8766L7.4834 11.5819Z" fill="white"/>
</svg>
