<svg width="26" height="22" viewBox="0 0 26 22" fill="none" xmlns="http://www.w3.org/2000/svg">
<path fill-rule="evenodd" clip-rule="evenodd" d="M8.68673 21.3151C18.0791 21.3151 23.2155 13.4502 23.2155 6.63041C23.2155 6.40693 23.211 6.18455 23.2008 5.96318C24.1978 5.23476 25.0645 4.32583 25.7483 3.29091C24.8333 3.70176 23.8486 3.97857 22.8158 4.10345C23.87 3.46459 24.6794 2.45352 25.0611 1.24845C24.0743 1.83961 22.9819 2.26968 21.8188 2.50121C20.887 1.49799 19.56 0.870605 18.0914 0.870605C15.2713 0.870605 12.9843 3.18204 12.9843 6.0313C12.9843 6.43641 13.0292 6.83025 13.1169 7.20809C8.8731 6.99246 5.1098 4.93863 2.59164 1.81577C2.1527 2.57829 1.90003 3.46459 1.90003 4.40985C1.90003 6.20045 2.8016 7.78115 4.17238 8.70588C3.33482 8.67982 2.54784 8.44718 1.85961 8.06028C1.85851 8.08181 1.85851 8.10335 1.85851 8.12599C1.85851 10.6259 3.61896 12.7126 5.95523 13.1859C5.52634 13.3038 5.07506 13.3674 4.60914 13.3674C4.2802 13.3674 3.96023 13.3345 3.64922 13.2743C4.29922 15.3248 6.1843 16.817 8.41952 16.859C6.67153 18.2433 4.46996 19.0683 2.07744 19.0683C1.66548 19.0683 1.25899 19.0445 0.859375 18.9968C3.11929 20.4607 5.80251 21.3151 8.68673 21.3151" fill="white"/>
</svg>
