<svg width="20" height="20" viewBox="0 0 20 20" fill="none" xmlns="http://www.w3.org/2000/svg">
<path d="M1.15147 17.1515C0.682843 17.6201 0.682843 18.3799 1.15147 18.8485C1.6201 19.3172 2.3799 19.3172 2.84853 18.8485L1.15147 17.1515ZM10.8485 10.8485C11.3172 10.3799 11.3172 9.6201 10.8485 9.15147C10.3799 8.68284 9.6201 8.68284 9.15147 9.15147L10.8485 10.8485ZM9.15147 9.15147C8.68284 9.6201 8.68284 10.3799 9.15147 10.8485C9.6201 11.3172 10.3799 11.3172 10.8485 10.8485L9.15147 9.15147ZM18.8485 2.84853C19.3172 2.3799 19.3172 1.6201 18.8485 1.15147C18.3799 0.682843 17.6201 0.682843 17.1515 1.15147L18.8485 2.84853ZM10.8485 9.15147C10.3799 8.68284 9.6201 8.68284 9.15147 9.15147C8.68284 9.6201 8.68284 10.3799 9.15147 10.8485L10.8485 9.15147ZM17.1515 18.8485C17.6201 19.3172 18.3799 19.3172 18.8485 18.8485C19.3172 18.3799 19.3172 17.6201 18.8485 17.1515L17.1515 18.8485ZM9.15147 10.8485C9.6201 11.3172 10.3799 11.3172 10.8485 10.8485C11.3172 10.3799 11.3172 9.6201 10.8485 9.15147L9.15147 10.8485ZM2.84853 1.15147C2.3799 0.682843 1.6201 0.682843 1.15147 1.15147C0.682843 1.6201 0.682843 2.3799 1.15147 2.84853L2.84853 1.15147ZM2.84853 18.8485L10.8485 10.8485L9.15147 9.15147L1.15147 17.1515L2.84853 18.8485ZM10.8485 10.8485L18.8485 2.84853L17.1515 1.15147L9.15147 9.15147L10.8485 10.8485ZM9.15147 10.8485L17.1515 18.8485L18.8485 17.1515L10.8485 9.15147L9.15147 10.8485ZM10.8485 9.15147L2.84853 1.15147L1.15147 2.84853L9.15147 10.8485L10.8485 9.15147Z" fill="white"/>
</svg>
